<svg width="1000" height="1195" viewBox="0 0 1000 1195" fill="none" xmlns="http://www.w3.org/2000/svg">
<path d="M502.201 172L500.601 172.3L498.001 173.4L496.901 173.7L495.701 173.9L494.501 173.8L493.501 173.6L492.301 173.1L491.301 172.9L490.001 173.1L488.801 173.6L487.801 173.9L487.201 173.6L486.801 172.4L486.401 171.4L485.601 170.5L484.301 170.1L484.701 169.3L485.101 168.6L485.901 168.2L487.201 165.7L488.101 165.2L488.901 162.8L489.801 161.7L490.401 160.1L490.701 159.3L491.501 158.2L490.801 157.1L488.201 154.9L485.501 153.3L483.501 152.8L481.701 151.7L479.701 151.1L479.201 150.1L479.301 149.4L479.601 148.5L479.701 147.7L479.401 145.9L479.101 144.7L478.301 143.6L477.401 143L476.201 143.1L473.801 142.6L472.001 142.5L470.501 142.2L466.101 142L455.801 143.4L454.401 138.4L454.001 135.6L453.701 134.7L452.901 133.4L452.801 132.9V132.2L453.201 130.5L453.601 129.5L453.801 125.9L453.901 125.1V124.3L453.701 123.3L454.101 122.6L455.101 122.3L455.401 122L456.301 120.8L457.101 120.3L457.401 119.7L458.701 115.8L458.501 113.9H469.501L476.901 112.7L477.501 112.3L478.001 111.7L480.001 110.2L481.701 109.2L482.601 108.3L483.401 106.7L483.701 106.5L484.501 106.2L485.101 105.7L486.001 104.3L486.801 103.7L489.001 102.7L492.801 99L501.001 94.7L512.701 85L513.901 84.3L516.401 83.4L520.501 82.6L521.501 82.1L523.601 80.6L524.901 81L526.401 80.3L527.801 79.2L529.401 78.7L533.401 78.6L534.601 78.2L535.701 77.6L537.401 76.2L539.601 75.6L542.501 73.5L546.101 72.1L546.901 71L548.101 69.7L548.401 69L548.501 68.4L549.401 66L551.801 62.2L552.501 59.9L554.001 57.9L554.401 57L554.501 55.7L554.301 51.8L554.001 50.4L553.601 49.9L553.001 49.3L552.401 49H552.101L552.301 48.1L552.901 47.5L554.401 46.6L556.501 47.4L563.401 46.1L565.801 46.7L565.501 48L562.701 50.9L563.701 51.4L564.801 53.2L565.901 53.7L567.901 52.8L568.301 52.6L568.501 51.7L568.901 50.9L569.501 50.3L570.101 49.9H571.001L571.901 50L572.601 49.9L572.901 49.2L572.601 48.5L572.201 47.9L571.901 47.3L572.401 46.6L571.701 46.1L571.001 45.1L570.101 44.8L569.201 44.7L568.401 44.8L567.701 45.2L567.301 45.7H566.901L566.401 44.8L569.501 42.6L572.001 40.5L572.401 39.3L572.701 39.1L573.901 39.2L574.201 39.1L575.201 38.3L575.801 38.2L576.601 38.6L575.401 39.2L574.501 40L574.301 41L575.201 42L576.001 42.3L577.001 42V41.1L577.201 41H578.401L579.701 40.3L580.501 39.7L580.901 38.9L581.201 37.7L580.401 37.3L580.701 36.7L581.101 36.3L581.701 36L583.001 35.8L582.601 37L583.001 37.6L583.601 38.1L583.901 39.1H584.301L584.801 38.4L584.901 37.9L584.101 37.5L584.501 37.2L586.101 36.3L587.001 36L587.901 35.6L588.601 34.8L587.701 34.9L586.001 35.8L585.301 35.5L585.401 35L586.001 34.4L586.701 33.9H585.901L585.201 34.1L584.701 34.4L584.301 34.8L584.601 33.3L584.001 33.5L582.201 35.1L581.601 35.8L581.201 35.3L581.901 34.1L582.901 33L584.101 32.3L585.501 32L586.901 32.2L588.901 33.2L590.401 33.5H595.201L596.601 33.7L598.001 34.4L600.101 35.8L601.001 36.7L601.401 37L602.301 37.2H604.701L605.301 37.4L606.701 38.5L608.001 39L611.101 39.6L613.401 40.7L614.701 41.7L616.001 43.8L616.201 45.1L620.301 52.1L620.801 53.9L623.301 57.7L623.701 59.1L623.301 60.6L622.501 62.1L621.701 63.1L619.901 64.5L615.201 67.1L613.901 68.6L612.901 69.1L611.801 69.5L610.901 69.7L610.601 70.3L609.201 74L608.901 74.5H606.901L605.701 75.2L603.401 77.1L600.701 78.3L591.101 80.8L565.701 87.5L564.401 88.3L563.201 90L550.501 113.8L546.501 121.4L545.801 122.2L544.601 122.6L542.101 121.9L540.801 121.8L539.501 122L535.701 123.4L532.801 123.6L531.401 123.8L530.201 124.6L529.901 125.2L529.801 126.5L529.601 127.2L529.101 127.9L527.901 129.3L527.301 130L525.001 135.8L523.801 137.5L522.501 138.7L519.601 140.7L517.801 142.8L516.301 145.8L513.001 155.1L511.201 158.1L507.101 162.9L505.801 166.5L504.901 167.8L503.801 168.9L502.701 170.3L502.301 171.7L502.201 172Z" fill="#BF522A" stroke="#3B373A" stroke-width="0.9" stroke-linecap="round" stroke-linejoin="round"/>
<path d="M736.301 465.2L738.101 464.8L741.301 463.3L743.101 462.9L744.501 463.6L747.301 466.9L748.801 468.1L752.701 465.9L756.601 462L758.101 461.2L760.001 459.3L761.301 458.8L762.901 458.7L764.301 459L766.801 460.2L768.001 459.8L769.501 460.2L771.101 460.7L772.601 461L776.901 460.8L778.301 461L782.601 462.4L784.101 462.5L785.501 462.8L788.301 464.1L789.901 464.3L790.801 463.9L792.601 462.4L793.301 462L797.501 461.8L802.401 460.3L803.901 460.2L805.301 460.3L809.701 461.5H812.101L819.801 458.8L822.701 458.4L831.301 459.2L834.101 458.8L836.401 458L837.701 457.6L838.201 457.1L838.601 456.4L838.701 455.7L839.001 454.9L839.801 454.7H840.701L841.501 454.6L842.201 454L843.401 452.7L844.201 452.3H844.801L846.001 452.6L850.701 453L861.201 455.5L863.201 456.7L865.001 458.5L866.801 459.9L869.601 460.1L867.801 461.4L867.101 462.2L866.801 463.2V465.8L869.301 469.7L871.001 470.9L871.501 472.3L871.701 473.8L871.401 475L870.601 475.7L868.201 476.7L867.201 477.3L864.001 480.8L863.401 481.8L859.401 485.6L857.801 488.1L856.701 490.8L856.201 493.7V496.8L856.901 500.7L857.101 502.1L858.301 503.4L858.501 503.7L858.301 504.5L857.901 505L857.101 506L856.301 508.4L855.901 508.8L855.101 509L854.401 509.5L853.201 510.9L852.601 511.3L850.601 512L850.301 512.3L849.601 513.1L848.901 513.5L847.901 513.4L845.401 515.5L843.701 518.2L843.101 521L843.701 523.6L844.401 524.7L844.801 525.7L845.001 526.9L845.101 528.5L845.001 529.1L844.401 530.7L844.201 531.5V532.3L844.401 533.6L844.601 534.3L845.001 534.9L846.301 536.3L846.501 536.8L846.401 537.5L845.701 538.3L845.601 538.7L845.701 541.7L845.601 543L844.701 545.6L844.301 548.2L844.201 549.7L844.301 550.2L845.101 551.8V552.7L844.801 553.5L845.101 554.1L844.701 555.4L844.501 558.4L844.001 559.5L843.301 560.6L843.001 562L842.801 565.8L842.301 567.6L842.401 569.7L842.301 570.4L842.001 570.9L841.501 571.2L841.101 571.7L841.001 572.6L841.201 573.4L841.701 574L842.801 575V574.5L844.101 575.4L844.601 576.3L845.101 578.6L845.401 578.9L846.201 579.2L846.501 579.6V580.2L846.101 581.1L846.001 581.6L846.301 582.5L847.201 584L847.401 584.9L847.201 585.7L846.001 587.9L845.701 590.4L846.101 592.7L846.701 594.8L847.001 596.9L847.501 598.2L848.801 599.2L850.101 600.5L850.601 602.7L851.401 603.5L851.801 604.7L851.601 605.9" stroke="#3B373A" stroke-width="0.9" stroke-miterlimit="10"/>
<path d="M566.201 405.4L571.701 406.7L573.901 406.9L575.001 406.7L575.701 406.3L576.401 405.7L577.201 405.2H578.001L578.701 405.3L579.101 405.1L578.901 403.9L580.901 403.8L582.501 403.5L584.001 403.4L586.001 403.9L585.701 402.8L586.101 402.3L587.001 402.2L589.301 402.3L589.801 402.7L590.201 403.2L591.001 403.8H591.401L591.901 403.7L592.801 403.1L593.401 403L593.701 403.3L594.101 403.9L595.401 404L595.501 403.8L596.701 403.5L598.201 403.9L599.501 405L600.301 404.7L602.101 403.9L603.101 403.7L604.201 403.8L606.401 404.4L607.501 404.5L610.301 404L611.301 404.1L611.901 404.5L612.101 406.2L612.401 406.9L613.301 407.3H616.601L617.401 407.7L617.901 408.2L618.601 408.3L619.801 408L620.601 407.4L621.201 406.7L621.801 406.3L626.601 406.9L630.201 406.4L633.601 405.2L636.401 403.1L637.101 402.2L637.401 401.5L638.001 401.2L639.401 401.1L641.901 400.3L644.901 400L648.901 399.1L650.901 399L651.301 399.3L652.301 400.1L652.901 400.3L655.201 400.8H656.301L658.201 400.2L659.301 400L659.801 400.4L663.201 404.8L663.801 405.2L664.901 405.4L665.601 405.5L667.201 405.2L667.801 405.3L668.101 405.5L668.701 406.3L669.701 406.6L676.701 410L678.801 410.1L682.601 407.9L685.101 407.3L687.601 407.2L689.501 407.7L691.701 409.6L713.201 436.9L718.301 443.4L735.601 465.2H736.301" stroke="#3B373A" stroke-width="0.9" stroke-miterlimit="10"/>
<path d="M373.001 128.3L372.401 127.4L372.201 126.3L372.601 125.8L374.301 126.7L379.401 128.4L385.901 131.1L390.901 132.8L394.201 133.6L397.601 134.1L402.201 134.5L406.701 134.3L409.301 133.9L408.301 134.7L405.001 135.3L398.501 135.1L397.001 134.8H396.301L395.501 135.1L395.301 135.7L395.401 136.5V137.2L394.801 137.5L394.501 138.4L395.301 140.4L396.901 143.6L395.901 143L394.901 142L394.001 141.3L393.301 142.1L392.801 141.5H391.201L390.201 141L389.701 141.3L389.201 142.4L388.801 143.8L388.601 144.7V146.8L388.701 147.8L389.101 148.3L390.001 148L390.401 146.9L390.701 145.7L391.401 144.9V145.7L391.601 146.1L392.101 146.4H392.801L392.701 147.1L392.801 149.7L393.801 150.1H394.901L395.701 149.5L396.001 148.3L395.301 148.7L394.701 148.6L394.301 147.9L394.101 146.9L394.401 146L394.901 145.3L395.301 144.8L395.101 144L396.401 144.3L397.301 145.2L397.701 146.5L398.001 149.8L398.601 150.6L399.601 150.8L402.301 150.6L402.801 150.5L403.401 150.2L404.701 148.9L405.001 148.7L405.101 148.1L407.101 144.5V144V142.1L407.801 140.6L408.201 139.7L409.101 138.6L409.301 138.2L409.801 135.6L410.501 134.1L414.701 127.9L414.901 127.4L414.701 126.6L413.701 125.4L413.501 124.8V124L413.901 122.9L414.001 122.2L413.801 121.5L413.201 120.3L413.001 119.6L413.201 119.4L413.801 118.8L413.901 118L413.501 117.6L413.601 116.8L414.001 116.2L414.901 114.9L415.801 114V113.3L416.701 111.6H417.801L418.601 111.8L419.101 111.4L419.001 109.8H419.501L419.601 110.2L420.001 111.2L420.701 110.2L420.801 109.8L421.301 110.2H421.801V108.8L422.401 109.4L422.901 110.4L423.701 110.7L424.301 110.4L424.901 109.2L425.501 109.8H426.001L426.101 109.3L426.401 109.1L427.301 108.8L429.001 109L430.301 109.5L431.401 110.3L432.601 111.4L433.101 111.6L436.201 112.3L438.401 113.6L441.001 114.4L449.101 115L456.701 114.4H458.501" stroke="#3B373A" stroke-width="0.9" stroke-miterlimit="10"/>
<path d="M344.301 154.9L344.501 154L344.901 153.3L345.301 153.4L345.701 152.9L347.201 151.5L346.701 150.5V149.6L347.201 148.5L347.001 146.8L346.701 146.3L347.601 145.2L348.301 144.9H349.101L349.901 144.7L350.601 144.4L354.901 141.6L357.401 140.9L358.801 140.1L359.701 139.1L359.601 138L359.901 137.3L360.201 135.7L360.501 135.1L361.201 134.7L362.101 134.3L363.301 134.2L364.601 133.7L365.501 132.7L367.101 131.4L367.201 130.2H369.101L371.401 130L372.501 129.1L372.401 127.4L373.001 128.3" stroke="#3B373A" stroke-width="0.9" stroke-miterlimit="10"/>
<path d="M458.5 114.4H469.5L476.9 113.2L477.5 112.8L478 112.2L480 110.7L481.7 109.7L482.6 108.8L483.4 107.2L483.7 107L484.5 106.7L485.1 106.2L486 104.8L486.8 104.2L489 103.2L492.8 99.5L501 95.2L512.7 85.5L513.9 84.8L516.4 83.9L520.5 83.1L521.5 82.6L523.6 81.1L524.9 81.5L526.4 80.8L527.8 79.7L529.4 79.2L533.4 79.1L534.6 78.7L535.7 78.1L537.4 76.7L539.6 76.1L542.5 74L546.1 72.6L546.9 71.5L548.1 70.2L548.4 69.5L548.5 68.9L549.4 66.5L551.8 62.7L552.5 60.4L554 58.4L554.4 57.5L554.5 56.2L554.3 52.3L554 50.9L553.6 50.4L553 49.8L552.4 49.5H552.1L552.3 48.6L552.9 48L554.4 47.1L556.5 47.9L563.4 46.6L565.8 47.2L565.5 48.5L562.7 51.4L563.7 51.9L564.8 53.7L565.9 54.2L567.9 53.3L568.3 53.1L568.5 52.2L568.9 51.4L569.5 50.8L570.1 50.4H571L571.9 50.5L572.6 50.4L572.9 49.7L572.6 49L572.2 48.4L571.9 47.8L572.4 47.1L571.7 46.6L571 45.6L570.1 45.3L569.2 45.2L568.4 45.3L567.7 45.7L567.3 46.2H566.9L566.4 45.3L569.5 43.1L572 41L572.4 39.8L572.7 39.6L573.9 39.7L574.2 39.6L575.2 38.8L575.8 38.7L576.6 39.1L575.4 39.7L574.5 40.5L574.3 41.5L575.2 42.5L576 42.8L577 42.5V41.6L577.2 41.5H578.4L579.7 40.8L580.5 40.2L580.9 39.4L581.2 38.2L580.4 37.8L580.7 37.2L581.1 36.8L581.7 36.5L583 36.3L582.6 37.5L583 38.1L583.6 38.6L583.9 39.6H584.3L584.8 38.9L584.9 38.4L584.1 38L584.5 37.7L586.1 36.8L587 36.5L587.9 36.1L588.6 35.3L587.7 35.4L586 36.3L585.3 36L585.4 35.5L586 34.9L586.7 34.4H585.9L585.2 34.6L584.7 34.9L584.3 35.3L584.6 33.8L584 34L582.2 35.6L581.6 36.3L581.2 35.8L581.9 34.6L582.9 33.5L584.1 32.8L585.5 32.5L586.9 32.7L588.9 33.7L590.4 34H595.2L596.6 34.2L598 34.9L600.1 36.3L601 37.2L601.4 37.5L602.3 37.7H604.7L605.3 37.9L606.7 39L608 39.5L611.1 40.1L613.4 41.2L614.7 42.2L616 44.3L616.2 45.6L620.3 52.6L620.8 54.4L623.3 58.2L623.7 59.6L623.3 61.1L622.5 62.6L621.7 63.6L619.9 65L615.2 67.6L613.9 69.1L612.9 69.6L611.8 70L610.9 70.2L610.6 70.8L609.2 74.5L608.9 75H606.9L605.7 75.7L603.4 77.6L600.7 78.8L591.1 81.3L565.7 88L564.4 88.8L563.2 90.5L550.5 114.3L546.5 121.9L545.8 122.7L544.6 123.1L542.1 122.4L540.8 122.3L539.5 122.5L535.7 123.9L532.8 124.1L531.4 124.3L530.2 125.1L529.9 125.7L529.8 127L529.6 127.7L529.1 128.4L527.9 129.8L527.3 130.5L525 136.3L523.8 138L522.5 139.2L519.6 141.2L517.8 143.3L516.3 146.3L513 155.6L511.2 158.6L507.1 163.4L505.8 167L504.9 168.3L503.8 169.4L502.7 170.8L502.3 172.2L502.2 172.5" stroke="#3B373A" stroke-width="0.9" stroke-miterlimit="10"/>
<path d="M502.201 172.5V173.5V174.8L500.901 189.8L497.401 201.8L497.301 204.5L496.801 207.1L496.701 208.5L497.201 210.3L497.801 211.6L498.001 212.8L497.501 214.6L495.401 218.9L491.701 224.7L490.001 229.3L489.301 230.6L488.201 231.7L485.501 233.4L484.501 234.3L483.301 237.3L477.901 245.3L475.601 251.1L474.701 252.5L473.501 253.7L471.101 255.4L470.301 256.7L470.201 258.2L471.101 258.7H472.101" stroke="#3B373A" stroke-width="0.9" stroke-miterlimit="10"/>
<path d="M472.102 258.7L479.502 258.5L482.302 258.2L484.702 257L487.002 254.8L488.202 254L489.902 253.5L491.402 252.6L494.302 249.9L495.902 249.8L496.302 250.4L497.102 252.8L496.802 253.7L497.102 254.3L497.902 255.2L498.102 256.9L498.002 259.7L498.302 261.2L499.502 262.9L500.802 263.2L502.202 262.7L504.502 261.2L505.002 260.9L505.802 260.6L506.602 260.7L507.202 260.9H507.702L508.202 260.3L509.502 261.5L510.602 262.2L510.902 263L510.002 264.6L511.102 265.9L515.302 282L518.302 293.7L519.702 296L526.202 303.1L533.102 310.5L533.902 311.2L535.202 311.6L535.802 312L536.602 312.8L537.302 313.8L537.702 315L537.902 316.1L537.802 317.2L537.202 319.4L537.102 320.5L537.502 322.1L539.702 326.3L541.202 330.9L541.302 333.5L540.202 335.1H539.102L537.602 334.8L536.402 335L535.702 336.2L535.402 337.5L534.802 338.6L534.002 339.5L533.002 340.4L531.602 341L531.002 341.4L530.702 342.2L531.002 342.8L532.402 344.5L532.902 345.2L533.202 346.4L533.402 349.3L533.202 350.5L531.902 354.7L531.302 361.8L531.502 363.2L532.402 365.8L532.602 367.1L532.302 368.6L531.802 370L531.302 371.4L531.602 373L533.402 376L535.902 377.8L538.802 378.8L542.102 379.4L547.602 379.3L549.902 379.9L552.202 382.9L552.602 383.2L552.702 383.5L552.102 386.3L552.002 386.9L552.202 388.9L552.702 390.8L553.402 392.8L557.102 399.9L558.302 401.3L559.102 401.8L560.902 402.6L561.802 403.2L563.402 404.5L564.202 404.9L563.202 404.1L564.902 404.7L565.102 404.9L567.602 405.7" stroke="#3B373A" stroke-width="0.9" stroke-miterlimit="10"/>
<path d="M265.4 279.1L265 278.8L266.1 277.8V277.4L265.6 276.6L266.2 276.1L270.3 275L271.9 274.1L273.1 274L273.7 273.5L274 272.9L274.7 272L277.1 270.2L277.7 269.5L277.1 267.1L277.8 265.1L279.1 263.6L281.3 261.6L282 260.8L282.4 259.8L283.1 254.1L283.6 253.1H284L285.9 252.3L287 251.9L287.3 251.1V249.9L287.4 248.7L287.7 248.1L288.4 247.3L289.1 246.8L289.7 246.5L292.4 245.7L294.5 245L296.4 243.9L298 242.6L298.2 240.9L298.7 239.9L300.2 240.1L300.9 240.8L303.1 240.7L305.5 240.2L307.1 239.6L308.1 240.1L308.5 240.6V241.5L307.5 241.1L306.5 240.9L305.6 241.2L304.8 241.9L305.7 242.4L306.1 242.3L306.7 241.9L307.5 242.7V243.3L309.6 241.9L310.9 241.2L312.4 241L313.9 241.2L315.2 241.6" stroke="#3B373A" stroke-width="0.9" stroke-miterlimit="10"/>
<path d="M230.301 326.5L230.001 325.2L229.501 324.1L228.701 320.8V320.6L229.301 320.7L229.701 319.8L230.201 319.9L230.601 320.5V321.7H230.201L229.701 321.2V322.9L230.201 324.1L231.001 324.6L232.001 324V325.4L232.901 324.4L233.201 325.1L232.601 326.2L232.501 327.3L231.101 326.8L231.501 329.2L233.201 330.2L234.701 330L234.801 328.7H239.001L238.201 330L238.001 330.7V331.5H238.501L239.401 331V331.5L237.101 332.4V332.8L238.101 333.1L238.601 333.7L238.501 334.3L237.801 333.7L236.701 333.8L237.201 334.4L238.501 335.3L239.001 336.1L237.301 335.3L235.501 334.8L233.901 335L232.901 336.1V336.4L233.401 336.5L232.101 340.4L233.901 342.8L237.501 343.9L241.701 344L242.501 343.9L243.301 343.6L244.001 343.2L244.501 342.6L244.701 342L244.501 340.5L244.601 340L245.201 339.3L245.401 338.7L245.801 334.5L245.701 332.6L244.901 331L244.601 331.9L244.901 332.8H244.501L244.101 331.7L243.901 330.2V328.6L244.601 326.3L244.401 324.9L243.501 322.6L243.101 320.4V310.9L242.801 309.7L241.901 309.1L241.001 308.7L240.601 307.8L240.301 306.6L239.901 305.4L238.501 304L236.401 302.5L234.001 301.4L232.001 301.1V301.7L231.201 300.9L232.301 299.2L234.001 297.2L234.801 295.8L241.501 293.7L243.101 293.6L249.701 291.7L250.501 291.2L250.901 290.7L251.001 289.1L251.301 288.5L251.901 288.1V287.7H251.401V287.2L252.701 287L257.201 285.3L258.101 284.6L261.101 281.6L264.601 279.2L265.001 278.8" stroke="#3B373A" stroke-width="0.9" stroke-miterlimit="10"/>
<path d="M203.202 664.8L202.702 664.5L201.802 663.1L201.602 662.6L201.402 661.7L201.202 661L200.502 660.2L199.502 658.5L199.202 658.3L196.402 655.6L195.602 654.8L195.702 653.5L196.202 652.7L196.902 651.9L197.702 651.5L198.402 651.6L199.502 651.3L200.502 651.2L200.802 651L202.102 649.8L203.602 652.6L204.602 653.7L206.302 654.4L205.902 653.6L203.702 650.9L203.102 650L203.002 648.8L203.302 647.8L204.002 647L204.202 647.5L204.702 648.2L205.102 648.5L205.302 648.2L205.202 647.7L204.402 646.6L204.802 645.2L205.402 644L205.802 642.9L205.302 641.5H206.702L206.302 642.1V643.1L206.402 643.6H206.902L207.502 643.2H208.702L209.602 644L209.802 643.6L209.602 643.1L209.102 642.7L208.502 642.4L209.402 641.9L208.202 641.5H207.602L207.902 640.8L208.102 640.7L209.002 641L209.202 640L208.302 639.7L206.902 639.8L205.802 640.1L206.102 639L206.802 638.9L207.902 639.1L208.702 639L207.602 638.3L208.502 637.8L208.802 637.5L208.502 636.8L209.902 636.5L211.302 636.4V636.8L211.002 637.4H211.602L213.602 636.8L212.602 636.6L212.402 636.1L212.702 635.5L213.902 634.1L214.302 633.2L215.002 631.3L215.702 631.8L216.302 632L216.802 631.7L217.502 631.1L218.302 630.8L219.302 630.5L219.702 630.2L218.702 629.9L217.802 630L216.902 630.4L216.202 630.3L215.902 629.3L217.502 628.9L218.602 628.5L219.202 627.6L218.002 627.8L215.202 628.5L214.302 628.1L214.002 627L214.202 625.8L214.602 624.8L216.402 626.2L217.402 626.5L218.902 626.6L219.102 626.2L218.602 625.9L218.002 625.8L216.702 625.7L216.302 625.4L215.902 624.8L217.002 624.9L218.002 624.8L218.702 624.3L219.202 623.5L218.102 622.8L217.502 622L217.602 621.1L218.702 620.2L219.502 620.9L219.602 621.4V622.1L220.602 621.1L220.202 619.7L220.002 618.5L223.102 617.5L223.902 616.3L224.602 615.1L225.602 614.2V613.8L221.402 614.7V614.2L222.402 613.8H220.702L219.902 613.7L219.202 613.3L219.402 616.2L215.502 618.5L210.702 619.3L208.102 617.9L208.202 617.3L209.202 616.8L209.402 616.3L209.202 616L208.002 615.4L207.202 614.9L206.702 614.7V614V613.4L207.202 612.4L207.502 610.6L207.902 610L208.502 609.6L209.502 609.5L210.202 609.7V610.2L209.402 611L212.602 610.4L213.602 610.1V609.6L211.302 610.1L211.602 609.2L212.102 608.5L213.902 606.3L215.002 604H213.902L213.602 603.1L212.602 603.4L211.802 602.8L211.002 601.9L209.902 601.2L210.202 601.9L210.302 602.6L210.202 603.4L209.902 604L209.302 603.7L208.802 603.6L208.202 603.7L207.602 604V604.5L207.802 604.9L207.602 605.5L207.302 605.2L206.302 605L206.502 606.2L206.302 608.1L205.802 609.8L205.102 610.5L204.902 610.9L204.602 612.8L204.402 613.3L203.302 613.4L202.502 612.8L202.202 611.9L202.602 611L199.102 608.2L198.702 607.7L198.402 606.6L198.802 605.6L200.202 605.5L199.502 604.5L199.202 604L198.702 602.2L198.402 600.1V598.2L201.202 597.8L204.102 595.4L205.002 595.3L205.602 595.5L206.402 596.3L207.202 596.6L208.102 596.2L208.602 595.5L208.502 594.3L208.802 594.1L209.902 593.1L210.602 592.2L211.102 593.3" stroke="#3B373A" stroke-width="0.9" stroke-miterlimit="10"/>
<path d="M401.4 915.7L401.2 914.3L400.9 914H400L399.6 913.8L399 912.9C399 912.9 399 912.8 398.9 912.8L398.2 911.9C398.2 911.8 398.1 911.8 398.1 911.8L397.4 911.2C397.4 911.2 397.3 911.1 397.2 911.1L393.2 908.7C393.2 908.7 393.2 908.7 393.1 908.7L391.4 907.5C391.3 907.5 391.3 907.4 391.2 907.4L388.6 904.6C388.5 904.5 388.5 904.5 388.5 904.4L386.7 901.3L386.1 900.8L385.3 900.9L384 901.7H383.2L381.5 900.1L381.1 899.9L379.5 899.8C379.4 899.8 379.3 899.8 379.2 899.8L378 899.4L377.3 899.3L376.1 898.9L376.5 898.2C376.6 898.1 376.7 897.9 376.8 897.9L377.8 897.2C378.2 896.9 378.4 896.3 378.1 895.8L376.2 892.1C376.2 892 376.1 892 376.1 892L375.2 890.8C375.1 890.7 375.1 890.7 375 890.6L373.7 889.5L372.9 889.7L371.2 892.3L370.5 892.9L369.8 893L368.8 892.6H368.7L366.6 892.1C366.5 892.1 366.5 892.1 366.4 892L365.1 891.5C365 891.5 364.9 891.4 364.8 891.3L364.1 890.8C364 890.8 364 890.7 364 890.7L361.4 887.8L361 887.4L360.4 887.3L359.2 887.2L358.6 887L357.9 886.4C357.8 886.3 357.8 886.3 357.7 886.2L355.3 882.7C355.2 882.6 355.2 882.5 355.1 882.5L354 881.7C353.9 881.7 353.9 881.6 353.8 881.6L352.6 881C352.5 881 352.5 880.9 352.4 880.9L349.6 880.2C349.5 880.2 349.5 880.2 349.4 880.2L348.3 880.1C348.2 880.1 348.1 880.1 348 880.1L347.2 880L346.5 880.7L346.3 882L346 882.8L345.2 883.7L345.1 883.8L344.3 884.4C344.2 884.5 344.1 884.5 344 884.6L343.2 884.9L342 884.2C342 884.2 341.9 884.2 341.9 884.1L337.8 882.6C337.7 882.6 337.7 882.6 337.6 882.6L334.2 882C334 882 333.9 881.9 333.7 881.8L332.8 881.1C332.7 881 332.6 881 332.5 880.9L331.2 880.5C331.1 880.5 331 880.4 331 880.4L327.3 878.1C327.2 878.1 327.2 878 327.1 878L324.1 875.3C324 875.2 323.9 875.1 323.7 875.1L322.7 874.8L322 874.4L321.1 873.5L320.3 872.7C320.2 872.6 320 872.5 319.8 872.4L318.9 872.1C318.8 872.1 318.6 872.1 318.5 872.1L317.6 872.2C317.5 872.2 317.5 872.2 317.4 872.2L314.7 872.9C314.6 872.9 314.6 872.9 314.5 872.9L313.1 873H313L311.7 872.9C311.6 872.9 311.6 872.9 311.5 872.9L310.4 872.6C310.3 872.6 310.3 872.6 310.2 872.5L309.2 872.1C309.2 872.1 309.2 872.1 309.1 872.1L307.3 871.2L307.2 871.1L304.8 869.3C304.7 869.2 304.6 869.1 304.5 868.9L304.3 868.4C304.2 868.2 304.1 868.1 303.9 868L300.1 865.7C300 865.7 300 865.6 299.9 865.6L298.4 864.3C298.3 864.2 298.3 864.2 298.2 864.1L297.7 863.3C297.6 863.2 297.6 863.1 297.6 863L297.3 861.9L296.9 861.1L292.4 855.4L292.2 854.6L291.9 854.1C291.7 853.7 291.3 853.5 290.8 853.6L290.1 853.7C290 853.7 290 853.7 289.9 853.8L288.5 854.3C288.4 854.3 288.3 854.4 288.1 854.4H287.1L286.7 853.9L286.3 852.1L285.9 851.4L285.4 851.2L284.6 851.1L283.3 851.2H283.2L281.7 851.1C281.6 851.1 281.5 851.1 281.5 851.1L280.2 850.7C280.2 850.7 280.2 850.7 280.1 850.7L278.9 850.3C278.8 850.3 278.7 850.2 278.6 850.2L277.5 849.5C277.4 849.5 277.4 849.4 277.3 849.3L275.6 847.4L274.9 847.1L274.2 847.4L272.3 848.7C272.2 848.8 272.2 848.8 272.1 848.9L270.7 850.6C270.6 850.8 270.4 850.9 270.2 850.9L269.3 851.2C269.2 851.2 269.1 851.2 269.1 851.2L267.7 851.3L267.1 851.2V851.6L267 856.5C267 856.6 267 856.6 267 856.7L267.6 860.4C267.7 860.8 267.5 861.2 267.1 861.5L266.7 861.8C266.6 861.9 266.4 862 266.2 862L260 862.7C259.9 862.7 259.7 862.8 259.6 862.8L258.2 863.5C258.1 863.5 258 863.6 257.9 863.6L257.1 863.8L256 863.4C255.9 863.4 255.8 863.3 255.7 863.2L254 861.7L253.2 861C253.1 860.9 253 860.8 252.8 860.8L252.1 860.6C252 860.6 252 860.6 251.9 860.6L248.8 860.3C248.7 860.3 248.7 860.3 248.6 860.3L246.4 859.6L245.6 859.9L245.7 862.6H244.7L242.3 861.6L241.5 861.5L236.8 862.2L235.9 862.1C235.8 862.1 235.8 862.1 235.7 862.1L235 861.9C234.9 861.9 234.8 861.8 234.7 861.7L233.8 861.1L233.7 861L232.3 859.6L231.6 859.1L230.5 858.7L229.7 858.6L227.2 858.5C227.1 858.5 227 858.5 226.9 858.4L225.3 857.8C225.1 857.7 225 857.6 224.8 857.5L222.6 855.1C222.4 854.9 222.2 854.8 222 854.8" stroke="#3B373A" stroke-width="0.9" stroke-miterlimit="10"/>
<path d="M737.1 961.2L737.3 964.2L736.2 970.4V973.5L735 978.1V979.4L734 982.8L727.4 1019.5L723.4 1041.2L719.5 1062.9L715.5 1084.6L713.5 1095.4L705.7 1138.9L701.7 1160.6L700.5 1163L698.7 1159.2L697.5 1157.5L696.1 1155.9L694.1 1154.3L687.3 1150.8L685.5 1149L684.8 1146.8L684.4 1144.4L683.6 1142L682 1139.7L679.8 1137.4L677.3 1135.5L674.7 1134.6L672.8 1134.8L671.3 1135.7L668.7 1138.1L667 1138.9H665.2L661.6 1138L660.9 1137.5L651.7 1132.7L648.8 1132.4L666.9 1104.1L677.4 1087.6L682.7 1079.4L693.3 1062.9L694.8 1060.5L693.6 1059.7L693.1 1058.9L692.6 1057.9L691.8 1054.9L691.1 1054.4L689.7 1055.3L689.3 1056L689 1056.7L688.6 1057.2L688.1 1057.4L687.4 1057L687.3 1056.4V1055.8L687.1 1055.1L685.8 1054L684.7 1054.4L683.5 1054.9L682.3 1054.4L681.5 1053.2L680.6 1050.4L679.8 1049.1L678.3 1048.4L677 1048.8L675.6 1049.6L674 1050.1L673.2 1049.4L672.9 1048.8V1048.2L673.2 1047.9L674.3 1047.4L674.7 1047.2L675 1045.8L674.1 1045.1L672.7 1045H671.3L670.5 1045.2L668.9 1045.8L668.2 1045.9L667.5 1045.5L667.1 1044.9L666.8 1044.2L666.4 1043.5L665.6 1042.8L664.4 1042.2L663.2 1041.8L662 1041.7L661 1041.2L660.2 1040.2L659.3 1039.6L658.1 1040.4L657.9 1041V1042.4L657.4 1042.7H654.6L654.2 1042.3L654.1 1041.5V1040.6L654 1039.9L653.6 1039.1L651.4 1037.4L651.2 1037.3V1035.3L651 1034.8L650.7 1034.4L648.9 1034.2L647.7 1033.9L645.2 1033L642.9 1031.5L639.4 1027.8L637.4 1026.5L636 1027.2L634.3 1026.8L631.4 1025.6H629.5L628.8 1026.5L629 1028.1L629.6 1029.8L629 1030.1L628.2 1030.2L627.3 1030L625.6 1029H624.8L622.9 1029.3L621.4 1030L620.1 1033.2L618.2 1034.2L616.9 1035.2L616.2 1035.3L615.5 1035.1L614.7 1034.5L613.9 1034.3L612.9 1034.7L611.5 1035.5L610.3 1035.8L609.8 1034.8L604.9 1037.2L602.7 1037.7L601.9 1036.2L602.2 1035.7L603.1 1034.9L603.3 1034.3L603 1033.6L601.5 1031.6L600.3 1029.5L599.6 1029.3L598.7 1030.2L598 1032.8L597.5 1033.5L596.4 1033L595.9 1032V1029.2L595.5 1027.9L594.8 1027.3L590.9 1026.5L589.5 1025.8L588.3 1024.8L586.9 1024L585.4 1023.8L583.1 1024.9L581.8 1025.1L581.2 1024L581.3 1021.6L580.8 1021.2L579.3 1021.9L575.4 1024.4H574.8L574.4 1025.1L572 1028.9L568.8 1031.3L568.3 1031.8L568 1033.3L567.2 1034.2L566 1034.5L561.8 1033.9H559.6L557.7 1034.6L555.9 1036.2L552.9 1039.7L551.9 1040L547.6 1039H546.9L545.1 1039.4L544.8 1039.7L544.9 1041L544.7 1041.5L544.1 1041.7L542.5 1041.8L539.8 1042.6L538.3 1042.7L537.1 1042.4L535.9 1041.8L535 1041L534.7 1040.1L534.1 1039.6L527.2 1038.5L525.9 1038.1L522.9 1035.7L521.7 1035L520.4 1034.8L519.6 1035.9L517.8 1039.6L517 1040.4L515.9 1040.8L515.5 1040.6L515.2 1038.8L515 1038.2L514.4 1037.1L513.6 1037.5L513.1 1038L512.7 1038.6L512.6 1039.4L510.8 1038.2L509.7 1037.8L508 1038.6L506.1 1039.3L505.3 1040.1L504.3 1040.4L501.5 1041H500.9L500.3 1040.5L499.7 1039.4L498.6 1036.3L497.6 1035.5L497.4 1035.1L492.7 1032.5L492.6 1033.2L491.8 1034.8L490.9 1035.6L490.5 1034.1L489.9 1033.5L487 1032.8L485.9 1032.1L485.7 1031.6L485.4 1029.5L485.1 1029.2L484.2 1028.5L483.9 1027.7L483.2 1026.7L483.1 1026.1L483.2 1025.4L483.4 1024.9L484 1024.2L486.5 1022L487.1 1020.5L489.1 1017.3L488.2 1016.4L487.6 1015L487.3 1013.5L486.8 1012.2L485.6 1010.5L485.2 1009.6L484.9 1008.5L485 1007.6L485.7 1005.9L485.9 1005.3L485.5 1004.2L483.9 1002.3L483.5 1001.4L484 998.9L483.6 998.1L482.4 997.5L481.7 997L479.9 995H479.2L479 996.8L478.5 997L476.3 996.4L475.3 996.6L474.2 997.6L473.7 998.4L473 998.3L471.4 996.8L470.5 996.3L469.7 996.1L469 996.2L468 996.1H467L466.5 994.7L462.2 992.1L460.8 990.4L461 987.8L461.8 985.6L462.3 984.5L464 983.6V982.3L463.3 979.5L463.2 977.9L463.1 977.2L462.6 976.5L461.2 975.5L460.4 974.3L457.9 973.1L457.3 972.1L458.4 970.8L458.7 970.1L457.6 969.6L456.9 968.6L456.8 968.2L456.7 966.7L456.4 965.7L456.1 965.6L455.3 965.7H455L454.8 964.6L454.3 963.6L454.1 962.8L453.7 962.2L452.2 961.8L450.9 960.8L450.1 960.6L448.6 960.3L447.3 959.6L446.4 958.6L445.8 957.4L444.8 957.8L443.7 959.5L442.6 960.1H441.8L440.7 959.9L438.9 959.2L438 958.6L437.3 957.9L436.1 956L435.1 953.3L434.7 952.7L433.6 952.3L431.5 952.8L430.6 952.3L430.5 951.7L431.1 950.6L431 950L430.5 949.5L430.1 949.7L429.7 950.4L428.9 950.8L428.6 951.1L428.2 951.2L427.4 950.9L426.8 950.4L426.5 949.8L424.9 945.2L424.2 944.4L423.1 946.4L421.3 946.5L417.2 944.9L413.2 944.2L411.4 943.2L409.9 941.2L408.9 938.2L408.3 937.3L406.6 936.2L406.2 935.5L406.6 934.8L407.5 934.6L408.6 934.8H409.5L409.9 934L409.5 933.2L408.8 932.5L408.4 931.7L409 930.6L408.4 930.4H407.3L406.6 930.2L406.2 929.9L403.9 927.3L403.4 926.4L403.5 925.1L403.8 924.5L404.6 923.8L404.8 923.3L401.6 916.3L401.4 915.7" stroke="#3B373A" stroke-width="0.9" stroke-miterlimit="10"/>
<path d="M706.401 761.6L708.801 762.9H707.801L708.301 765.5V770.2L708.101 806.5L709.601 806.7L712.401 804.9L714.101 804.4H715.001L715.901 804.6L716.401 805L716.501 806.4L717.301 806.6L723.701 805.6L725.301 805.7L728.201 806.7L728.901 806.8H731.101L733.201 806.5H733.901L734.501 806.8L735.301 807.7L736.601 808.5L737.301 808.6L740.501 806.3L741.501 806L742.601 806.2L746.001 808L746.901 808.6L748.101 810.1L749.201 810.8L749.701 811.3L749.901 811.9L750.001 812.7L750.201 813.4L751.601 814.3L751.301 816.8L752.301 817.8L753.901 818.4L754.701 818.9L755.101 819.4V820.3L754.601 820.7L754.001 820.8L753.601 821L753.401 822.4L754.101 825.4V826.9L753.601 827.7L752.901 828.2L752.501 828.8L752.701 829.7L753.201 830.2L754.701 830.9L755.201 831.4L755.901 832.9L756.101 834.1L755.701 834.9L754.501 835.3L753.901 835.2L752.601 834.8H751.901L751.401 835.1L750.701 836.1L750.201 836.4L749.101 836.5L746.601 836.1L745.401 836.2L745.701 834.4L745.101 833.6L743.901 833.7L742.401 834.1L741.001 834.7L740.601 834.5L735.801 829.7L734.601 828.8L733.201 828.5L731.501 828.7L730.201 829.3L728.001 830.7L726.801 830.9L725.401 831.4L724.701 832.9L723.801 834L721.601 833.6L719.701 832.7L718.701 832.8L716.101 834.8L713.801 836.1L711.301 837L708.501 837.5L703.901 837.8L702.601 838.2L701.301 838.4L699.701 838.1H698.201L696.801 838.8L695.501 839.2L694.501 838.2L694.001 855.5L693.801 862.9L693.301 881.1L693.201 886.2L693.601 888.6L694.401 890L697.001 893L700.401 896.1L701.901 898.3L702.601 898.9L703.901 899.4L706.601 900L707.701 900.8L708.101 901.4L708.801 902.9L709.301 903.6L709.901 904L711.501 904.8L712.201 905.3L714.201 907.4L715.201 908.3L720.601 910.3L721.701 910.9L722.901 911.9L723.701 913.1L724.301 914.4L724.601 915.9V917.9L724.701 918.6L725.101 919.3L725.901 920.3L726.101 921.2L725.701 922.7L723.601 925.9L723.101 927.1L723.801 928.7L726.401 931.6L726.901 932.5L726.701 934.2L726.901 934.9L727.501 935.9L727.901 936.3L728.901 936.9L729.301 937.6V938.4L729.201 939L729.101 939.7L729.601 940.6L730.101 941.1L731.601 941.7L732.201 942.1L733.701 944.3L734.101 944.6L735.101 944.8L735.601 945.6L735.501 945.8L735.801 948.3L735.701 949.1L735.201 950.5L735.301 951.3L737.801 955.3L738.501 957.4L737.101 961.2" stroke="#3B373A" stroke-width="0.9" stroke-miterlimit="10"/>
<path d="M850.4 606.4L851.6 605.9L852.1 606.1L852.6 607.7L852.9 611.9L853.2 613.4L855.9 618L856.5 619.7L856.9 623L857.3 624.6L858.5 626L859.8 626.7H861.1L862.3 626.5L863.7 626.4L866.2 627.6L868.1 630.1L872.7 641.9L873.6 643.3L874.6 643.9L877.1 644.9L879.3 647.3L879 650.1L877.3 652.9L873.2 658L872.4 658.6L871.7 658.8L870.2 659.1L869.4 659.5L865.3 663.4L843.4 683.6L842.3 685.5V690.1L843.3 689.3L843.8 688.4L844.5 687.6L845.8 687.2L847.3 687.3L848 687.2L849.3 686.6L849.9 686.8L850.6 687.6L853.4 689L855.1 689.3L856.4 688.8L857.7 688.5L858.9 689.5L859.9 691L860.3 692.2L860.7 695.3L861.1 696.7L861.9 697.4H864.9L866.2 697.8L867.2 698.7L867.5 699.3L867.9 700.5L868.2 701L868.8 701.5L870.2 702.2L870.7 703.2L871.8 704.5L872.1 704.8L872.9 705L873.4 705.6L873.7 706.4L874.2 707.1L874.8 707.5L876.3 708.4L876.9 708.9L877.2 709.6L877.5 710.5L877.9 711.3L878.5 711.7L879.3 711.9L880 712.4L881.3 713.7L881.9 714.1L884.3 714.8L886.5 716.2L887.1 716.7L887.3 717.4V718.7L887.7 719.3L888.1 720.6L887.2 722L885.9 723.2L885.2 724.1V725.3L886.3 727.9L886.7 730L887.9 732.9L888.4 733.8L889.4 734.3L890.7 734.7L891.7 735.2L892.1 736.3L892.3 740L892.1 741.1L891.8 741.6L890.7 743L890.9 743.9L891.4 744.6L891.9 745.1L892.4 746L893.6 746.9L893.9 747.4L894.1 748.1L895.3 750.4L901.1 765.7L901.3 767.2V770.2L901.5 771.5L902.2 773L903.6 775.3L904.3 776.8L904.5 778.3L904.1 781L904.3 782L905 782.7L905.7 783.3L906.4 784L907.1 785.3L907.6 787L907.7 788.6L906.5 791.1L906.8 792.7L908.2 795.6L905.6 796.1L895.4 798.9L894 798.7L893.5 797L893.2 793.5L894.9 774.1L894.2 769.9L891.9 762.8L889.3 757.5L882 747.8L880.4 744.9L878.3 739.7L876.9 737.2L875.2 735.5L874.1 735L871.3 734L870.2 733.9L869.6 734.2L868.5 735.4L867.9 735.7L865.5 736L864.4 736.8L862.5 738.3L859.9 739.6L854.8 745L846.7 755.9L844.6 757.8L842 759.3L839.8 760.1L837.4 760.7H835L832.7 760.1L830.5 758.2L828.6 755.6L827.3 752.7L825.8 748.4L825.1 747.1L824.1 746.2L822.6 745.6L821.2 745.3L820.7 745.1L820.1 744.5L820 744V742.7L819.7 742.3L819.1 742.7L815.1 752.8L813.8 754.7L814.2 755L815.9 755.2L816.5 756L816.4 757.5L816.5 758.7L819 758.8L819.6 759.2L819.8 759.7L819.7 760.6L819.9 761L820.5 761.4L821.6 762L765.4 762.1H741.7L738.9 761.7L733.8 759.6L729 758.5L726.4 758.7L721.8 760.8L719 761.1L717.6 760.8H716.4L715.2 761.1L712.3 762.6L711.1 762.9H708.8L706.4 761.6" stroke="#3B373A" stroke-width="0.9" stroke-miterlimit="10"/>
<path d="M165.101 711.8L165.001 711.1L164.101 708.8C164.101 708.7 164.101 708.7 164.101 708.6L163.801 707.3V707.2L163.701 706.4C163.701 706.1 163.601 705.9 163.401 705.7L161.701 703.9C161.601 703.8 161.601 703.8 161.501 703.7L155.501 699.8L156.201 699.3H157.801H159.101H159.901C160.101 699.3 160.301 699.2 160.501 699.1L162.201 698C162.401 697.9 162.601 697.8 162.901 697.8H163.501C163.701 697.8 164.001 697.9 164.101 698.1L164.701 698.6C164.801 698.7 164.901 698.8 164.901 698.9L165.501 700L166.001 700.7L166.701 700.9L168.001 700.5L167.401 701.6V701.7L166.901 702.8C166.801 703 166.801 703.1 166.801 703.3V703.5C166.801 703.9 167.101 704.3 167.501 704.4L168.201 704.7L169.001 704.8L170.401 705.1L171.301 705.2L173.001 704.8L173.801 704.7L175.101 704.5C175.301 704.5 175.501 704.4 175.601 704.3L176.401 703.6C176.501 703.5 176.601 703.4 176.701 703.2L177.101 702.4C177.201 702.2 177.201 702.1 177.201 701.9V701L176.801 700.2L176.101 699.1C176.001 699 176.001 699 175.901 698.9L175.201 698.3C175.101 698.2 174.901 698.1 174.801 698.1L174.001 697.9V697.5H175.401V696.9L174.501 696.8L174.101 696.3V695.7L174.401 695.1L173.701 694.9L173.501 694.5L173.601 693.9L174.001 693.3L173.101 693V691.9L174.301 692.4L175.201 692L175.901 691.4C176.001 691.3 176.101 691.3 176.201 691.2L176.901 690.9C177.001 690.9 177.001 690.9 177.101 690.8L178.001 690.6L178.401 690.3L178.101 690L177.601 689.9L176.501 690.4H175.901L174.901 689.7L175.101 689.3L175.901 688.8L176.301 688.3L177.701 688.7C177.801 688.7 177.801 688.7 177.901 688.7L179.101 688.8L180.001 688.6L180.701 689.6L180.901 690H181.401L180.901 689C180.801 688.7 180.501 688.5 180.201 688.4L178.301 687.9L179.001 686.9C179.101 686.8 179.201 686.7 179.301 686.6L180.101 686.1L181.101 686L182.001 685.8L182.801 684.9L184.001 685.4L184.301 685.8L184.601 686.3L184.701 685.6C184.801 685.1 184.501 684.6 184.001 684.4L183.701 684.3C183.501 684.2 183.401 684.2 183.201 684.2L181.601 684.4C181.501 684.4 181.301 684.5 181.201 684.5L180.001 685.2L179.701 684.4C179.601 684.3 179.601 684.1 179.601 684V683C179.601 682.9 179.601 682.8 179.601 682.7L179.901 681.8C180.001 681.6 180.101 681.4 180.301 681.2L180.901 680.7L181.801 680.8L182.401 681.4L183.001 682L183.701 682.6L184.401 682.8L185.001 681.8C185.101 681.7 185.101 681.6 185.201 681.5L186.001 680.8V679.8L185.801 679.4L184.801 679.2L184.601 678.9V678.5L184.901 678.3L185.301 677.4L185.801 677.2L185.501 676.5L185.101 676.3L184.001 676.2L183.701 675.6L183.501 676.3L183.701 676.5L183.001 677L182.201 677.1L181.601 676.9L181.401 676.1L179.701 677.6L179.101 678L179.201 677.1L181.601 674.2C181.601 674.2 181.601 674.2 181.601 674.1L183.101 672L183.201 671.9L184.101 671C184.101 671 184.101 671 184.201 670.9L189.101 666.7C189.201 666.6 189.301 666.5 189.301 666.4L191.301 662.7L192.301 662.4L193.401 662.8L193.601 662.2L193.901 660.9L194.901 661L195.301 660.6L195.001 659.9L193.901 659.4L193.001 659.7C192.901 659.7 192.801 659.8 192.701 659.8L191.301 660L191.101 659.4L191.801 658.4C191.801 658.3 191.901 658.3 192.001 658.2L193.401 656.9L193.501 656.8L194.401 656.2C194.501 656.2 194.501 656.1 194.601 656.1L195.401 655.8C195.801 655.7 196.201 655.7 196.501 656L198.801 658.2L199.101 658.4L200.001 660C200.001 660.1 200.101 660.1 200.101 660.2L200.701 660.9L200.901 661.6L201.101 662.5L201.301 663M173.401 704.3L171.201 704.4L169.201 703.9L168.001 703.3L168.501 702.9L168.001 702.4L169.401 701V700.2L168.501 699.7L167.301 699.6L166.301 698.9L165.801 697.5L166.101 696.3L167.001 696.4L168.001 697L170.501 700.3L171.501 701.1L173.801 702.4L174.901 703.3L173.401 704.3ZM169.101 695.2L169.901 695.5L170.101 695L170.801 694.5L172.601 696.4L172.901 696.9L173.201 698.2L173.501 698.7L176.101 700.7L177.001 701.7L176.701 702.7L175.501 702.8L173.801 701.9L170.801 699.6L168.901 697.2L168.501 696.4L168.301 695.6L168.201 694.8L168.401 694.5L169.101 695.2ZM147.501 680.4L146.501 680.7L145.701 680.4V679.7L146.701 679.6L147.101 678.6L147.401 677.3L147.901 676.6L148.901 675.8H149.401L149.301 676.8L149.201 678.6L148.201 679.8L147.501 680.4Z" stroke="#3B373A" stroke-width="0.9" stroke-miterlimit="10"/>
<path d="M220.701 854L219.801 853.8L218.701 854C218.601 854 218.601 854 218.501 854L215.301 855.1C215.201 855.1 215.101 855.2 215.001 855.2L213.901 855.3C213.801 855.3 213.701 855.3 213.501 855.3L212.701 855.1C212.601 855.1 212.601 855.1 212.501 855L211.601 854.6C211.601 854.6 211.601 854.6 211.501 854.6L210.401 854.2C210.301 854.2 210.301 854.2 210.201 854.1L203.201 852.7C203.101 852.7 203.101 852.7 203.001 852.6L200.901 851.8C200.801 851.8 200.701 851.7 200.601 851.6L199.201 850.5C199.101 850.4 198.901 850.2 198.901 850.1L198.401 848.8C198.401 848.7 198.301 848.6 198.301 848.5L198.001 846.7V846.6L197.401 844.6C197.401 844.5 197.401 844.5 197.401 844.4L196.901 837.5C196.901 837.4 196.901 837.4 196.901 837.3L196.201 834.7C196.101 834.3 195.801 834 195.401 833.9L193.501 833.4C193.401 833.4 193.201 833.4 193.101 833.4L191.301 833.6C191.101 833.6 191.001 833.6 190.801 833.5L188.701 832.7C188.601 832.7 188.501 832.6 188.401 832.6L184.301 829.7C184.201 829.6 184.101 829.5 184.001 829.4L182.901 827.7C182.801 827.6 182.701 827.4 182.701 827.2L182.301 823.1C182.301 822.8 182.101 822.5 181.901 822.4L180.601 821.3C180.401 821.1 180.201 821.1 179.901 821.1H178.901C178.801 821.1 178.601 821.1 178.501 821.2L173.301 823.1H173.201L172.101 823.4C172.001 823.4 171.901 823.4 171.901 823.4H170.801C170.701 823.4 170.601 823.4 170.501 823.4L169.301 823.1H169.201L167.601 822.5L166.901 821.9L166.701 821.2L166.801 820.5L166.501 819.8L165.901 819.1L165.201 819.2H164.501L160.101 817.6C160.001 817.6 159.901 817.5 159.801 817.5L155.401 817.3C155.201 817.3 155.101 817.3 155.001 817.2L152.501 815.9C152.401 815.9 152.401 815.8 152.301 815.8L143.801 809.3C143.701 809.3 143.701 809.2 143.601 809.2L142.401 808.6C142.301 808.6 142.301 808.5 142.201 808.5L138.401 807.5C138.301 807.5 138.301 807.5 138.201 807.4L137.101 806.9C137.001 806.9 137.001 806.8 136.901 806.8L135.501 805.7C135.401 805.7 135.401 805.6 135.301 805.6L129.101 798.7C129.101 798.6 129.001 798.6 128.901 798.6L128.001 797.9C127.901 797.8 127.701 797.7 127.601 797.7L124.001 796.9L123.001 797L122.101 797.6L121.801 796.7C121.701 796.6 121.701 796.4 121.601 796.3L120.401 795L120.101 794.3L120.001 793L119.401 792.8L118.401 793.1H118.301L117.401 793.3L116.001 792.9C115.901 792.9 115.801 792.8 115.701 792.7L114.701 791.9C114.601 791.8 114.501 791.8 114.501 791.7L113.701 790.5C113.701 790.4 113.601 790.4 113.601 790.3L113.001 789C113.001 789 113.001 788.9 112.901 788.9L112.301 788C112.201 787.9 112.201 787.8 112.101 787.7L110.401 786.3C110.301 786.2 110.201 786.2 110.201 786.1L109.001 784.4C108.901 784.3 108.801 784.2 108.701 784.1L105.001 781.5L106.001 781L105.701 780.1C105.601 779.9 105.501 779.8 105.401 779.6L104.901 779.1L104.801 779L104.001 778.4L103.301 777.7V776.6V776.5L103.401 775.4V775.3V774.3C103.401 774.1 103.401 774 103.301 773.8L102.901 773L102.501 772.8L100.301 773.8L99.8008 773.2L99.1008 772.6L98.2008 772.4L97.5008 771.9L95.5008 770.8H95.4008L93.7008 769.7C93.6008 769.7 93.6008 769.6 93.5008 769.6L92.7008 768.8C92.6008 768.7 92.6008 768.7 92.5008 768.6L92.2008 768.1C92.0008 767.8 92.0008 767.5 92.1008 767.3L92.3008 766.6L92.9008 765.9L93.8008 765.5C93.9008 765.5 93.9008 765.5 94.0008 765.4L94.9008 765.2C95.1008 765.2 95.3008 765.1 95.4008 764.9L96.2008 764.1C96.3008 764 96.4008 763.9 96.4008 763.8L97.4008 761.9C97.4008 761.8 97.5008 761.8 97.5008 761.8L98.3008 760.7L98.4008 760.6L100.001 759C100.001 759 100.001 759 100.001 758.9L101.401 757.3L102.201 756.4L102.301 756.3L103.401 755.4C103.501 755.3 103.701 755.2 103.801 755.2L106.501 754.6C106.601 754.6 106.801 754.6 106.901 754.6L108.201 754.8C108.301 754.8 108.401 754.8 108.401 754.8L109.201 754.7C109.301 754.7 109.401 754.7 109.501 754.7L110.701 754.9C110.801 754.9 110.901 754.9 110.901 755L112.001 755.5C112.101 755.5 112.101 755.6 112.201 755.6L113.401 755.9H113.501L115.701 756.1H115.801L117.201 756.4H117.301L119.101 756.6L119.401 756.8L119.901 757.4L120.601 757.8L121.201 758L121.901 757.9L121.801 757L122.101 755.7C122.101 755.5 122.201 755.4 122.301 755.2L122.901 754.6C123.001 754.5 123.101 754.3 123.101 754.2L123.401 753.2C123.501 752.9 123.401 752.6 123.301 752.4L122.901 751.7L123.001 750.7L123.501 749.7V749L123.101 748.9L122.601 749.7L121.801 750.2H120.401L120.001 749.3V748.2C120.001 748.1 120.001 748 120.001 748L120.301 746.8V746.7L120.401 745.8V745.7L120.701 744L120.801 743.2L120.501 742.6L120.001 742L119.301 741.4L118.601 741.1L117.901 741.5L117.401 742.3C117.301 742.4 117.301 742.5 117.301 742.6L116.701 744.6L115.901 744.9L115.401 744.4L115.301 743L115.101 741.3C115.101 741.2 115.101 741.1 115.001 741.1L114.301 739C114.301 738.9 114.301 738.9 114.301 738.8L113.701 735.7C113.701 735.7 113.701 735.7 113.701 735.6L113.101 733.4C113.101 733.3 113.101 733.3 113.101 733.2L112.901 730.7C112.901 730.5 112.901 730.3 113.001 730.2L114.501 727C114.501 727 114.501 726.9 114.601 726.9L114.901 725.8C115.001 725.5 115.201 725.2 115.501 725.1L116.401 724.7C116.701 724.6 116.901 724.3 117.001 724L117.401 722.7C117.401 722.6 117.501 722.6 117.501 722.5L119.401 719C119.401 719 119.401 719 119.401 718.9L120.801 716.1C120.801 716.1 120.801 716.1 120.801 716L121.501 714.2C121.501 714.1 121.601 714 121.701 713.9L122.601 712.9L122.201 713.9C122.201 714 122.101 714.1 122.101 714.2L122.001 715.1C122.001 715.2 122.001 715.3 122.001 715.4L122.201 716.3C122.201 716.3 122.201 716.3 122.201 716.4L122.501 717.6L123.501 714.6C123.501 714.5 123.501 714.5 123.501 714.4L124.001 711.5C124.001 711.4 124.101 711.2 124.101 711.1L124.801 709.9L125.301 710C125.701 710.1 126.101 710 126.401 709.6L127.701 708L129.401 706L129.501 705.9L130.901 703.9C131.001 703.7 131.201 703.5 131.501 703.5L132.401 703.2C132.601 703.1 132.701 703.1 132.801 703L135.101 700.7C135.201 700.7 135.201 700.6 135.301 700.6L136.901 699.6L137.701 699.7L139.101 703C139.101 703.1 139.201 703.1 139.201 703.2L140.201 704.8L141.201 706.3C141.401 706.6 141.701 706.8 142.001 706.8L143.101 706.9L142.301 704.7C142.301 704.6 142.301 704.6 142.301 704.5L142.001 702.8C142.001 702.7 142.001 702.7 142.001 702.6V700.9C142.001 700.7 142.101 700.5 142.201 700.3L142.601 699.7C142.701 699.6 142.701 699.5 142.801 699.5L143.701 698.7L144.301 699.8C144.401 699.9 144.401 700 144.401 700.1L144.801 701.7C144.801 701.9 144.801 702.1 144.801 702.2L144.601 703C144.501 703.3 144.601 703.6 144.701 703.9L145.101 704.5C145.101 704.6 145.201 704.6 145.201 704.7L146.201 707.1C146.201 707.2 146.301 707.3 146.401 707.4L147.301 708.4L147.901 708.8L150.201 710C150.301 710 150.301 710.1 150.401 710.1L151.401 710.4L152.001 710.3L153.001 709.7C153.101 709.6 153.201 709.6 153.301 709.6L154.501 709.2L154.601 708.3L154.501 707.8L154.801 707.1V704.9C154.801 704.8 154.801 704.7 154.801 704.6L154.301 702.8C154.301 702.7 154.201 702.6 154.201 702.6L153.701 701.7C153.701 701.6 153.601 701.6 153.601 701.5L153.201 700.4L153.801 699.8L155.301 700.1L161.301 704C161.401 704 161.401 704.1 161.501 704.2L163.201 706C163.401 706.2 163.501 706.4 163.501 706.7L163.601 707.5V707.6L163.901 708.9C163.901 709 163.901 709 163.901 709.1L164.801 711.4L164.901 712.1M146.701 697L147.901 697.6L149.301 697.1L150.701 697.9L151.101 699.1L151.601 699.8L151.801 700.6L151.601 701L151.701 701.4L153.301 703.3L153.901 704.7L154.001 706.9L153.301 708.8L151.401 709.3L149.901 708.4L148.101 706.5L146.601 704.5L145.901 703.1L146.101 702.1L147.101 701.4L147.401 700.7L146.901 700L145.901 698.1L146.001 697.4L146.701 697Z" stroke="#3B373A" stroke-width="0.9" stroke-miterlimit="10"/>
<path d="M323.001 195.5L322.601 194.4L322.501 193L323.101 192.3L324.101 191.9L324.401 191.5L325.101 190L325.801 188.9L326.001 188.1L326.101 187.4V186L326.401 185.3L324.301 186.5L321.501 188.4L318.801 191.2L316.101 192.8L314.801 192.6L315.801 190.3L317.701 189.2L318.701 188.6L319.701 187.2L320.101 186.3L320.701 185.5L320.901 184.8L320.601 183.9L320.801 183.4H322.301L321.901 182.8L321.801 182.3L321.901 181.7L322.301 181.1L322.901 182.5L324.201 182.2L326.701 180.6L327.401 180V178.4L327.001 176.6L326.901 175H326.401L325.901 175.4L325.501 174.9L325.101 173.1H324.601L324.201 174.2L323.801 174.4L323.201 174.5L323.501 174L323.801 172.7L324.101 172.2L324.501 171.8L325.301 171.4L325.801 171L327.701 168.8L328.301 168.4L328.001 169.6L327.301 171L327.001 172.2L328.101 172.7L329.001 172.1L329.401 170.6V168.9L329.201 167.5L329.001 167.2L327.801 167L327.901 166.6L328.301 165.6L328.201 164.1L328.001 163.5L327.101 163.3L326.901 163L327.201 162.4L327.801 161.7L328.501 161.4L329.301 161.3L330.201 161L330.901 160.6L331.501 160V159.6L331.001 158.9L331.101 158.6L332.601 157.9H333.101L333.601 157.8L333.801 157L334.001 156.9L334.601 156.3L335.001 155.6V155.3L335.401 155.2L337.001 154.4L341.501 153.3L342.101 152.7L342.801 151.6L343.301 151L343.701 150.9L344.801 151.4L344.901 151.8L344.401 152.5L344.901 153V153.3L344.501 154L344.301 154.9M326.101 177.8L325.401 178.6L324.001 178.3L323.401 178.6L323.201 179.5L323.001 180H322.401L322.201 179.1L322.101 178L322.301 177.2L322.701 176.6L323.401 175.9L323.901 176.3L324.701 176.6L326.001 177L326.101 177.8ZM346.701 149.6V149.2L345.601 150.1L345.301 150.6L344.001 149.9L343.601 148.6L344.101 147.4L346.501 146.6L346.701 146.3L347.001 146.8L347.201 148.5L346.701 149.6Z" stroke="#3B373A" stroke-width="0.9" stroke-miterlimit="10"/>
<path d="M211.1 593.3L210.6 592.2L211.8 590.7L206.1 590.6L205.1 590.4L204.1 589.3L201.7 585.1L203.6 582.4L204 581.4L204.5 578.5L205.2 577.5L206.7 576.8V576.3L205.3 576.8L205.5 574.8L206.2 571.7L206.3 562.4L206.7 563.5L207.6 564.3L207.9 563.6L208.1 562.5L207.9 561.5L206.3 560.7L206 559.8V558.7L205.8 557.8L207.3 558L208.5 558.8L209.3 559.9L209.9 561.1H210.3L209.6 558.9L206.7 555.4L206.3 553.2L204.8 553.7L204.3 550.9L203.5 542.3L203 541.1L202.6 531L203 528.7L203.6 526.5L204.4 524.5L203.5 524L203.4 522.5L203.5 521L203.2 520.3L202.6 519.8L202.3 518.4L202.1 515.7L201.1 516.1L200.5 515.8L200.2 515V513.9H200.7L201.2 514.3H201.6L202.1 513.9L201.4 513.4L201.1 512.8L200.6 510.7L200.7 510.2L200.2 509.7L198.8 509.4L198.4 509.2L197.7 508.5L197.2 507.8L196.6 507.2L195.7 506.9H194.7L194 507.1L193.5 507.6L193.4 508.3L192.6 507.6H191.8L191.1 507.9H190.6L190.1 507.1L190.3 506.5L190.9 506.1L191.7 506L192.3 505.3L193.9 502L194.7 500.9L195.3 500.7L196.8 500.6L197.5 500.4L198.3 499.9L198.8 499.3L199.5 498.8L200.5 498.6L201.7 499L202.7 499.6L203.8 500L205.3 499.5L205.7 499.1L206 498.2L206.3 497.4L206.2 496.6L206.6 496.2L207.4 496.3L207.9 495.3L208.6 494.8L209.5 494.2L210.1 493.7L210.6 493.1L210.9 492.3L211.3 490.7L211.1 487.9L210.1 485.5L207.4 481.1L206.7 480.5L206.6 479L204 471.7H203.5V473.6H203L202 470.6L200.2 468L196.1 462.9L195.4 461.7L195.1 460.7L195.2 458L195.7 455.6V454.5L195.2 453.6L195.7 453.2L198.2 455.3L199.8 457.3L200.5 456.8L201.1 455.7L202.1 453.2L202.3 451.9L202.4 450.7L202.3 449.7L202.1 449L200.9 447.3L201 446.7L202.6 446.2L202.8 446.6L203.5 447.1L203.7 446.1L203.5 445.1L202.9 444.4L202.1 443.9V443.4L203.1 441.7L203.4 440.6L203.5 439.2L204.3 438.2L204.6 436.7L204.5 435.2L204 434.1L201.7 432.3L200.5 430.9L199.8 430.4V429.7L200.2 428.3V427.4L200 426.6L199.5 426.2L198.9 426L196.6 424.7L195 425.1L193.7 426.1L192.9 427.2L193.4 428.1L192.8 428.2L191.9 428.6H191.5V426.9L191.6 426.1L191.9 425.3L189.2 419.3L187.8 417.5L185.9 415.6L184.9 414.9L183.2 414.5L182.6 414L181.8 414.2L181.6 414.6L181.5 415.7L180.9 416L180.6 411.3L181.2 409.4L183 408.6L183.8 407.4L183 404.8L180.9 400.8H180.4L180.9 401.6L181.4 402.1V402.6H180.9L179.7 401L174.8 395.7L174.1 395.3L172.9 395.2L172.2 394.8L171.8 393.9L171.3 393.1L170.3 392.8L170.8 392.4L169.9 392.1L169.1 391.5L168 390L167.5 389.9L172.6 373.5L174.2 373.9L175.6 373.6L176.9 372.9L177.9 371.6L178.5 369.9L178.3 368.4L176.8 365.4L176.2 363.3L175.9 360.4L176.3 358L177.9 357.1L178.6 357.4L182 360.3L182.6 361.1L182.3 361.8L182.5 362.3L183.3 362.5L185.1 365.1L185.6 366L186.5 369.4L187.2 370.1L188.7 370L190.4 368.6L193.5 365.5L202.9 359.6L204.9 357.8L204.4 356.6L203.1 355.3L202.2 353.3L202.4 352.5L204.4 349.9L206.1 346.1L207.5 344.6L209.6 343.5L211.8 342.8L213.8 342.4H216.3L216.7 342.1L216.2 341L215.5 340.3L214.8 339.8L214.2 339.2L213.7 338.2L213.6 336.6L212.2 331.3L210.2 327.5L207.8 324L206.4 320.9L205.9 320.2L205 319.9L204.1 319.8L203.3 319.5L202.5 318.3L201.9 315.9L201.4 311.2L200.4 308.9L199.3 307L198.6 306.4L197.5 306L195.4 306.2L194.8 305.8V304.2L195.4 302.2L198 299.4L198.8 297.7V296.5L198.4 295.8L198.5 295.3L199.6 294.6L200.7 294.3L201.8 294.2L202.5 293.7L202.6 292.5L203 291.9L204.1 292.5L204.7 295L205.5 296.3L206.4 297.1L207 297.9L207.6 298.9L208.1 300.2L208.7 302.8L209.2 304.3L213.6 307.3L217 308.6L218 309.4L218.7 310.2L224.1 319.2L225.6 320.3L226.5 320.5H228.4L228.7 320.6V320.8L229.5 324.1L230 325.2L230.3 326.5M208.5 594.3L208.6 595.5L208.1 596.2L207.2 596.6L206.4 596.3L205.6 595.5L205 595.3L204.1 595.4L201.2 597.8L198.4 598.2L198.6 597.1L199 596.4L199.8 595.7L200.7 595.5L201.6 595.6L202.3 595.5L202.6 594.6L202.8 594.1L203.5 593.6L204.3 593.4L205.1 593.7L206.2 595L206.6 595.1L207.6 594.8L208.5 594.3ZM204 590.7L205.3 591.3L206.7 591.2L208.1 590.9L209.4 591.1L208.2 593.1L207.3 593.9L206.5 593.5L205.3 592L203.6 592.7L202 592.9H198.5L197.2 592.6L196.3 592.5L195.3 592.7L194.7 593.2L193.8 594.3L191.3 595.1L191 595.3L190.8 594.7V593.8L191.1 592.9L191.7 592.5L192.6 592.2L194.1 590.9L194.9 590.7L195.8 590.8L197.5 591.1H198.4L198.1 590.6L197.1 589.9L196.6 589.3H198.9L197.3 588.9L197.5 588.2L198.6 587.5L199.8 586.9L198.9 586.5H198.4L198.9 585.5L200.7 586.5L201.7 587.3L202.5 588.3L203 589.4L204 590.7Z" stroke="#3B373A" stroke-width="0.9" stroke-miterlimit="10"/>
<path d="M315.2 241.6L316.9 242L317.8 241.4L320.4 239.1L322 236L323.3 231.6L323.4 227.6L322.6 225.8L321.8 224.8L321.3 224.3L320.6 223H319.5L318.6 222.3L317.9 221.9H316.5L315.7 222.3L314.9 222.9L314.7 222.2L318.5 218.4L319.1 216.6L320.2 212.8V211.2L320.6 209.8L321.5 207.9L322.2 205.6L322.5 204.2V202.8L323.4 198.9L323.5 196.7L323 195.5M306 215.6L306.5 215.7V216.1H305.3L304.6 216.2L304.4 215.8L304.9 215.4L306 215.6Z" stroke="#3B373A" stroke-width="0.9" stroke-miterlimit="10"/>
</svg>
