<svg width="367" height="500" viewBox="0 0 367 500" fill="none" xmlns="http://www.w3.org/2000/svg">
<path d="M34.0817 292.761L36.6315 294.435L37.5093 295.356L37.5511 295.9L37.6765 296.527L38.0527 297.531L38.0945 297.824L38.0527 298.117L37.9691 298.494L37.6347 299.456L37.5511 299.958L37.5929 300.209L38.0945 301.381L40.1009 304.31L40.1845 304.561L40.2681 305.481L40.3935 305.732L40.6443 305.983L41.4803 306.36L42.3581 306.569L43.3613 306.904L43.9883 306.987H44.5317L45.8275 306.485L46.7053 306.527L47.5413 306.192L48.0011 305.816L48.2101 305.732L48.9625 305.565L49.7567 305.481L50.2583 305.314L50.5927 304.979L50.8853 304.854L51.3869 304.77H51.7213H52.1393L52.4319 304.812L52.9753 304.979L55.4415 306.151L55.7759 306.611L55.6923 307.448L55.2743 308.117L54.9817 308.996L55.1071 309.247L55.3579 309.498L57.0299 310.753L57.4061 310.962L57.7405 311.088L58.2421 311.381L58.6601 312.092L58.3257 312.887L58.2421 313.054L57.7823 313.18L57.6151 313.305L57.5315 313.724L57.2807 314.184L56.2775 315.063L55.9013 316.151L55.8177 316.402V316.778L55.9431 317.238L55.9013 317.657L55.8177 318.075L55.1071 319.749L56.7791 320.251L57.1553 320.167L57.4061 320.335L57.6987 320.46L59.1199 319.958H59.5797L59.9977 319.791H60.2067L60.6665 320.167L61.1681 320.335H61.4607L61.7533 320.293L61.9623 320.167L62.2549 319.916L62.8401 319.414L63.0073 319.331L63.8851 319.079L65.0137 318.912L65.9333 318.661L66.3931 318.87L67.2709 320.251L68.0651 321.464L68.3577 321.674L68.6085 322.05L68.6503 322.259L68.6085 322.552L68.4831 323.138L68.3577 323.431L68.0233 323.808L67.7307 324.142L66.3931 324.979L66.2677 325.481L66.3931 327.866L66.6857 329.247L66.7275 330.335L65.8915 331.046L65.3899 331.088L65.1809 330.837L65.0137 330.921L64.9719 331.255L65.0555 331.841L65.0137 332.176L64.8883 332.427L64.5121 332.803L64.2195 333.013L62.2131 333.766L61.7533 333.891L61.7115 334.31L61.6697 335.523L61.8369 337.071L61.8787 337.238H62.1295L62.2967 337.322L62.8819 337.741L63.2163 337.866L63.3417 337.992L63.4253 338.243V338.494L63.1745 339.247L61.7115 342.385L60.9173 343.766L60.3739 344.142L59.8723 344.854L58.1167 347.029L57.5733 347.657L58.6601 348.787L59.9559 349.833L60.4993 350.167L60.9173 350.377L61.0845 350.544L61.2099 350.837L61.1681 351.297L61.0845 351.464L60.8755 351.632L60.7501 351.799V352.092L60.7919 352.385L61.3771 353.724L61.4607 354.1L61.5443 354.979L61.7951 355.565L61.8787 356.109L61.7533 356.485L61.4607 356.695L61.3353 357.322L60.9591 357.239L60.4575 357.322L59.0363 357.824L58.4511 357.866L57.9913 357.741L57.5733 357.531L57.0717 357.322L54.0621 356.736L53.1007 356.36L52.3483 355.774L52.0557 355.063L51.9303 354.226L51.6795 353.305L51.4705 350.335L51.0943 348.954L49.9657 348.661L49.0043 348.787L47.9593 348.41L46.1201 347.113L45.5349 346.234L45.3259 344.226L44.4899 343.556H43.8211L41.5639 344.393L41.0205 344.519H40.4353L39.8501 344.351L39.1813 344.1L38.8887 343.849L38.8051 343.556L38.8469 343.264L38.7215 342.971L38.4707 342.678L38.1781 342.72H37.8855L35.9627 342.008L33.9563 341.925L32.7859 341.339L29.1493 338.577L28.5641 338.285L26.8921 337.824L26.3487 337.573L25.6799 337.071L23.0465 334.1L22.5449 333.724L20.9565 333.347L20.5385 333.389L20.1623 333.64L19.9951 333.18L19.4099 332.552L19.2845 332.259L19.2427 331.715L18.9919 331.632L18.5739 331.757L18.1559 331.841L17.4871 331.632L16.9437 331.213L16.5257 330.628L16.2331 330L15.9405 329.54L15.1045 328.87L14.5193 328.033L12.8891 326.904L13.3071 326.695L13.1399 326.192L12.8055 325.9L12.4293 325.649L12.1367 325.356V324.895L12.1785 324.393V323.849L11.9695 323.431L11.8023 323.347L10.8827 323.766L10.6737 323.515L10.3811 323.264L10.0049 323.18L9.71228 322.971L8.87628 322.51L8.12388 322.008L7.70588 321.59L7.45508 321.172L7.58048 320.711L7.83128 320.418L8.24928 320.251L8.79268 320.126L9.29428 319.665L9.75408 318.787L10.1303 318.285L10.8409 317.573L11.4261 316.904L11.8023 316.485L12.3875 316.025L13.6833 315.732L14.3521 315.816L14.8119 315.774L15.4389 315.9L15.9823 316.151L16.5675 316.276L17.5289 316.36L18.1559 316.485L18.9501 316.569L19.0755 316.653L19.2845 316.904L19.5771 317.071L19.8279 317.155L20.1205 317.113L20.0787 316.736L20.2459 316.067L20.6221 315.649L20.8311 314.937L20.5803 314.477L20.6221 314.059L20.8311 313.64V313.389L20.6639 313.347L20.4549 313.682L20.1205 313.891H19.5353L19.3681 313.515V313.013L19.4935 312.427L19.5353 312.008L19.6607 311.297L19.7025 310.962L19.5771 310.711L19.3681 310.46L19.0755 310.209L18.7829 310.084L18.4903 310.251L18.2395 310.628L17.9887 311.548L17.6543 311.674L17.4453 311.464L17.4035 310.879L17.3199 310.126L16.9855 309.163L16.7347 307.824L16.4839 306.862L16.4003 305.649L17.0691 304.184L17.2781 303.473L18.0305 303.138L18.2813 302.343L19.1173 300.837L19.7025 299.623L20.0369 298.787L20.4549 298.326L20.2877 298.787L20.2459 299.289L20.3295 299.749L20.4549 300.251L20.8729 298.954L21.0819 297.615L21.4163 297.029L21.9179 297.155L22.6285 296.276L23.3391 295.439L24.0079 294.435L24.6349 294.226L25.7217 293.18L26.4323 292.72L26.7667 292.761L27.3519 294.184L27.8117 294.895L28.3551 295.69L29.0239 295.732L28.6895 294.77L28.5641 293.975V293.096L28.8149 292.678L29.2329 292.301L29.5255 292.803L29.7345 293.64L29.5673 294.268L29.8599 294.728L30.3197 295.858L30.7377 296.318L30.9885 296.485L31.9917 296.987L32.4515 297.113L32.7023 297.071L33.1621 296.778L33.7473 296.611L33.7891 296.234L33.7473 296.025L33.8727 295.732V294.728L33.6219 293.849L33.3711 293.389L33.2039 292.887L33.4547 292.636L34.0817 292.761ZM30.4033 291.632L30.9049 291.883L31.4901 291.674L32.0753 292.008L32.2425 292.51L32.4515 292.803L32.5351 293.138L32.4515 293.305L32.4933 293.473L33.1621 294.268L33.4129 294.854L33.4547 295.774L33.1621 296.569L32.3679 296.778L31.7409 296.402L30.9885 295.607L30.3615 294.77L30.0689 294.184L30.1525 293.766L30.5705 293.473L30.6959 293.18L30.4869 292.887L30.0689 292.092L30.1107 291.799L30.4033 291.632Z" fill="#BF522A"/>
<path d="M276.773 194.644L277.526 194.477L278.863 193.849L279.616 193.682L280.201 193.975L281.371 195.356L281.998 195.858L283.629 194.937L285.259 193.305L285.886 192.971L286.68 192.176L287.223 191.966L287.892 191.925L288.477 192.05L289.522 192.552L290.024 192.385L290.651 192.552L291.32 192.761L291.947 192.887L293.744 192.803L294.329 192.887L296.127 193.473L296.754 193.515L297.339 193.64L298.509 194.184L299.178 194.268L299.554 194.1L300.307 193.473L300.599 193.305L302.355 193.222L304.403 192.594L305.03 192.552L305.615 192.594L307.455 193.096H308.458L311.676 191.966L312.889 191.799L316.483 192.134L317.654 191.966L318.615 191.632L319.159 191.464L319.368 191.255L319.535 190.962L319.577 190.669L319.702 190.335L320.036 190.251H320.413L320.747 190.209L321.04 189.958L321.541 189.414L321.876 189.247H322.126L322.628 189.372L324.593 189.54L328.982 190.586L329.818 191.088L330.57 191.841L331.322 192.427L332.493 192.51L331.74 193.054L331.448 193.389L331.322 193.808V194.895L332.367 196.527L333.078 197.029L333.287 197.615L333.371 198.243L333.245 198.745L332.911 199.038L331.908 199.456L331.49 199.707L330.152 201.172L329.901 201.59L328.229 203.18L327.56 204.226L327.101 205.356L326.892 206.569V207.866L327.184 209.498L327.268 210.084L327.769 210.628L327.853 210.753L327.769 211.088L327.602 211.297L327.268 211.715L326.933 212.72L326.766 212.887L326.432 212.971L326.139 213.18L325.638 213.766L325.387 213.933L324.551 214.226L324.425 214.351L324.133 214.686L323.84 214.854L323.422 214.812L322.377 215.69L321.667 216.82L321.416 217.992L321.667 219.079L321.959 219.54L322.126 219.958L322.21 220.46L322.252 221.13L322.21 221.381L321.959 222.05L321.876 222.385V222.72L321.959 223.264L322.043 223.556L322.21 223.808L322.753 224.393L322.837 224.602L322.795 224.895L322.503 225.23L322.461 225.397L322.503 226.653L322.461 227.197L322.085 228.284L321.917 229.372L321.876 230L321.917 230.209L322.252 230.879V231.255L322.126 231.59L322.252 231.841L322.085 232.385L322.001 233.64L321.792 234.1L321.499 234.561L321.374 235.146L321.29 236.736L321.081 237.489L321.123 238.368L321.081 238.661L320.956 238.87L320.747 238.996L320.58 239.205L320.538 239.582L320.622 239.916L320.831 240.167L321.29 240.586V240.377L321.834 240.753L322.043 241.13L322.252 242.092L322.377 242.218L322.712 242.343L322.837 242.51V242.761L322.67 243.138L322.628 243.347L322.753 243.724L323.13 244.351L323.213 244.728L323.13 245.063L322.628 245.983L322.503 247.029L322.67 247.992L322.921 248.87L323.046 249.749L323.255 250.293L323.798 250.711L324.342 251.255L324.551 252.176L324.885 252.51L325.052 253.013L324.969 253.515" stroke="black" stroke-width="0.9" stroke-miterlimit="10"/>
<path d="M205.672 169.623L207.971 170.167L208.89 170.251L209.35 170.167L209.643 170L209.935 169.749L210.27 169.54H210.604L210.897 169.582L211.064 169.498L210.98 168.996L211.816 168.954L212.485 168.828L213.112 168.787L213.948 168.996L213.823 168.536L213.99 168.326L214.366 168.285L215.328 168.326L215.537 168.494L215.704 168.703L216.038 168.954H216.205L216.414 168.912L216.791 168.661L217.041 168.619L217.167 168.745L217.334 168.996L217.877 169.038L217.919 168.954L218.421 168.828L219.048 168.996L219.591 169.456L219.926 169.331L220.678 168.996L221.096 168.912L221.556 168.954L222.475 169.205L222.935 169.247L224.106 169.038L224.524 169.08L224.774 169.247L224.858 169.958L224.983 170.251L225.36 170.418H226.739L227.073 170.586L227.282 170.795L227.575 170.837L228.077 170.711L228.411 170.46L228.662 170.167L228.913 170L230.919 170.251L232.424 170.042L233.845 169.54L235.015 168.661L235.308 168.285L235.433 167.992L235.684 167.866L236.269 167.824L237.314 167.49L238.568 167.364L240.24 166.987L241.076 166.946L241.244 167.071L241.662 167.406L241.912 167.49L242.874 167.699H243.334L244.128 167.448L244.588 167.364L244.797 167.531L246.218 169.372L246.469 169.54L246.928 169.623L247.221 169.665L247.89 169.54L248.141 169.582L248.266 169.665L248.517 170L248.935 170.126L251.861 171.548L252.739 171.59L254.327 170.669L255.372 170.418L256.417 170.377L257.211 170.586L258.131 171.381L267.118 182.803L269.25 185.523L276.481 194.644H276.774" stroke="black" stroke-width="0.9" stroke-miterlimit="10"/>
<path d="M124.914 53.682L124.664 53.3054L124.58 52.8452L124.747 52.636L125.458 53.0125L127.59 53.7238L130.307 54.8535L132.397 55.5648L133.776 55.8996L135.197 56.1088L137.12 56.2761L139.001 56.1925L140.088 56.0251L139.67 56.3598L138.29 56.6109L135.573 56.5272L134.946 56.4017H134.654L134.319 56.5272L134.236 56.7782L134.278 57.113V57.4058L134.027 57.5314L133.901 57.9079L134.236 58.7448L134.905 60.0837L134.487 59.8326L134.069 59.4142L133.692 59.1213L133.4 59.4561L133.191 59.205H132.522L132.104 58.9958L131.895 59.1213L131.686 59.5816L131.519 60.1674L131.435 60.5439V61.4226L131.477 61.841L131.644 62.0502L132.02 61.9247L132.188 61.4644L132.313 60.9623L132.606 60.6276V60.9623L132.689 61.1297L132.898 61.2552H133.191L133.149 61.5481L133.191 62.636L133.609 62.8033H134.069L134.403 62.5523L134.528 62.0502L134.236 62.2176L133.985 62.1757L133.818 61.8828L133.734 61.4644L133.86 61.0879L134.069 60.795L134.236 60.5858L134.152 60.251L134.696 60.3766L135.072 60.7531L135.239 61.2971L135.364 62.6778L135.615 63.0125L136.033 63.0962L137.162 63.0125L137.371 62.9707L137.622 62.8452L138.165 62.3012L138.29 62.2176L138.332 61.9665L139.168 60.4602V60.251V59.4561L139.461 58.8284L139.628 58.4519L140.004 57.9916L140.088 57.8243L140.297 56.7364L140.589 56.1088L142.345 53.5146L142.429 53.3054L142.345 52.9707L141.927 52.4686L141.843 52.2176V51.8828L142.011 51.4226L142.052 51.1297L141.969 50.8368L141.718 50.3347L141.634 50.0418L141.718 49.9582L141.969 49.7071L142.011 49.3724L141.843 49.205L141.885 48.8703L142.052 48.6192L142.429 48.0753L142.805 47.6987V47.4059L143.181 46.6946H143.641L143.975 46.7782L144.184 46.6109L144.142 45.9414H144.351L144.393 46.1088L144.56 46.5272L144.853 46.1088L144.895 45.9414L145.104 46.1088H145.313V45.523L145.564 45.7741L145.773 46.1925L146.107 46.318L146.358 46.1925L146.609 45.6904L146.859 45.9414H147.068L147.11 45.7322L147.236 45.6485L147.612 45.523L148.322 45.6067L148.866 45.8159L149.326 46.1506L149.827 46.6109L150.036 46.6946L151.332 46.9874L152.252 47.5314L153.338 47.8661L156.724 48.1171L159.901 47.8661H160.654" stroke="black" stroke-width="0.9" stroke-miterlimit="10"/>
<path d="M112.918 64.8117L113.002 64.4351L113.169 64.1422L113.336 64.1841L113.503 63.9749L114.13 63.3891L113.921 62.9707V62.5941L114.13 62.1339L114.047 61.4226L113.921 61.2134L114.297 60.7531L114.59 60.6276H114.924L115.259 60.5439L115.551 60.4184L117.349 59.2468L118.394 58.954L118.979 58.6192L119.355 58.2008L119.313 57.7406L119.439 57.4477L119.564 56.7782L119.69 56.5272L119.982 56.3598L120.358 56.1924L120.86 56.1506L121.403 55.9414L121.78 55.523L122.448 54.9791L122.49 54.477H123.284L124.246 54.3933L124.706 54.0167L124.664 53.3054L124.915 53.682" stroke="black" stroke-width="0.9" stroke-miterlimit="10"/>
<path d="M160.654 47.8661H165.252L168.345 47.364L168.596 47.1967L168.805 46.9456L169.641 46.318L170.352 45.8996L170.728 45.523L171.063 44.8536L171.188 44.7699L171.522 44.6443L171.773 44.4351L172.149 43.8494L172.484 43.5983L173.403 43.1799L174.992 41.6318L178.419 39.8326L183.31 35.7741L183.812 35.4812L184.857 35.1046L186.57 34.7699L186.988 34.5607L187.866 33.9331L188.41 34.1004L189.037 33.8075L189.622 33.3473L190.291 33.1381L191.963 33.0962L192.464 32.9289L192.924 32.6778L193.635 32.092L194.554 31.841L195.766 30.9623L197.271 30.3766L197.606 29.9163L198.107 29.3724L198.233 29.0795L198.274 28.8285L198.651 27.8243L199.654 26.2343L199.946 25.272L200.573 24.4351L200.741 24.0586L200.782 23.5146L200.699 21.8828L200.573 21.2971L200.406 21.0879L200.155 20.8368L199.905 20.7113H199.779L199.863 20.3347L200.114 20.0837L200.741 19.7071L201.618 20.0418L204.503 19.4979L205.506 19.749L205.38 20.2929L204.21 21.5063L204.628 21.7155L205.088 22.4686L205.548 22.6778L206.384 22.3013L206.551 22.2176L206.634 21.841L206.802 21.5063L207.052 21.2552L207.303 21.0879H207.679L208.056 21.1297L208.348 21.0879L208.474 20.795L208.348 20.5021L208.181 20.251L208.056 20L208.265 19.7071L207.972 19.4979L207.679 19.0795L207.303 18.954L206.927 18.9121L206.593 18.954L206.3 19.1213L206.133 19.3305H205.966L205.757 18.954L207.052 18.0335L208.097 17.1548L208.265 16.6527L208.39 16.569L208.892 16.6109L209.017 16.569L209.435 16.2343L209.686 16.1925L210.02 16.3598L209.519 16.6109L209.142 16.9456L209.059 17.364L209.435 17.7824L209.769 17.908L210.187 17.7824V17.4059L210.271 17.364H210.773L211.316 17.0711L211.65 16.8201L211.818 16.4854L211.943 15.9833L211.609 15.8159L211.734 15.5649L211.901 15.3975L212.152 15.272L212.695 15.1883L212.528 15.6904L212.695 15.9414L212.946 16.1506L213.072 16.569H213.239L213.448 16.2762L213.49 16.0669L213.155 15.8996L213.322 15.7741L213.991 15.3975L214.367 15.272L214.744 15.1046L215.036 14.7699L214.66 14.8117L213.949 15.1883L213.657 15.0628L213.699 14.8536L213.949 14.6025L214.242 14.3933H213.908L213.615 14.477L213.406 14.6025L213.239 14.7699L213.364 14.1423L213.113 14.2259L212.361 14.8954L212.11 15.1883L211.943 14.9791L212.236 14.477L212.654 14.0167L213.155 13.7239L213.74 13.5983L214.326 13.682L215.162 14.1004L215.789 14.2259H217.795L218.38 14.3096L218.965 14.6025L219.843 15.1883L220.219 15.5649L220.387 15.6904L220.763 15.7741H221.766L222.017 15.8577L222.602 16.318L223.145 16.5272L224.441 16.7782L225.403 17.2385L225.946 17.6569L226.489 18.5356L226.573 19.0795L228.287 22.0084L228.496 22.7615L229.541 24.3515L229.708 24.9372L229.541 25.5649L229.206 26.1925L228.872 26.6109L228.12 27.1967L226.155 28.2845L225.612 28.9121L225.194 29.1213L224.734 29.2887L224.358 29.3724L224.232 29.6234L223.647 31.1715L223.522 31.3808H222.686L222.184 31.6736L221.223 32.4686L220.094 32.9707L216.081 34.0167L205.464 36.8201L204.921 37.1548L204.419 37.8661L199.11 47.8243L197.438 51.0042L197.146 51.3389L196.644 51.5063L195.599 51.2134L195.056 51.1715L194.512 51.2552L192.924 51.841L191.712 51.9247L191.127 52.0084L190.625 52.3431L190.5 52.5941L190.458 53.1381L190.374 53.431L190.165 53.7238L189.664 54.3096L189.413 54.6025L188.451 57.0293L187.95 57.7406L187.406 58.2427L186.194 59.0795L185.442 59.9582L184.815 61.2134L183.435 65.1046L182.683 66.3598L180.969 68.3682L180.426 69.8745L180.05 70.4184L179.59 70.8787L179.13 71.4644L178.963 72.0502L178.921 72.1757" stroke="black" stroke-width="0.9" stroke-miterlimit="10"/>
<path d="M178.919 72.1757V72.5941V73.1381L178.376 79.4142L176.913 84.4351L176.871 85.5649L176.662 86.6527L176.62 87.2385L176.829 87.9916L177.08 88.5356L177.163 89.0377L176.954 89.7908L176.077 91.59L174.53 94.0167L173.819 95.9414L173.527 96.4854L173.067 96.9456L171.938 97.6569L171.52 98.0335L171.019 99.2887L168.762 102.636L167.8 105.063L167.424 105.649L166.922 106.151L165.919 106.862L165.585 107.406L165.543 108.033L165.919 108.243H166.337" stroke="black" stroke-width="0.9" stroke-miterlimit="10"/>
<path d="M166.338 108.243L169.431 108.159L170.601 108.033L171.605 107.531L172.566 106.611L173.068 106.276L173.778 106.067L174.405 105.69L175.617 104.561L176.286 104.519L176.453 104.77L176.788 105.774L176.662 106.151L176.788 106.402L177.122 106.778L177.206 107.49L177.164 108.661L177.289 109.289L177.791 110L178.334 110.125L178.92 109.916L179.881 109.289L180.09 109.163L180.424 109.038L180.759 109.079L181.01 109.163H181.219L181.428 108.912L181.971 109.414L182.431 109.707L182.556 110.042L182.18 110.711L182.64 111.255L184.395 117.992L185.649 122.887L186.235 123.849L188.952 126.82L191.836 129.916L192.17 130.209L192.714 130.377L192.964 130.544L193.299 130.879L193.591 131.297L193.759 131.799L193.842 132.259L193.8 132.72L193.55 133.64L193.508 134.1L193.675 134.77L194.595 136.527L195.222 138.452L195.263 139.54L194.804 140.209H194.344L193.717 140.084L193.215 140.167L192.923 140.669L192.797 141.213L192.546 141.674L192.212 142.05L191.794 142.427L191.209 142.678L190.958 142.845L190.833 143.18L190.958 143.431L191.543 144.142L191.752 144.435L191.878 144.937L191.961 146.151L191.878 146.653L191.334 148.41L191.083 151.381L191.167 151.966L191.543 153.054L191.627 153.598L191.501 154.226L191.292 154.812L191.083 155.397L191.209 156.067L191.961 157.322L193.006 158.075L194.218 158.494L195.598 158.745L197.897 158.703L198.858 158.954L199.82 160.209L199.987 160.335L200.029 160.46L199.778 161.632L199.736 161.883L199.82 162.72L200.029 163.515L200.321 164.351L201.868 167.322L202.369 167.908L202.704 168.117L203.456 168.452L203.833 168.703L204.501 169.247L204.836 169.414L204.418 169.079L205.128 169.331L205.212 169.414L206.257 169.749" stroke="black" stroke-width="0.9" stroke-miterlimit="10"/>
<path d="M79.9387 116.778L79.7715 116.653L80.2313 116.234V116.067L80.0223 115.732L80.2731 115.523L81.9869 115.063L82.6557 114.686L83.1573 114.644L83.4081 114.435L83.5335 114.184L83.8261 113.808L84.8293 113.054L85.0801 112.762L84.8293 111.757L85.1219 110.921L85.6653 110.293L86.5849 109.456L86.8775 109.121L87.0447 108.703L87.3373 106.318L87.5463 105.9H87.7135L88.5077 105.565L88.9675 105.398L89.0929 105.063V104.561L89.1347 104.059L89.2601 103.808L89.5527 103.473L89.8453 103.264L90.0961 103.138L91.2247 102.803L92.1025 102.511L92.8967 102.05L93.5655 101.506L93.6491 100.795L93.8581 100.377L94.4851 100.46L94.7777 100.753L95.6973 100.711L96.7005 100.502L97.3693 100.251L97.7873 100.46L97.9545 100.67V101.046L97.5365 100.879L97.1185 100.795L96.7423 100.921L96.4079 101.213L96.7841 101.423L96.9513 101.381L97.2021 101.213L97.5365 101.548V101.799L98.4143 101.213L98.9577 100.921L99.5847 100.837L100.212 100.921L100.755 101.088" stroke="black" stroke-width="0.9" stroke-miterlimit="10"/>
<path d="M65.2665 136.611L65.1411 136.067L64.9321 135.607L64.5977 134.226V134.142L64.8485 134.184L65.0157 133.807L65.2247 133.849L65.3919 134.1V134.602H65.2247L65.0157 134.393V135.105L65.2247 135.607L65.5591 135.816L65.9771 135.565V136.151L66.3533 135.732L66.4787 136.025L66.2279 136.485L66.1861 136.946L65.6009 136.736L65.7681 137.741L66.4787 138.159L67.1057 138.075L67.1475 137.531H68.903L68.5686 138.075L68.485 138.368V138.703H68.694L69.0702 138.494V138.703L68.1089 139.079V139.247L68.5269 139.372L68.7359 139.623L68.694 139.874L68.4015 139.623L67.9416 139.665L68.1506 139.916L68.694 140.293L68.903 140.628L68.1925 140.293L67.4401 140.084L66.7713 140.167L66.3533 140.628V140.753L66.5623 140.795L66.0189 142.427L66.7713 143.431L68.2761 143.891L70.0316 143.933L70.366 143.891L70.7004 143.766L70.993 143.598L71.202 143.347L71.2856 143.096L71.202 142.469L71.2438 142.259L71.4946 141.966L71.5782 141.715L71.7454 139.958L71.7036 139.163L71.3692 138.494L71.2438 138.87L71.3692 139.247H71.202L71.0348 138.787L70.9512 138.159V137.49L71.2438 136.527L71.1602 135.941L70.784 134.979L70.6168 134.059V130.084L70.4914 129.582L70.1152 129.33L69.739 129.163L69.5718 128.787L69.4464 128.284L69.2792 127.782L68.694 127.197L67.8162 126.569L66.8131 126.109L65.9771 125.983V126.234L65.6427 125.9L66.1025 125.188L66.8131 124.351L67.1475 123.766L69.948 122.887L70.6168 122.845L73.3756 122.05L73.71 121.841L73.8772 121.632L73.919 120.962L74.0444 120.711L74.2952 120.544V120.377H74.0862V120.167L74.6296 120.084L76.5106 119.372L76.8868 119.079L78.1408 117.824L79.6038 116.82L79.771 116.653" stroke="black" stroke-width="0.9" stroke-miterlimit="10"/>
<path d="M53.9366 278.159L53.7276 278.034L53.3514 277.448L53.2678 277.239L53.1842 276.862L53.1006 276.569L52.808 276.234L52.39 275.523L52.2646 275.439L51.0942 274.31L50.7598 273.975L50.8016 273.431L51.0106 273.096L51.3032 272.762L51.6376 272.594L51.9302 272.636L52.39 272.511L52.808 272.469L52.9334 272.385L53.4768 271.883L54.1038 273.054L54.5218 273.515L55.2324 273.808L55.0652 273.473L54.1456 272.343L53.8948 271.967L53.853 271.465L53.9784 271.046L54.271 270.711L54.3546 270.921L54.5636 271.213L54.7308 271.339L54.8144 271.213L54.7726 271.004L54.4382 270.544L54.6054 269.958L54.8562 269.456L55.0234 268.996L54.8144 268.41H55.3996L55.2324 268.661V269.08L55.2742 269.289H55.4832L55.734 269.121H56.2356L56.6118 269.456L56.6954 269.289L56.6118 269.08L56.4028 268.912L56.152 268.787L56.5282 268.578L56.0266 268.41H55.7758L55.9012 268.117L55.9848 268.075L56.361 268.201L56.4446 267.783L56.0684 267.657L55.4832 267.699L55.0234 267.824L55.1488 267.364L55.4414 267.322L55.9012 267.406L56.2356 267.364L55.7758 267.071L56.152 266.862L56.2774 266.736L56.152 266.444L56.7372 266.318L57.3224 266.276V266.444L57.197 266.695H57.4478L58.2838 266.444L57.8658 266.36L57.7822 266.151L57.9076 265.9L58.4092 265.314L58.5764 264.937L58.869 264.142L59.1616 264.352L59.4124 264.435L59.6214 264.31L59.914 264.059L60.2484 263.933L60.6664 263.808L60.8336 263.682L60.4156 263.557L60.0394 263.598L59.6632 263.766L59.3706 263.724L59.2452 263.306L59.914 263.138L60.3738 262.971L60.6246 262.594L60.123 262.678L58.9526 262.971L58.5764 262.803L58.451 262.343L58.5346 261.841L58.7018 261.423L59.4542 262.008L59.8722 262.134L60.4992 262.176L60.5828 262.008L60.3738 261.883L60.123 261.841L59.5796 261.799L59.4124 261.674L59.2452 261.423L59.705 261.465L60.123 261.423L60.4156 261.213L60.6246 260.879L60.1648 260.586L59.914 260.251L59.9558 259.875L60.4156 259.498L60.75 259.791L60.7918 260V260.293L61.2098 259.875L61.0426 259.289L60.959 258.787L62.2548 258.368L62.5892 257.866L62.8818 257.364L63.2998 256.988V256.82L61.5442 257.197V256.988L61.9622 256.82H61.2516L60.9172 256.778L60.6246 256.611L60.7082 257.824L59.078 258.787L57.0716 259.121L55.9848 258.536L56.0266 258.285L56.4446 258.075L56.5282 257.866L56.4446 257.741L55.943 257.49L55.6086 257.28L55.3996 257.197V256.904V256.653L55.6086 256.234L55.734 255.481L55.9012 255.23L56.152 255.063L56.57 255.021L56.8626 255.105V255.314L56.5282 255.649L57.8658 255.398L58.2838 255.272V255.063L57.3224 255.272L57.4478 254.895L57.6568 254.603L58.4092 253.682L58.869 252.72H58.4092L58.2838 252.343L57.8658 252.469L57.5314 252.218L57.197 251.841L56.7372 251.548L56.8626 251.841L56.9044 252.134L56.8626 252.469L56.7372 252.72L56.4864 252.594L56.2774 252.552L56.0266 252.594L55.7758 252.72V252.929L55.8594 253.096L55.7758 253.347L55.6504 253.222L55.2324 253.138L55.316 253.64L55.2324 254.435L55.0234 255.147L54.7308 255.439L54.6472 255.607L54.5218 256.402L54.4382 256.611L53.9784 256.653L53.644 256.402L53.5186 256.025L53.6858 255.649L52.2228 254.477L52.0556 254.268L51.9302 253.808L52.0974 253.389L52.6826 253.347L52.39 252.929L52.2646 252.72L52.0556 251.967L51.9302 251.088V250.293L53.1006 250.126L54.3128 249.121L54.689 249.08L54.9398 249.163L55.2742 249.498L55.6086 249.624L55.9848 249.456L56.1938 249.163L56.152 248.661L56.2774 248.577L56.7372 248.159L57.0298 247.783L57.2388 248.243" stroke="black" stroke-width="0.9" stroke-miterlimit="10"/>
<path d="M136.786 383.138L136.702 382.552L136.577 382.427H136.201L136.034 382.343L135.783 381.967C135.783 381.967 135.783 381.925 135.741 381.925L135.448 381.548C135.448 381.506 135.407 381.506 135.407 381.506L135.114 381.255C135.114 381.255 135.072 381.213 135.03 381.213L133.358 380.209C133.358 380.209 133.358 380.209 133.317 380.209L132.606 379.707C132.564 379.707 132.564 379.665 132.522 379.665L131.436 378.494C131.394 378.452 131.394 378.452 131.394 378.41L130.641 377.113L130.391 376.904L130.056 376.946L129.513 377.28H129.178L128.468 376.611L128.301 376.527L127.632 376.485C127.59 376.485 127.548 376.485 127.506 376.485L127.005 376.318L126.712 376.276L126.211 376.109L126.378 375.816C126.42 375.774 126.461 375.69 126.503 375.69L126.921 375.398C127.088 375.272 127.172 375.021 127.047 374.812L126.252 373.264C126.252 373.222 126.211 373.222 126.211 373.222L125.834 372.72C125.793 372.678 125.793 372.678 125.751 372.636L125.207 372.176L124.873 372.259L124.162 373.347L123.87 373.598L123.577 373.64L123.159 373.473H123.117L122.24 373.264C122.198 373.264 122.198 373.264 122.156 373.222L121.613 373.013C121.571 373.013 121.529 372.971 121.487 372.929L121.195 372.72C121.153 372.72 121.153 372.678 121.153 372.678L120.066 371.464L119.899 371.297L119.648 371.255L119.146 371.213L118.896 371.13L118.603 370.879C118.561 370.837 118.561 370.837 118.519 370.795L117.516 369.331C117.474 369.289 117.474 369.247 117.433 369.247L116.973 368.912C116.931 368.912 116.931 368.87 116.889 368.87L116.388 368.619C116.346 368.619 116.346 368.577 116.304 368.577L115.134 368.285C115.092 368.285 115.092 368.285 115.05 368.285L114.59 368.243C114.548 368.243 114.507 368.243 114.465 368.243L114.13 368.201L113.838 368.494L113.754 369.038L113.629 369.372L113.294 369.749L113.253 369.791L112.918 370.042C112.876 370.084 112.835 370.084 112.793 370.126L112.458 370.251L111.957 369.958C111.957 369.958 111.915 369.958 111.915 369.916L110.201 369.289C110.159 369.289 110.159 369.289 110.118 369.289L108.696 369.038C108.613 369.038 108.571 368.996 108.487 368.954L108.111 368.661C108.069 368.619 108.028 368.619 107.986 368.577L107.442 368.41C107.401 368.41 107.359 368.368 107.359 368.368L105.812 367.406C105.77 367.406 105.77 367.364 105.729 367.364L104.475 366.234C104.433 366.193 104.391 366.151 104.307 366.151L103.889 366.025L103.597 365.858L103.221 365.481L102.886 365.146C102.844 365.105 102.761 365.063 102.677 365.021L102.301 364.895C102.259 364.895 102.176 364.895 102.134 364.895L101.758 364.937C101.716 364.937 101.716 364.937 101.674 364.937L100.545 365.23C100.504 365.23 100.504 365.23 100.462 365.23L99.8767 365.272H99.8349L99.2915 365.23C99.2497 365.23 99.2497 365.23 99.2079 365.23L98.7481 365.105C98.7063 365.105 98.7063 365.105 98.6645 365.063L98.2465 364.895C98.2465 364.895 98.2465 364.895 98.2047 364.895L97.4523 364.519L97.4105 364.477L96.4073 363.724C96.3655 363.682 96.3237 363.64 96.2819 363.557L96.1983 363.347C96.1565 363.264 96.1147 363.222 96.0311 363.18L94.4427 362.218C94.4009 362.218 94.4009 362.176 94.3591 362.176L93.7321 361.632C93.6903 361.59 93.6903 361.59 93.6485 361.548L93.4395 361.213C93.3977 361.172 93.3977 361.13 93.3977 361.088L93.2723 360.628L93.1051 360.293L91.2241 357.908L91.1405 357.573L91.0151 357.364C90.9315 357.197 90.7643 357.113 90.5553 357.155L90.2627 357.197C90.2209 357.197 90.2209 357.197 90.1791 357.239L89.5939 357.448C89.5521 357.448 89.5103 357.49 89.4267 357.49H89.0087L88.8415 357.28L88.6743 356.527L88.5071 356.234L88.2981 356.151L87.9637 356.109L87.4203 356.151H87.3785L86.7515 356.109C86.7097 356.109 86.6679 356.109 86.6679 356.109L86.1245 355.941C86.1245 355.941 86.1245 355.941 86.0827 355.941L85.5811 355.774C85.5393 355.774 85.4975 355.732 85.4557 355.732L84.9959 355.439C84.9541 355.439 84.9541 355.398 84.9123 355.356L84.2017 354.561L83.9091 354.435L83.6165 354.561L82.8223 355.105C82.7805 355.146 82.7805 355.146 82.7387 355.188L82.1535 355.9C82.1117 355.983 82.0281 356.025 81.9445 356.025L81.5683 356.151C81.5265 356.151 81.4847 356.151 81.4847 356.151L80.8995 356.193L80.6487 356.151V356.318L80.6069 358.368C80.6069 358.41 80.6069 358.41 80.6069 358.452L80.8577 360C80.8995 360.167 80.8159 360.335 80.6487 360.46L80.4815 360.586C80.4397 360.628 80.3561 360.669 80.2725 360.669L77.6809 360.962C77.6391 360.962 77.5555 361.004 77.5137 361.004L76.9285 361.297C76.8867 361.297 76.8449 361.339 76.8031 361.339L76.4687 361.423L76.0089 361.255C75.9671 361.255 75.9253 361.213 75.8835 361.172L75.1729 360.544L74.8385 360.251C74.7967 360.209 74.7549 360.167 74.6713 360.167L74.3787 360.084C74.3369 360.084 74.3369 360.084 74.2951 360.084L72.9993 359.958C72.9575 359.958 72.9575 359.958 72.9157 359.958L71.9961 359.665L71.6617 359.791L71.7035 360.921H71.2855L70.2823 360.502L69.9479 360.46L67.9833 360.753L67.6071 360.711C67.5653 360.711 67.5653 360.711 67.5235 360.711L67.2309 360.628C67.1891 360.628 67.1473 360.586 67.1055 360.544L66.7293 360.293L66.6875 360.251L66.1023 359.665L65.8097 359.456L65.3499 359.289L65.0155 359.247L63.9705 359.205C63.9287 359.205 63.8869 359.205 63.8451 359.163L63.1763 358.912C63.0927 358.87 63.0509 358.828 62.9673 358.787L62.0477 357.782C61.9641 357.699 61.8805 357.657 61.7969 357.657" stroke="black" stroke-width="0.9" stroke-miterlimit="10"/>
<path d="M277.108 402.176L277.191 403.431L276.732 406.025V407.322L276.23 409.247V409.791L275.812 411.213L273.053 426.569L271.381 435.649L269.751 444.728L268.079 453.808L267.243 458.326L263.983 476.527L262.311 485.607L261.809 486.611L261.057 485.021L260.555 484.31L259.97 483.64L259.134 482.971L256.291 481.506L255.539 480.753L255.246 479.833L255.079 478.829L254.745 477.824L254.076 476.862L253.156 475.9L252.111 475.105L251.025 474.728L250.23 474.812L249.603 475.188L248.517 476.193L247.806 476.527H247.054L245.549 476.151L245.256 475.941L241.411 473.933L240.198 473.808L247.764 461.967L252.153 455.063L254.369 451.632L258.799 444.728L259.426 443.724L258.925 443.389L258.716 443.054L258.507 442.636L258.172 441.381L257.88 441.172L257.295 441.548L257.127 441.841L257.002 442.134L256.835 442.343L256.626 442.427L256.333 442.259L256.291 442.008V441.757L256.208 441.464L255.664 441.004L255.205 441.172L254.703 441.381L254.201 441.172L253.867 440.67L253.491 439.498L253.156 438.954L252.529 438.661L251.986 438.829L251.401 439.163L250.732 439.372L250.398 439.08L250.272 438.829V438.577L250.398 438.452L250.857 438.243L251.025 438.159L251.15 437.573L250.774 437.28L250.189 437.239H249.603L249.269 437.322L248.6 437.573L248.308 437.615L248.015 437.448L247.848 437.197L247.722 436.904L247.555 436.611L247.221 436.318L246.719 436.067L246.218 435.9L245.716 435.858L245.298 435.649L244.964 435.23L244.587 434.979L244.086 435.314L244.002 435.565V436.151L243.793 436.276H242.623L242.456 436.109L242.414 435.774V435.398L242.372 435.105L242.205 434.77L241.285 434.059L241.202 434.017V433.18L241.118 432.971L240.993 432.803L240.24 432.72L239.739 432.594L238.694 432.218L237.732 431.59L236.269 430.042L235.433 429.498L234.848 429.791L234.137 429.624L232.925 429.121H232.131L231.838 429.498L231.922 430.167L232.173 430.879L231.922 431.004L231.588 431.046L231.211 430.962L230.501 430.544H230.166L229.372 430.67L228.745 430.962L228.202 432.301L227.408 432.72L226.864 433.138L226.572 433.18L226.279 433.096L225.945 432.845L225.61 432.762L225.192 432.929L224.607 433.264L224.105 433.389L223.896 432.971L221.848 433.975L220.929 434.184L220.594 433.557L220.72 433.347L221.096 433.013L221.179 432.762L221.054 432.469L220.427 431.632L219.925 430.753L219.633 430.67L219.257 431.046L218.964 432.134L218.755 432.427L218.295 432.218L218.086 431.799V430.628L217.919 430.084L217.626 429.833L215.996 429.498L215.411 429.205L214.909 428.787L214.324 428.452L213.697 428.368L212.736 428.829L212.192 428.912L211.942 428.452L211.983 427.448L211.774 427.28L211.147 427.573L209.517 428.619H209.266L209.099 428.912L208.096 430.502L206.758 431.506L206.549 431.716L206.424 432.343L206.09 432.72L205.588 432.845L203.832 432.594H202.913L202.119 432.887L201.366 433.557L200.112 435.021L199.694 435.147L197.897 434.728H197.604L196.852 434.895L196.726 435.021L196.768 435.565L196.685 435.774L196.434 435.858L195.765 435.9L194.636 436.234L194.009 436.276L193.508 436.151L193.006 435.9L192.63 435.565L192.505 435.188L192.254 434.979L189.37 434.519L188.826 434.352L187.572 433.347L187.071 433.054L186.527 432.971L186.193 433.431L185.44 434.979L185.106 435.314L184.646 435.481L184.479 435.398L184.354 434.644L184.27 434.393L184.019 433.933L183.685 434.1L183.476 434.31L183.309 434.561L183.267 434.895L182.514 434.393L182.055 434.226L181.344 434.561L180.55 434.854L180.215 435.188L179.797 435.314L178.627 435.565H178.376L178.125 435.356L177.875 434.895L177.415 433.598L176.997 433.264L176.913 433.096L174.949 432.008L174.907 432.301L174.572 432.971L174.196 433.306L174.029 432.678L173.778 432.427L172.566 432.134L172.106 431.841L172.023 431.632L171.897 430.753L171.772 430.628L171.396 430.335L171.27 430L170.978 429.582L170.936 429.331L170.978 429.038L171.061 428.829L171.312 428.536L172.357 427.615L172.608 426.988L173.444 425.649L173.068 425.272L172.817 424.686L172.691 424.059L172.482 423.515L171.981 422.803L171.814 422.427L171.688 421.967L171.73 421.59L172.023 420.879L172.106 420.628L171.939 420.167L171.27 419.372L171.103 418.996L171.312 417.95L171.145 417.615L170.643 417.364L170.351 417.155L169.598 416.318H169.306L169.222 417.071L169.013 417.155L168.093 416.904L167.675 416.988L167.216 417.406L167.007 417.741L166.714 417.699L166.045 417.071L165.669 416.862L165.335 416.778L165.042 416.82L164.624 416.778H164.206L163.997 416.193L162.2 415.105L161.614 414.393L161.698 413.306L162.032 412.385L162.241 411.925L162.952 411.548V411.004L162.659 409.833L162.618 409.163L162.576 408.87L162.367 408.577L161.782 408.159L161.447 407.657L160.402 407.155L160.151 406.736L160.611 406.193L160.737 405.9L160.277 405.69L159.984 405.272L159.942 405.105L159.901 404.477L159.775 404.059L159.65 404.017L159.315 404.059H159.19L159.106 403.598L158.897 403.18L158.814 402.845L158.647 402.594L158.02 402.427L157.476 402.008L157.142 401.925L156.515 401.799L155.971 401.506L155.595 401.088L155.344 400.586L154.926 400.753L154.467 401.465L154.007 401.716H153.672L153.213 401.632L152.46 401.339L152.084 401.088L151.791 400.795L151.29 400L150.872 398.87L150.705 398.619L150.245 398.452L149.367 398.661L148.991 398.452L148.949 398.201L149.2 397.741L149.158 397.49L148.949 397.28L148.782 397.364L148.615 397.657L148.28 397.824L148.155 397.95L147.988 397.992L147.653 397.866L147.402 397.657L147.277 397.406L146.608 395.481L146.316 395.147L145.856 395.983L145.103 396.025L143.39 395.356L141.718 395.063L140.965 394.644L140.338 393.808L139.92 392.552L139.669 392.176L138.959 391.716L138.792 391.423L138.959 391.13L139.335 391.046L139.795 391.13H140.171L140.338 390.795L140.171 390.46L139.878 390.167L139.711 389.833L139.962 389.372L139.711 389.289H139.251L138.959 389.205L138.792 389.08L137.83 387.992L137.621 387.615L137.663 387.071L137.788 386.82L138.123 386.527L138.206 386.318L136.869 383.389L136.785 383.138" stroke="black" stroke-width="0.9" stroke-miterlimit="10"/>
<path d="M264.275 318.661L265.279 319.205H264.861L265.07 320.293V322.259L264.986 337.448L265.613 337.531L266.783 336.778L267.494 336.569H267.87L268.246 336.653L268.455 336.82L268.497 337.406L268.832 337.49L271.507 337.071L272.176 337.113L273.388 337.531L273.68 337.573H274.6L275.478 337.448H275.77L276.021 337.573L276.356 337.95L276.899 338.285L277.192 338.326L278.529 337.364L278.947 337.239L279.407 337.322L280.828 338.075L281.204 338.326L281.706 338.954L282.166 339.247L282.375 339.456L282.458 339.707L282.5 340.042L282.584 340.335L283.169 340.711L283.044 341.757L283.462 342.176L284.13 342.427L284.465 342.636L284.632 342.845V343.222L284.423 343.389L284.172 343.431L284.005 343.515L283.921 344.1L284.214 345.356V345.983L284.005 346.318L283.712 346.527L283.545 346.778L283.629 347.155L283.838 347.364L284.465 347.657L284.674 347.866L284.966 348.494L285.05 348.996L284.883 349.331L284.381 349.498L284.13 349.456L283.587 349.289H283.294L283.085 349.414L282.793 349.833L282.584 349.958L282.124 350L281.079 349.833L280.577 349.875L280.703 349.121L280.452 348.787L279.95 348.829L279.323 348.996L278.738 349.247L278.571 349.163L276.565 347.155L276.063 346.778L275.478 346.653L274.767 346.736L274.224 346.987L273.304 347.573L272.803 347.657L272.217 347.866L271.925 348.494L271.549 348.954L270.629 348.787L269.835 348.41L269.417 348.452L268.33 349.289L267.369 349.833L266.324 350.209L265.153 350.418L263.23 350.544L262.687 350.711L262.144 350.795L261.475 350.669H260.848L260.263 350.962L259.719 351.13L259.301 350.711L259.092 357.95L259.009 361.046L258.8 368.661L258.758 370.795L258.925 371.799L259.259 372.385L260.346 373.64L261.767 374.937L262.394 375.858L262.687 376.109L263.23 376.318L264.359 376.569L264.819 376.904L264.986 377.155L265.279 377.782L265.488 378.075L265.738 378.243L266.407 378.577L266.7 378.787L267.536 379.665L267.954 380.042L270.211 380.879L270.671 381.13L271.172 381.548L271.507 382.05L271.758 382.594L271.883 383.222V384.059L271.925 384.351L272.092 384.644L272.426 385.063L272.51 385.439L272.343 386.067L271.465 387.406L271.256 387.908L271.549 388.577L272.635 389.791L272.844 390.167L272.761 390.879L272.844 391.172L273.095 391.59L273.262 391.757L273.68 392.008L273.848 392.301V392.636L273.806 392.887L273.764 393.18L273.973 393.557L274.182 393.766L274.809 394.017L275.06 394.184L275.687 395.105L275.854 395.23L276.272 395.314L276.481 395.649L276.439 395.732L276.565 396.778L276.523 397.113L276.314 397.699L276.356 398.034L277.401 399.707L277.693 400.586L277.108 402.176" stroke="black" stroke-width="0.9" stroke-miterlimit="10"/>
<path d="M324.467 253.724L324.969 253.515L325.178 253.598L325.387 254.268L325.512 256.025L325.638 256.653L326.766 258.577L327.017 259.289L327.184 260.669L327.352 261.339L327.853 261.925L328.397 262.218H328.94L329.442 262.134L330.027 262.092L331.072 262.594L331.866 263.64L333.789 268.577L334.165 269.163L334.583 269.414L335.628 269.833L336.548 270.837L336.422 272.008L335.712 273.18L333.998 275.314L333.663 275.565L333.371 275.649L332.744 275.774L332.409 275.941L330.696 277.573L321.541 286.025L321.082 286.82V288.745L321.5 288.41L321.709 288.033L322.001 287.699L322.545 287.531L323.172 287.573L323.464 287.531L324.008 287.28L324.258 287.364L324.551 287.699L325.721 288.285L326.432 288.41L326.975 288.201L327.519 288.075L328.02 288.494L328.438 289.121L328.606 289.623L328.773 290.92L328.94 291.506L329.274 291.799H330.528L331.072 291.967L331.49 292.343L331.615 292.594L331.782 293.096L331.908 293.305L332.159 293.515L332.744 293.808L332.953 294.226L333.413 294.77L333.538 294.895L333.872 294.979L334.081 295.23L334.207 295.565L334.416 295.858L334.667 296.025L335.294 296.402L335.544 296.611L335.67 296.904L335.795 297.28L335.962 297.615L336.213 297.782L336.548 297.866L336.84 298.075L337.384 298.619L337.634 298.787L338.638 299.079L339.557 299.665L339.808 299.874L339.892 300.167V300.711L340.059 300.962L340.226 301.506L339.85 302.092L339.306 302.594L339.014 302.971V303.473L339.474 304.561L339.641 305.439L340.142 306.653L340.351 307.029L340.769 307.238L341.313 307.406L341.731 307.615L341.898 308.075L341.982 309.623L341.898 310.084L341.773 310.293L341.313 310.879L341.396 311.255L341.605 311.548L341.814 311.757L342.023 312.134L342.525 312.51L342.65 312.72L342.734 313.013L343.236 313.975L345.66 320.377L345.744 321.004V322.259L345.827 322.803L346.12 323.431L346.705 324.393L346.998 325.021L347.081 325.649L346.914 326.778L346.998 327.197L347.29 327.49L347.583 327.741L347.875 328.033L348.168 328.577L348.377 329.289L348.419 329.958L347.917 331.004L348.043 331.674L348.628 332.887L347.541 333.096L343.277 334.268L342.692 334.184L342.483 333.473L342.358 332.008L343.068 323.891L342.776 322.134L341.814 319.163L340.728 316.946L337.676 312.887L337.007 311.674L336.13 309.498L335.544 308.452L334.834 307.741L334.374 307.531L333.204 307.113L332.744 307.071L332.493 307.197L332.033 307.699L331.782 307.824L330.779 307.95L330.319 308.285L329.525 308.912L328.438 309.456L326.307 311.715L322.921 316.276L322.043 317.071L320.956 317.699L320.037 318.033L319.033 318.285H318.03L317.069 318.033L316.149 317.238L315.355 316.151L314.812 314.937L314.185 313.138L313.892 312.594L313.474 312.218L312.847 311.967L312.262 311.841L312.053 311.757L311.802 311.506L311.76 311.297V310.753L311.635 310.586L311.384 310.753L309.712 314.979L309.169 315.774L309.336 315.9L310.046 315.983L310.297 316.318L310.255 316.946L310.297 317.448L311.342 317.49L311.593 317.657L311.677 317.866L311.635 318.243L311.718 318.41L311.969 318.577L312.429 318.828L288.937 318.87H279.031L277.86 318.703L275.729 317.824L273.722 317.364L272.635 317.448L270.713 318.326L269.542 318.452L268.957 318.326H268.455L267.954 318.452L266.742 319.079L266.24 319.205H265.279L264.275 318.661" stroke="black" stroke-width="0.9" stroke-miterlimit="10"/>
<path d="M33.9987 292.803L34.2913 292.594H34.9601H35.5035H35.8379C35.9215 292.594 36.0051 292.552 36.0887 292.51L36.7993 292.05C36.8829 292.008 36.9665 291.966 37.0919 291.966H37.3427C37.4263 291.966 37.5517 292.008 37.5935 292.092L37.8443 292.301C37.8861 292.343 37.9279 292.385 37.9279 292.427L38.1787 292.887L38.3877 293.18L38.6803 293.264L39.2237 293.096L38.9729 293.556V293.598L38.7639 294.059C38.7221 294.142 38.7221 294.184 38.7221 294.268V294.351C38.7221 294.519 38.8475 294.686 39.0147 294.728L39.3073 294.854L39.6417 294.895L40.2269 295.021L40.6031 295.063L41.3137 294.895L41.6481 294.854L42.1915 294.77C42.2751 294.77 42.3587 294.728 42.4005 294.686L42.7349 294.393C42.7767 294.351 42.8185 294.31 42.8603 294.226L43.0275 293.891C43.0693 293.807 43.0693 293.766 43.0693 293.682V293.305L42.9021 292.971L42.6095 292.51C42.5677 292.469 42.5677 292.469 42.5259 292.427L42.2333 292.176C42.1915 292.134 42.1079 292.092 42.0661 292.092L41.7317 292.008V291.841H42.3169V291.59L41.9407 291.548L41.7735 291.339V291.088L41.8989 290.837L41.6063 290.753L41.5227 290.586L41.5645 290.335L41.7317 290.084L41.3555 289.958V289.498L41.8571 289.707L42.2333 289.54L42.5259 289.289C42.5677 289.247 42.6095 289.247 42.6513 289.205L42.9439 289.079C42.9857 289.079 42.9857 289.079 43.0275 289.038L43.4037 288.954L43.5709 288.828L43.4455 288.703L43.2365 288.661L42.7767 288.87H42.5259L42.1079 288.577L42.1915 288.41L42.5259 288.201L42.6931 287.992L43.2783 288.159C43.3201 288.159 43.3201 288.159 43.3619 288.159L43.8635 288.201L44.2397 288.117L44.5323 288.536M44.8249 288.703L44.6159 288.284C44.5741 288.159 44.4487 288.075 44.3233 288.033L43.5291 287.824L43.8217 287.406C43.8635 287.364 43.9053 287.322 43.9471 287.28L44.2816 287.071L44.6996 287.029L45.0757 286.946L45.4101 286.569L45.9117 286.778L46.0371 286.946L46.1626 287.155L46.2043 286.862C46.2461 286.653 46.1207 286.443 45.9117 286.36L45.7863 286.318C45.7027 286.276 45.6609 286.276 45.5773 286.276L44.9086 286.36C44.8668 286.36 44.7831 286.402 44.7413 286.402L44.2397 286.695L44.1143 286.36C44.0725 286.318 44.0726 286.234 44.0726 286.192V285.774C44.0726 285.732 44.0726 285.69 44.0726 285.648L44.1979 285.272C44.2397 285.188 44.2815 285.105 44.3651 285.021L44.6159 284.812L44.9921 284.853L45.2429 285.105L45.4937 285.356L45.7863 285.607L46.0789 285.69L46.3297 285.272C46.3715 285.23 46.3715 285.188 46.4133 285.146L46.7477 284.853V284.435L46.6641 284.268L46.2461 284.184L46.1626 284.059V283.891L46.2879 283.807L46.4551 283.431L46.6641 283.347L46.5387 283.054L46.3716 282.971L45.9117 282.929L45.7863 282.678L45.7027 282.971L45.7863 283.054L45.4937 283.264L45.1593 283.305L44.9086 283.222L44.8249 282.887L44.1143 283.515L43.8635 283.682L43.9053 283.305L44.9086 282.092C44.9086 282.092 44.9086 282.092 44.9086 282.05L45.5356 281.171L45.5773 281.13L45.9536 280.753C45.9536 280.753 45.9535 280.753 45.9953 280.711L48.0436 278.954C48.0854 278.912 48.1271 278.87 48.1271 278.828L48.9631 277.28L49.3811 277.155L49.8409 277.322L49.9246 277.071L50.0499 276.527L50.4679 276.569L50.6351 276.402L50.5097 276.109L50.0499 275.9L49.6737 276.025C49.6319 276.025 49.5901 276.067 49.5483 276.067L48.9631 276.151L48.8796 275.9L49.1721 275.481C49.1721 275.439 49.2139 275.439 49.2557 275.397L49.8409 274.854L49.8827 274.812L50.2589 274.561C50.3007 274.561 50.3008 274.519 50.3426 274.519L50.6769 274.393C50.8441 274.351 51.0113 274.351 51.1367 274.477L52.0982 275.397L52.2236 275.481L52.5997 276.151C52.5997 276.192 52.6416 276.192 52.6416 276.234L52.8923 276.527L52.9759 276.82L53.0596 277.197L53.1432 277.406M41.4809 294.686L40.5613 294.728L39.7253 294.519L39.2237 294.268L39.4327 294.1L39.2237 293.891L39.8089 293.305V292.971L39.4327 292.761L38.9311 292.72L38.5131 292.427L38.3041 291.841L38.4295 291.339L38.8057 291.381L39.2237 291.632L40.2687 293.012L40.6867 293.347L41.6481 293.891L42.1079 294.268L41.4809 294.686ZM39.6835 290.879L40.0179 291.004L40.1015 290.795L40.3941 290.586L41.1465 291.381L41.2719 291.59L41.3973 292.134L41.5227 292.343L42.6095 293.18L42.9857 293.598L42.8603 294.017L42.3587 294.059L41.6481 293.682L40.3941 292.72L39.5999 291.715L39.4327 291.381L39.3491 291.046L39.3073 290.711L39.3909 290.586L39.6835 290.879ZM30.6547 284.686L30.2367 284.812L29.9023 284.686V284.393L30.3203 284.351L30.4875 283.933L30.6129 283.389L30.8219 283.096L31.2399 282.761H31.4489L31.4071 283.18L31.3653 283.933L30.9473 284.435L30.6547 284.686Z" stroke="black" stroke-width="0.9" stroke-miterlimit="10"/>
<path d="M62.005 357.741L60.8768 357.239L60.417 357.322C60.3752 357.322 60.3752 357.322 60.3334 357.322L58.9958 357.782C58.954 357.782 58.9122 357.824 58.8704 357.824L58.4106 357.866C58.3688 357.866 58.327 357.866 58.2434 357.866L57.909 357.782C57.8672 357.782 57.8672 357.782 57.8254 357.741L57.4492 357.573C57.4492 357.573 57.4492 357.573 57.4074 357.573L56.9476 357.406C56.9058 357.406 56.9058 357.406 56.864 357.364L53.938 356.778C53.8962 356.778 53.8962 356.778 53.8544 356.736L52.9766 356.402C52.9348 356.402 52.893 356.36 52.8512 356.318L52.266 355.858C52.2242 355.816 52.1406 355.732 52.1406 355.69L51.9316 355.146C51.9316 355.105 51.8898 355.063 51.8898 355.021L51.7644 354.268V354.226L51.5136 353.389C51.5136 353.347 51.5136 353.347 51.5136 353.305L51.3046 350.418C51.3046 350.377 51.3046 350.377 51.3046 350.335L51.012 349.247C50.9702 349.08 50.8448 348.954 50.6776 348.912L49.8834 348.703C49.8416 348.703 49.758 348.703 49.7162 348.703L48.9638 348.787C48.8802 348.787 48.8384 348.787 48.7548 348.745L47.877 348.41C47.8352 348.41 47.7934 348.368 47.7516 348.368L46.0378 347.155C45.996 347.113 45.9542 347.071 45.9124 347.029L45.4526 346.318C45.4108 346.276 45.369 346.192 45.369 346.109L45.2018 344.393C45.2018 344.268 45.1182 344.142 45.0346 344.1L44.4912 343.64C44.4076 343.556 44.324 343.556 44.1986 343.556H43.7806C43.7388 343.556 43.6552 343.556 43.6134 343.598L41.4398 344.393H41.398L40.9382 344.519C40.8964 344.519 40.8546 344.519 40.8546 344.519H40.3948C40.353 344.519 40.3112 344.519 40.2694 344.519L39.7678 344.393H39.726L39.0572 344.142L38.7646 343.891L38.681 343.598L38.7228 343.305L38.5974 343.013L38.3466 342.72L38.054 342.762H37.7614L35.9222 342.092C35.8804 342.092 35.8386 342.05 35.7968 342.05L33.9576 341.967C33.874 341.967 33.8322 341.967 33.7904 341.925L32.7454 341.381C32.7036 341.381 32.7036 341.339 32.6618 341.339L29.1088 338.619C29.067 338.619 29.067 338.577 29.0252 338.577L28.5236 338.326C28.4818 338.326 28.4818 338.285 28.44 338.285L26.8516 337.866C26.8098 337.866 26.8098 337.866 26.768 337.824L26.3082 337.615C26.2664 337.615 26.2664 337.573 26.2246 337.573L25.6394 337.113C25.5976 337.113 25.5976 337.071 25.5558 337.071L22.9642 334.184C22.9642 334.142 22.9224 334.142 22.8806 334.142L22.5044 333.849C22.4626 333.808 22.379 333.766 22.3372 333.766L20.8324 333.431L20.4144 333.473L20.0382 333.724L19.9128 333.347C19.871 333.305 19.871 333.222 19.8292 333.18L19.3276 332.636L19.2022 332.343L19.1604 331.799L18.9096 331.715L18.4916 331.841H18.4498L18.0736 331.925L17.4884 331.757C17.4466 331.757 17.4048 331.715 17.363 331.674L16.945 331.339C16.9032 331.297 16.8614 331.297 16.8614 331.255L16.527 330.753C16.527 330.711 16.4852 330.711 16.4852 330.669L16.2344 330.126C16.2344 330.126 16.2344 330.084 16.1926 330.084L15.9418 329.707C15.9 329.665 15.9 329.623 15.8582 329.582L15.1476 328.996C15.1058 328.954 15.064 328.954 15.064 328.912L14.5624 328.201C14.5206 328.159 14.4788 328.117 14.437 328.075L12.8904 326.987L13.3084 326.778L13.183 326.402C13.1412 326.318 13.0994 326.276 13.0576 326.192L12.8486 325.983L12.8068 325.941L12.4724 325.69L12.1798 325.397V324.937V324.895L12.2216 324.435V324.393V323.975C12.2216 323.891 12.2216 323.849 12.1798 323.766L12.0126 323.431L11.8454 323.347L10.9258 323.766L10.7168 323.515L10.4242 323.264L10.048 323.18L9.75536 322.971L8.91936 322.51H8.87756L8.16696 322.05C8.12516 322.05 8.12516 322.008 8.08336 322.008L7.74896 321.674C7.70716 321.632 7.70716 321.632 7.66536 321.59L7.53996 321.381C7.45636 321.255 7.45636 321.13 7.49816 321.046L7.58176 320.753L7.83256 320.46L8.20876 320.293C8.25056 320.293 8.25056 320.293 8.29236 320.251L8.66856 320.167C8.75216 320.167 8.83576 320.126 8.87756 320.042L9.21196 319.707C9.25376 319.665 9.29556 319.623 9.29556 319.582L9.71356 318.787C9.71356 318.745 9.75536 318.745 9.75536 318.745L10.0898 318.285L10.1316 318.243L10.8004 317.573C10.8004 317.573 10.8004 317.573 10.8004 317.531L11.3856 316.862L11.72 316.485L11.7618 316.444L12.2216 316.067C12.2634 316.025 12.347 315.983 12.3888 315.983L13.5174 315.732C13.5592 315.732 13.6428 315.732 13.6846 315.732L14.228 315.816C14.2698 315.816 14.3116 315.816 14.3116 315.816L14.646 315.774C14.6878 315.774 14.7296 315.774 14.7714 315.774L15.273 315.858C15.3148 315.858 15.3566 315.858 15.3566 315.9L15.8164 316.109C15.8582 316.109 15.8582 316.151 15.9 316.151L16.4016 316.276H16.4434L17.363 316.36H17.4048L17.99 316.485H18.0318L18.7842 316.569L18.9096 316.653L19.1186 316.904L19.4112 317.071L19.662 317.155L19.9546 317.113L19.9128 316.736L20.0382 316.192C20.0382 316.109 20.08 316.067 20.1218 315.983L20.3726 315.732C20.4144 315.69 20.4562 315.607 20.4562 315.565L20.5816 315.146C20.6234 315.021 20.5816 314.895 20.5398 314.812L20.3726 314.519L20.4144 314.1L20.6234 313.682V313.389L20.4562 313.347L20.2472 313.682L19.9128 313.891H19.3276L19.1604 313.515V313.054C19.1604 313.013 19.1604 312.971 19.1604 312.971L19.2858 312.469V312.427L19.3276 312.05V312.008L19.453 311.297L19.4948 310.962L19.3694 310.711L19.1604 310.46L18.8678 310.209L18.5752 310.084L18.2826 310.251L18.0736 310.586C18.0318 310.628 18.0318 310.669 18.0318 310.711L17.781 311.548L17.4466 311.674L17.2376 311.464L17.1958 310.879L17.1122 310.167C17.1122 310.126 17.1122 310.084 17.0704 310.084L16.7778 309.205C16.7778 309.163 16.7778 309.163 16.7778 309.121L16.527 307.824C16.527 307.824 16.527 307.824 16.527 307.782L16.2762 306.862C16.2762 306.82 16.2762 306.82 16.2762 306.778L16.1926 305.732C16.1926 305.649 16.1926 305.565 16.2344 305.523L16.8614 304.184C16.8614 304.184 16.8614 304.142 16.9032 304.142L17.0286 303.682C17.0704 303.556 17.154 303.431 17.2794 303.389L17.6556 303.222C17.781 303.18 17.8646 303.054 17.9064 302.929L18.0736 302.385C18.0736 302.343 18.1154 302.343 18.1154 302.301L18.9096 300.837C18.9096 300.837 18.9096 300.837 18.9096 300.795L19.4948 299.623C19.4948 299.623 19.4948 299.623 19.4948 299.582L19.7874 298.828C19.7874 298.787 19.8292 298.745 19.871 298.703L20.2472 298.285L20.08 298.703C20.08 298.745 20.0382 298.787 20.0382 298.828L19.9964 299.205C19.9964 299.247 19.9964 299.289 19.9964 299.331L20.08 299.707C20.08 299.707 20.08 299.707 20.08 299.749L20.2054 300.251L20.6234 298.996C20.6234 298.954 20.6234 298.954 20.6234 298.912L20.8324 297.699C20.8324 297.657 20.8742 297.573 20.8742 297.531L21.1668 297.029L21.3758 297.071C21.543 297.113 21.7102 297.071 21.8356 296.904L22.379 296.234L23.0896 295.397L23.1314 295.356L23.7166 294.519C23.7584 294.435 23.842 294.351 23.9674 294.351L24.3436 294.226C24.4272 294.184 24.469 294.184 24.5108 294.142L25.4722 293.18C25.514 293.18 25.514 293.138 25.5558 293.138L26.2246 292.72L26.559 292.761L27.1442 294.142C27.1442 294.184 27.186 294.184 27.186 294.226L27.604 294.895L28.022 295.523C28.1056 295.649 28.231 295.732 28.3564 295.732L28.8162 295.774L28.4818 294.854C28.4818 294.812 28.4818 294.812 28.4818 294.77L28.3564 294.059C28.3564 294.017 28.3564 294.017 28.3564 293.975V293.264C28.3564 293.18 28.3982 293.096 28.44 293.013L28.6072 292.761C28.649 292.72 28.649 292.678 28.6908 292.678L29.067 292.343L29.3178 292.803C29.3596 292.845 29.3596 292.887 29.3596 292.929L29.5268 293.598C29.5268 293.682 29.5268 293.766 29.5268 293.808L29.4432 294.142C29.4014 294.268 29.4432 294.393 29.485 294.519L29.6522 294.77C29.6522 294.812 29.694 294.812 29.694 294.854L30.112 295.858C30.112 295.9 30.1538 295.941 30.1956 295.983L30.5718 296.402L30.8226 296.569L31.784 297.071C31.8258 297.071 31.8258 297.113 31.8676 297.113L32.2856 297.238L32.5364 297.197L32.9544 296.946C32.9962 296.904 33.038 296.904 33.0798 296.904L33.5814 296.736L33.6232 296.36L33.5814 296.151L33.7068 295.858V294.937C33.7068 294.895 33.7068 294.854 33.7068 294.812L33.4978 294.059C33.4978 294.017 33.456 293.975 33.456 293.975L33.247 293.598C33.247 293.556 33.2052 293.556 33.2052 293.515L33.038 293.054L33.2888 292.803L34.1363 292.761M30.321 291.632L30.8226 291.883L31.4078 291.674L31.993 292.008L32.1602 292.51L32.3692 292.803L32.4528 293.138L32.3692 293.305L32.411 293.473L33.0798 294.268L33.3306 294.854L33.3724 295.774L33.0798 296.569L32.2856 296.778L31.6586 296.402L30.9062 295.607L30.2792 294.77L29.9866 294.184L30.0702 293.766L30.4882 293.473L30.6136 293.18L30.4046 292.887L29.9866 292.092L30.0284 291.799L30.321 291.632Z" stroke="black" stroke-width="0.9" stroke-miterlimit="10"/>
<path d="M104.014 81.7991L103.846 81.3389L103.805 80.7531L104.055 80.4602L104.473 80.2929L104.599 80.1255L104.891 79.4979L105.184 79.0376L105.268 78.7029L105.309 78.41V77.8243L105.435 77.5314L104.557 78.0335L103.387 78.8284L102.258 80L101.129 80.6694L100.586 80.5858L101.004 79.6234L101.798 79.1632L102.216 78.9121L102.634 78.3263L102.801 77.9498L103.052 77.615L103.136 77.3222L103.01 76.9456L103.094 76.7364H103.721L103.554 76.4853L103.512 76.2761L103.554 76.0251L103.721 75.774L103.972 76.3598L104.515 76.2343L105.56 75.5648L105.853 75.3138V74.6443L105.686 73.8912L105.644 73.2217H105.435L105.226 73.3891L105.059 73.1799L104.891 72.4268H104.682L104.515 72.887L104.348 72.9707L104.097 73.0125L104.223 72.8033L104.348 72.2594L104.473 72.0502L104.641 71.8828L104.975 71.7155L105.184 71.5481L105.978 70.6276L106.229 70.4602L106.104 70.9623L105.811 71.5481L105.686 72.0502L106.145 72.2594L106.522 72.0084L106.689 71.3807V70.6694L106.605 70.0837L106.522 69.9581L106.02 69.8745L106.062 69.7071L106.229 69.2887L106.187 68.6611L106.104 68.41L105.727 68.3263L105.644 68.2008L105.769 67.9498L106.02 67.6569L106.313 67.5314L106.647 67.4895L107.023 67.364L107.316 67.1966L107.567 66.9456V66.7782L107.358 66.4853L107.399 66.3598L108.026 66.0669H108.235L108.444 66.0251L108.528 65.6904L108.612 65.6485L108.862 65.3975L109.03 65.1046V64.9791L109.197 64.9372L109.866 64.6025L111.747 64.1422L111.997 63.8912L112.29 63.431L112.499 63.1799L112.666 63.1381L113.126 63.3473L113.168 63.5146L112.959 63.8075L113.168 64.0167V64.1422L113.001 64.4351L112.917 64.8117M105.309 74.3933L105.017 74.728L104.432 74.6025L104.181 74.728L104.097 75.1046L104.014 75.3138H103.763L103.679 74.9372L103.637 74.477L103.721 74.1422L103.888 73.8912L104.181 73.5983L104.39 73.7657L104.724 73.8912L105.268 74.0586L105.309 74.3933ZM113.92 62.5941V62.4268L113.46 62.8033L113.335 63.0125L112.792 62.7197L112.624 62.1757L112.833 61.6736L113.837 61.3389L113.92 61.2134L114.046 61.4226L114.129 62.1339L113.92 62.5941Z" stroke="black" stroke-width="0.9" stroke-miterlimit="10"/>
<path d="M57.2404 248.243L57.0314 247.782L57.533 247.155L55.1504 247.113L54.7324 247.029L54.3144 246.569L53.3112 244.812L54.1054 243.682L54.2726 243.264L54.4816 242.05L54.7742 241.632L55.4012 241.339V241.13L54.816 241.339L54.8996 240.502L55.1922 239.205L55.234 235.314L55.4012 235.774L55.7774 236.109L55.9028 235.816L55.9864 235.356L55.9028 234.937L55.234 234.602L55.1086 234.226V233.766L55.025 233.389L55.652 233.473L56.1536 233.808L56.488 234.268L56.7388 234.77H56.906L56.6134 233.849L55.4012 232.385L55.234 231.464L54.607 231.674L54.398 230.502L54.0636 226.904L53.8546 226.402L53.6874 222.176L53.8546 221.213L54.1054 220.293L54.4398 219.456L54.0636 219.247L54.0218 218.619L54.0636 217.992L53.9382 217.699L53.6874 217.49L53.562 216.904L53.4784 215.774L53.0604 215.941L52.8096 215.816L52.6842 215.481V215.021H52.8932L53.1022 215.188H53.2694L53.4784 215.021L53.1858 214.812L53.0604 214.561L52.8514 213.682L52.8932 213.473L52.6842 213.264L52.099 213.138L51.9318 213.054L51.6392 212.761L51.4302 212.469L51.1794 212.218L50.8032 212.092H50.3852L50.0926 212.176L49.8836 212.385L49.8418 212.678L49.5074 212.385H49.173L48.8804 212.51H48.6714L48.4624 212.176L48.546 211.925L48.7968 211.757L49.1312 211.715L49.382 211.423L50.0508 210.042L50.3852 209.582L50.636 209.498L51.263 209.456L51.5556 209.372L51.89 209.163L52.099 208.912L52.3916 208.703L52.8096 208.619L53.3112 208.787L53.7292 209.038L54.189 209.205L54.816 208.996L54.9832 208.828L55.1086 208.452L55.234 208.117L55.1922 207.782L55.3594 207.615L55.6938 207.657L55.9028 207.238L56.1954 207.029L56.5716 206.778L56.8224 206.569L57.0314 206.318L57.1568 205.983L57.324 205.314L57.2404 204.142L56.8224 203.138L55.6938 201.297L55.4012 201.046L55.3594 200.418L54.2726 197.364H54.0636V198.159H53.8546L53.4366 196.904L52.6842 195.816L50.9704 193.682L50.6778 193.18L50.5524 192.761L50.5942 191.632L50.8032 190.628V190.167L50.5942 189.791L50.8032 189.623L51.8482 190.502L52.517 191.339L52.8096 191.13L53.0604 190.669L53.4784 189.623L53.562 189.079L53.6038 188.577L53.562 188.159L53.4784 187.866L52.9768 187.155L53.0186 186.904L53.6874 186.695L53.771 186.862L54.0636 187.071L54.1472 186.653L54.0636 186.234L53.8128 185.941L53.4784 185.732V185.523L53.8964 184.812L54.0218 184.351L54.0636 183.766L54.398 183.347L54.5234 182.72L54.4816 182.092L54.2726 181.632L53.3112 180.879L52.8096 180.293L52.517 180.084V179.791L52.6842 179.205V178.828L52.6006 178.494L52.3916 178.326L52.1408 178.243L51.1794 177.699L50.5106 177.866L49.9672 178.284L49.6328 178.745L49.8418 179.121L49.591 179.163L49.2148 179.331H49.0476V178.619L49.0894 178.284L49.2148 177.95L48.0862 175.439L47.501 174.686L46.7068 173.891L46.2888 173.598L45.5782 173.431L45.3274 173.222L44.993 173.305L44.9094 173.473L44.8676 173.933L44.6168 174.059L44.4914 172.092L44.7422 171.297L45.4946 170.962L45.829 170.46L45.4946 169.372L44.6168 167.699H44.4078L44.6168 168.033L44.8258 168.243V168.452H44.6168L44.1152 167.782L42.067 165.565L41.7744 165.397L41.2728 165.356L40.9802 165.188L40.813 164.812L40.604 164.477L40.186 164.351L40.395 164.184L40.0188 164.059L39.6844 163.808L39.2246 163.18L39.0156 163.138L41.1474 156.276L41.8162 156.443L42.4014 156.318L42.9448 156.025L43.3628 155.481L43.6136 154.77L43.53 154.142L42.903 152.887L42.6522 152.008L42.5268 150.795L42.694 149.791L43.3628 149.414L43.6554 149.54L45.0766 150.753L45.3274 151.088L45.202 151.381L45.2856 151.59L45.62 151.674L46.3724 152.761L46.5814 153.138L46.9576 154.561L47.2502 154.854L47.8772 154.812L48.5878 154.226L49.8836 152.929L53.8128 150.46L54.6488 149.707L54.4398 149.205L53.8964 148.661L53.5202 147.824L53.6038 147.49L54.4398 146.402L55.1504 144.812L55.7356 144.184L56.6134 143.724L57.533 143.431L58.369 143.264H59.414L59.5812 143.138L59.3722 142.678L59.0796 142.385L58.787 142.176L58.5362 141.925L58.3272 141.506L58.2854 140.837L57.7002 138.619L56.8642 137.029L55.861 135.565L55.2758 134.268L55.0668 133.975L54.6906 133.849L54.3144 133.807L53.98 133.682L53.6456 133.18L53.3948 132.176L53.1858 130.209L52.7678 129.247L52.308 128.452L52.0154 128.201L51.5556 128.033L50.6778 128.117L50.427 127.95V127.28L50.6778 126.443L51.7646 125.272L52.099 124.561V124.059L51.9318 123.766L51.9736 123.556L52.4334 123.264L52.8932 123.138L53.353 123.096L53.6456 122.887L53.6874 122.385L53.8546 122.134L54.3144 122.385L54.5652 123.431L54.8996 123.975L55.2758 124.31L55.5266 124.644L55.7774 125.063L55.9864 125.607L56.2372 126.695L56.4462 127.322L58.2854 128.577L59.7066 129.121L60.1246 129.456L60.4172 129.791L62.6744 133.556L63.3014 134.017L63.6776 134.1H64.4718L64.5972 134.142V134.226L64.9316 135.607L65.1406 136.067L65.266 136.611M56.1536 248.661L56.1954 249.163L55.9864 249.456L55.6102 249.623L55.2758 249.498L54.9414 249.163L54.6906 249.079L54.3144 249.121L53.1022 250.126L51.9318 250.293L52.0154 249.833L52.1826 249.54L52.517 249.247L52.8932 249.163L53.2694 249.205L53.562 249.163L53.6874 248.787L53.771 248.577L54.0636 248.368L54.398 248.285L54.7324 248.41L55.1922 248.954L55.3594 248.996L55.7774 248.87L56.1536 248.661ZM54.2726 247.155L54.816 247.406L55.4012 247.364L55.9864 247.238L56.5298 247.322L56.0282 248.159L55.652 248.494L55.3176 248.326L54.816 247.699L54.1054 247.992L53.4366 248.075H51.9736L51.4302 247.95L51.054 247.908L50.636 247.992L50.3852 248.201L50.009 248.661L48.964 248.996L48.8386 249.079L48.755 248.828V248.452L48.8804 248.075L49.1312 247.908L49.5074 247.782L50.1344 247.238L50.4688 247.155L50.845 247.197L51.5556 247.322H51.9318L51.8064 247.113L51.3884 246.82L51.1794 246.569H52.1408L51.472 246.402L51.5556 246.109L52.0154 245.816L52.517 245.565L52.1408 245.397H51.9318L52.1408 244.979L52.8932 245.397L53.3112 245.732L53.6456 246.151L53.8546 246.611L54.2726 247.155Z" stroke="black" stroke-width="0.9" stroke-miterlimit="10"/>
<path d="M100.755 101.088L101.465 101.255L101.841 101.004L102.928 100.042L103.597 98.7448L104.14 96.9038L104.182 95.2302L103.848 94.477L103.513 94.0586L103.304 93.8494L103.012 93.3055H102.552L102.176 93.0126L101.883 92.8452H101.298L100.964 93.0126L100.629 93.2636L100.546 92.9707L102.134 91.3808L102.385 90.6276L102.845 89.0377V88.3682L103.012 87.7825L103.388 86.9875L103.681 86.0251L103.806 85.4394V84.8536L104.182 83.2218L104.224 82.3013L104.015 81.7992M96.909 90.2092L97.118 90.2511V90.4184H96.6164L96.3238 90.4603L96.2402 90.2929L96.4492 90.1256L96.909 90.2092Z" stroke="black" stroke-width="0.9" stroke-miterlimit="10"/>
</svg>
