<svg width="275" height="143" viewBox="0 0 275 143" fill="none" xmlns="http://www.w3.org/2000/svg">
<g clip-path="url(#clip0_1775_2125)">
<path d="M126.366 69.9232C133.074 79.8789 131.114 94.7234 122.052 102.593C114.377 109.258 113.877 122.567 121.03 129.791C128.183 137.015 141.483 136.632 148.209 129.009C154.936 121.385 153.672 108.127 145.627 101.914C141.225 98.5151 139.229 92.706 139.144 87.1417C139.058 81.5774 140.631 76.1369 142.189 70.7951C137.161 71.0607 132.133 71.3264 126.366 69.9232Z" fill="#BF522A"/>
<path d="M163.199 20.4131C161.656 20.23 160.122 20.7493 158.671 21.2206C156.672 21.9284 155.735 22.313 153.043 23.4955C148.248 25.6807 143.453 28.4977 139.455 32.0973C139.607 31.6108 139.775 31.129 139.965 30.6547C141.068 28.0947 142.675 25.7917 144.212 23.4782C146.041 20.7195 148.038 18.0763 150.193 15.5638C150.592 15.9365 151.118 16.1437 151.665 16.1439C154.518 16.0731 154.51 11.8889 151.664 11.8103C149.695 11.8592 149.09 13.8665 149.839 15.132C148.197 16.3195 146.633 17.6124 145.159 19.0025C141.99 22.0883 138.832 25.3846 136.758 29.3277C135.821 26.4167 134.494 23.6466 132.812 21.0933C130.78 18.1148 128.123 15.2359 124.667 13.9809C122.329 13.3038 119.955 14.7461 120.613 17.3714C121.53 20.3928 122.16 21.7286 122.998 24.0874C124.397 27.985 125.652 31.1406 127.956 34.925C129.35 36.9485 131.247 38.5206 133.166 40.0497C133.15 40.3141 133.168 40.5795 133.22 40.8393C133.323 41.2136 133.536 41.5482 133.831 41.8001C133.475 49.2282 135.134 56.8401 137.434 63.857C135.475 64.2069 131.746 64.9893 129.389 65.4435C126.279 65.945 123.402 66.2481 120.176 66.6377C119.98 66.2633 119.644 65.8695 119.5 65.6087C119.628 65.9615 119.738 66.3199 119.85 66.6777C119.487 66.7218 119.124 66.766 118.752 66.8129C119.142 66.8434 119.532 66.8688 119.921 66.8967C120.097 67.4796 120.258 68.0672 120.39 68.6635C121.214 72.5958 121.237 76.9409 121.425 81.2549C121.399 85.2718 120.502 89.7056 119.216 93.4761C117.277 97.7836 115.333 98.8494 113.041 102.969C109.644 109.116 106.069 115.619 105.808 122.797C105.886 126.609 107.092 130.313 109.273 133.439C111.14 136.166 114.008 137.966 117.041 139.156C122.535 141.494 128.413 142.796 134.38 142.998C141.326 143.093 148.253 139.798 152.243 134.05C157.991 126.103 160.617 112.843 157.726 103.405C156.226 99.0433 154.721 96.6558 152.284 93.9512C150.823 92.3247 149.031 91.0241 147.636 89.3369C147.278 88.8736 146.984 88.3637 146.762 87.8213C146.372 86.6707 146.084 85.488 145.901 84.2869L145.975 84.839C145.651 83.0911 145.977 80.2223 146.028 80.2064C146.806 76.1639 147.712 73.0643 149.171 70.4431C149.721 69.4646 150.322 68.5153 150.97 67.5989C151.413 67.1141 151.762 66.5507 151.999 65.9376C152.111 65.4837 152.077 65.006 151.9 64.573C151.724 64.14 151.415 63.774 151.018 63.5276C150.615 63.2549 150.024 63.2339 149.488 63.2172C145.758 63.2636 142.002 63.2053 138.299 63.7142C138.119 63.7393 137.89 63.7766 137.621 63.8236C136.904 55.736 136.677 47.0031 137.772 39.8206C138.024 39.4022 138.311 39.006 138.631 38.6364C142.186 34.5831 144.589 32.7641 148.769 30.1222C153.288 27.4048 155.966 26.4362 161.123 24.7574C161.338 24.6964 161.509 24.6515 161.663 24.6129C161.377 25.1341 161.041 25.6265 160.708 26.1179C158.113 29.4677 154.977 32.3597 151.429 34.6743C148.786 36.448 145.233 37.9082 142.622 39.0221C141.376 39.5486 140.115 40.0397 138.865 40.554C139.441 40.4406 140.019 40.3327 140.596 40.2231C149.205 38.6783 156.446 36.2432 162.603 29.7014C163.87 28.232 165.292 26.7277 165.816 24.8129C166.264 22.9443 165.289 20.6128 163.199 20.4131ZM146.525 67.0353C144.624 69.892 143.465 73.1813 142.639 76.5009C141.549 80.4255 141.303 84.6131 142.617 88.5161C143.588 91.856 146.439 94.0511 148.714 96.501C150.629 98.4256 152.465 101.654 153.221 103.835C155.396 110.674 154.913 115.321 152.915 122.791C151.887 126.004 151.716 126.635 149.918 129.666C148.106 132.438 149.233 130.946 147.468 132.952C145.763 134.607 145.943 134.428 143.666 135.871C141.841 137.005 138.329 138.254 134.927 138.273C128.491 138.15 121.125 136.149 115.526 132.95C112.685 131.302 110.591 126.819 110.229 123.207C110.242 119.473 110.253 120.583 110.787 117.876C111.359 115.848 112.064 113.86 112.898 111.925C113.054 111.557 113.253 111.085 112.932 111.84C114.041 109.04 115.455 107.186 117.353 103.778C118.339 102.264 119.38 101.362 120.98 99.0357C121.267 98.6298 120.881 99.1431 120.772 99.2823C123.977 94.8812 124.322 89.2626 124.716 86.5228C125.164 84.0791 124.357 79.2392 123.32 75.4586C122.575 72.4359 121.853 69.5789 120.336 66.9264C126.008 67.3194 131.692 67.4169 137.349 66.707C139.604 66.4814 143.143 66.7713 146.525 67.0353V67.0353ZM129.994 35.2993C127.369 30.7015 126.472 24.2668 124.671 18.6723C124.578 18.3651 124.469 18.0622 124.36 17.7592C124.451 17.8158 124.544 17.869 124.632 17.9302C124.749 18.0157 124.866 18.1013 124.983 18.1867C125.037 18.2297 125.101 18.2797 125.178 18.3403C126.384 19.3217 127.468 20.4441 128.406 21.6834L128.339 21.596C128.736 21.9883 130.504 24.6985 131.389 26.5622C132.564 28.9747 133.375 31.0588 133.472 33.4944C133.538 35.1725 133.485 36.8533 133.313 38.5239C133.301 38.8027 133.264 39.0815 133.23 39.3601C132.06 38.082 130.979 36.7252 129.994 35.2993Z" fill="#3B373A"/>
<path d="M148.56 6.21594C145.707 6.28673 145.714 10.471 148.56 10.5495C151.413 10.4787 151.406 6.29447 148.56 6.21594Z" fill="#3B373A"/>
<path d="M153.528 0C150.675 0.0707886 150.682 4.25503 153.528 4.33359C156.381 4.26281 156.374 0.0785233 153.528 0Z" fill="#3B373A"/>
<path d="M159.118 2.48633C156.264 2.55712 156.272 6.74138 159.118 6.81991C161.971 6.74912 161.964 2.56489 159.118 2.48633Z" fill="#3B373A"/>
<path d="M163.464 8.08081C160.611 8.15156 160.618 12.3358 163.464 12.4144C166.318 12.3436 166.31 8.15933 163.464 8.08081Z" fill="#3B373A"/>
<path d="M156.633 13.0536C153.78 13.1244 153.787 17.3087 156.633 17.3872C159.487 17.3164 159.479 13.1321 156.633 13.0536Z" fill="#3B373A"/>
<path d="M154.77 7.45923C151.917 7.53001 151.924 11.7143 154.77 11.7928C157.623 11.722 157.616 7.53775 154.77 7.45923Z" fill="#3B373A"/>
<path d="M133.773 129.877C130.828 129.661 128.394 128.798 126.644 126.93C125.461 125.301 125.038 124.084 124.316 121.797C123.275 117.847 123.338 118.08 123.171 114.42C123.291 111.181 123.613 109.233 124.635 105.711C125.276 103.904 126.586 101.612 127.757 99.4468C125.989 101.194 124.204 102.97 122.888 105.096C120.184 110.007 118.888 116.023 120.775 121.442C121.964 124.775 123.729 128.556 127.317 129.771C129.214 130.467 131.272 130.6 133.243 130.153C133.707 130.04 134.88 129.923 133.773 129.877Z" fill="#3B373A"/>
<path d="M274.633 89.0033C273.616 87.3249 271.512 87.6605 269.836 87.7682C268.143 87.8773 266.445 87.9156 264.748 87.9657C257.388 88.1689 250.029 88.5764 242.664 88.5884C240.756 88.5014 238.849 88.4593 236.943 88.4488C237.318 88.1122 237.694 87.7772 238.062 87.4333C241.375 84.4428 244.015 80.8233 246.845 77.3942C250.779 72.6234 255.034 66.6609 258 60.1538C260.158 54.8785 265.158 42.4932 257.007 40.2894C252.557 39.5277 249.863 44.2859 247.946 47.5687C247.118 49.0272 246.27 50.7144 245.449 52.4442C245.561 48.082 245.44 43.6865 244.583 39.3981C243.886 36.7685 242.97 34.2017 241.847 31.7243C239.658 26.4585 233.367 19.9669 228.07 25.6102C226.914 26.7915 225.91 28.1131 225.082 29.5441C224.2 31.5488 223.592 33.6634 223.273 35.8307C222.118 43.1836 222.604 50.5771 223.444 57.9461C222.036 55.2888 220.476 52.6412 218.101 50.7749C215.114 48.2831 209.866 47.0248 206.995 50.3104C206.123 51.3514 205.507 52.5835 205.197 53.9068C205.127 54.0858 205.167 54.0183 205.233 53.8828C204.794 55.0428 204.722 56.2902 204.551 57.5157C204.405 59.0142 204.471 60.5257 204.745 62.0059C204.766 62.1128 204.778 62.1714 204.786 62.2112C204.794 62.2713 204.802 62.3314 204.81 62.3916C205.168 64.33 205.633 66.2798 206.579 68.0239C209.149 72.3821 212.281 76.554 216.226 79.7589C217.819 81.0762 219.558 82.198 221.215 83.4295C222.819 84.6702 224.318 86.0334 225.79 87.426C225.835 87.8616 225.882 88.297 225.92 88.7333C217.64 89.1724 209.372 90.0389 201.121 90.8166C200.421 90.9055 199.723 91.0098 199.027 91.1294C199.913 91.141 200.799 91.1716 201.685 91.221C209.046 91.7642 216.404 92.3683 223.786 92.5438C224.7 92.5485 225.612 92.5737 226.523 92.609C226.651 92.8624 226.814 93.0967 227.006 93.3052C227.45 93.744 228.018 94.0347 228.633 94.1377C229.248 94.2406 229.88 94.1508 230.442 93.8803C231.015 94.0768 231.632 94.1068 232.221 93.9666C232.81 93.8265 233.347 93.5221 233.77 93.0887C238.234 93.4598 242.695 93.8764 247.177 93.8384C255.912 93.8017 262.112 93.1612 269.75 92.4945C268.411 97.6156 266.834 102.679 265.322 107.751C263.76 112.764 261.698 117.601 259.891 122.527C257.755 127.953 256.575 131.275 253.436 136.542C252.423 138.049 251.677 138.426 249.375 138.588C240.806 139.459 234.695 137.807 225.705 137.926C222.278 137.861 219.54 136.924 215.073 136.401C210.458 135.922 206.336 135.852 203.85 134.667C203.821 134.635 203.793 134.605 203.77 134.58C203.734 134.523 203.701 134.465 203.669 134.406C203.633 134.295 203.588 134.145 203.545 133.975C202.822 130.861 202.094 127.748 201.222 124.671C197.855 112.752 194.552 100.815 190.702 89.0401C193.057 102.605 194.951 116.27 198.231 129.653C198.591 131.223 198.9 132.803 199.201 134.384C199.339 135.558 199.812 136.668 200.563 137.58C201.77 138.972 203.666 139.415 205.397 139.778C208.172 140.354 211.005 140.535 213.828 140.7C217.77 140.956 218.112 141.29 222.547 141.962C225.338 142.427 228.167 142.3 230.982 142.42C236.333 142.846 239.299 143.073 243.908 142.979C246.914 142.92 249.993 142.987 252.928 142.256C255.591 141.44 257.065 138.826 258.27 136.497C259.553 133.952 260.707 131.343 261.727 128.681C263.973 122.698 266.255 116.73 268.574 110.775C270.485 105.571 272.054 100.253 273.772 94.9836C274 94.2297 274.268 93.4892 274.524 92.7446C274.593 92.617 274.643 92.48 274.673 92.338C274.986 91.2488 275.232 90.0377 274.633 89.0033ZM252.902 51.8081C254.067 49.6522 254.76 48.3755 255.389 47.5314C255.492 49.3687 254.9 51.273 254.028 54.9602C251.416 64.1851 245.301 73.4122 239.843 83.1807C239.136 84.3606 238.361 85.4944 237.561 86.6111C239.162 83.1952 240.572 79.6926 241.785 76.1197C241.945 75.604 242.085 75.0822 242.232 74.5629C243.544 71.8812 244.871 69.2073 246.187 66.5276C248.505 61.6579 250.383 56.5831 252.902 51.8081V51.8081ZM230.195 34.3562C230.687 32.4463 230.881 32.351 231.094 31.998C232.082 30.6568 231.635 31.0397 232.81 29.941C233.343 30.2746 233.702 30.5886 234.776 31.8859C234.806 31.9309 234.833 31.9721 234.876 32.0365C236.679 34.8874 236.886 36.006 238.215 40.2306C239.315 44.56 239.11 51.9683 238.434 58.7118C237.927 63.5846 237.643 66.5042 236.061 72.552C235.849 73.2573 235.647 73.9079 235.45 74.5295C234.688 76.1378 233.932 77.7494 233.206 79.3743C232.913 80.0344 232.626 80.6969 232.336 81.3581C231.634 65.0634 227.251 47.4315 230.195 34.3562ZM215.986 73.8468C214.542 71.6285 213.302 69.285 211.97 66.9985C210.764 64.6706 210.945 65.4932 210.391 62.9994C209.632 60.2898 210.352 55.9665 210.777 55.0371C210.798 54.9886 210.81 54.958 210.827 54.9192C210.919 54.7286 211.023 54.5439 211.139 54.3664C211.178 54.3255 211.211 54.2902 211.242 54.2589C211.285 54.2481 211.33 54.2417 211.374 54.2318C211.451 54.2301 211.52 54.2294 211.582 54.2305C211.986 54.3074 212.384 54.4172 212.77 54.559C212.8 54.5702 212.812 54.575 212.837 54.5844C212.962 54.6405 213.089 54.693 213.212 54.7552C214.13 55.3061 214.05 55.1498 215.56 56.8008L215.566 56.8097C216.489 58.1423 217.287 59.5585 218.076 60.9733C219.045 62.769 219.921 64.6145 220.735 66.4856C220.848 66.7666 220.964 67.0462 221.071 67.3298C223.099 72.7655 224.913 80.8156 225.535 85.1944C224.64 83.9609 223.709 82.7553 222.7 81.6106C219.927 78.6032 217.625 76.5202 215.986 73.8468H215.986Z" fill="#3B373A"/>
<path d="M212.997 35.9409C208.944 36.0415 208.954 41.9857 212.997 42.0973C217.051 41.9968 217.04 36.0525 212.997 35.9409Z" fill="#3B373A"/>
<path d="M250.67 32.0931C246.616 32.1937 246.627 38.138 250.67 38.2496C254.724 38.149 254.713 32.2047 250.67 32.0931Z" fill="#3B373A"/>
<path d="M259.126 75.9576C255.073 76.0582 255.083 82.0025 259.126 82.1141C263.18 82.0135 263.169 76.0692 259.126 75.9576Z" fill="#3B373A"/>
<path d="M203.474 101.454L207.061 130.963C219.943 131.742 232.825 132.522 245.168 135.45C249.661 124.141 254.155 112.832 259.951 102.465C251.125 111.082 242.3 119.7 232.528 127.05C225.722 126.114 218.916 125.178 212.569 124.24C209.688 117.116 206.807 109.992 203.474 101.454Z" fill="#BF522A"/>
<path d="M44.5132 48.2938C44.0831 45.1609 43.3733 41.9975 41.7322 39.2953C40.091 36.5932 37.3846 34.393 34.248 34.0157C30.1826 33.5268 26.1779 36.2915 24.4136 39.99C22.6491 43.6885 22.8363 48.0806 24.0519 51.9944C25.2676 55.9082 27.4304 59.4475 29.572 62.9407L40.031 80.0008C44.415 70.047 45.9661 59.0743 44.5132 48.2938V48.2938Z" fill="#BF522A"/>
<path d="M38.6641 82.8813L42.7471 84.4299C41.842 82.9536 40.9368 81.4772 40.0318 80.0009C39.6023 80.9731 39.1464 81.9333 38.6641 82.8813Z" fill="#BF522A"/>
<path d="M38.8999 111.588C38.8983 111.569 38.8968 111.549 38.8949 111.532C38.8881 111.483 38.8802 111.434 38.8732 111.385C38.866 111.356 38.87 111.414 38.8999 111.588Z" fill="#3B373A"/>
<path d="M77.4414 77.8593C76.8196 73.611 75.8223 69.0412 72.7984 65.8204C71.486 64.4007 69.3638 63.6635 67.5019 64.3369C65.6173 65.1035 64.4882 66.9081 63.8385 68.7574C61.2491 75.5212 59.498 82.5828 56.573 89.2225C54.7239 93.9726 52.584 98.604 50.1654 103.09C48.3507 106.417 46.2755 109.589 44.2629 112.796C44.0098 112.965 43.7687 113.151 43.5413 113.353C43.9501 105.207 43.8305 97.0426 43.1834 88.9119C43.5103 88.7875 43.7994 88.5801 44.0222 88.3102C45.2755 86.9229 46.0841 85.1971 46.8517 83.5087C47.7626 81.3349 48.5913 79.1271 49.3939 76.9112C51.9194 70.0616 53.5708 62.9202 54.3091 55.6565C54.7861 51.5434 54.6727 47.3508 53.5879 43.3389C52.6826 39.6122 50.8557 35.9907 47.6696 33.7231C45.9023 32.417 43.73 31.8745 41.6134 31.4325C39.5666 31.0013 37.5168 30.5758 35.4481 30.2636C33.7196 30.0194 31.9552 29.8676 30.2245 30.173C28.3911 30.514 26.6633 31.2814 25.1805 32.4133C22.6987 34.5051 20.8244 37.2263 19.7538 40.292C19.1104 42.0587 18.6816 43.8965 18.4768 45.7657C18.1844 47.7293 18.1131 49.7196 18.2642 51.699C18.6419 55.6263 20.2295 59.3143 21.8367 62.8759C23.829 67.1333 26.3478 71.1231 29.334 74.7517C32.9698 78.9942 37.0848 82.7939 41.1285 86.6429C41.0531 87.1977 41.1284 87.7626 41.3463 88.2782C41.4679 88.5177 41.6573 88.716 41.8908 88.8485C42.1243 88.981 42.3916 89.0417 42.6593 89.023C42.1054 95.0995 41.5784 101.181 41.1666 107.269C40.3685 103.777 39.1133 100.405 37.4336 97.2421C34.9179 92.3103 31.1709 88.1118 26.8968 84.6335C24.8881 83.0604 22.9385 81.3595 20.6723 80.1626C18.0912 78.9072 15.3054 78.1271 12.4482 77.8597C10.0881 77.5469 7.58364 77.8008 5.52614 79.0737C2.29107 80.8453 -0.475903 83.9533 0.0688866 87.8792C0.333228 91.039 1.93161 93.8231 3.89746 96.2349C6.17145 99.2526 8.95888 101.831 11.8717 104.219C16.5407 108.064 21.6252 111.374 26.7954 114.498C28.5702 115.524 30.4494 116.357 32.401 116.983C35.0712 117.728 37.8246 118.115 40.5562 118.57C40.2751 124.845 40.4528 131.134 40.1504 137.407C39.3581 137.336 38.562 137.317 37.7672 137.352C36.928 137.42 36.1005 137.593 35.3041 137.866C34.6482 138.038 33.9724 138.123 33.2944 138.118C32.1924 138.151 31.1166 138.463 30.1669 139.023C29.6395 139.226 29.0744 139.312 28.5106 139.276C27.0117 138.86 24.732 138.188 23.0192 139.01C21.3874 139.96 19.9519 141.23 18.4171 142.329C20.0663 141.536 21.6457 140.576 23.3347 139.875C24.9091 139.506 26.312 140.202 27.3055 140.667C28.3832 141.195 29.6187 141.301 30.7708 140.966C31.8735 140.556 32.0348 140.468 32.6925 140.453C33.6695 140.434 34.6501 140.529 35.6192 140.348C35.8595 140.32 36.9252 140.1 37.1785 140.036C38.1151 139.979 39.0551 140.025 39.9819 140.172C39.973 140.292 39.9681 140.412 39.9587 140.532C39.9885 140.416 40.0127 140.298 40.0418 140.182C40.4376 140.249 40.8961 140.333 41.7669 140.416C42.8961 140.587 44.0176 140.325 45.1463 140.299C46.6923 140.303 47.1028 140.489 49.1131 140.86C52.2537 141.43 55.3498 142.244 58.5114 142.692C61.0976 143.048 63.7123 143.012 66.3165 142.982C66.4915 142.979 66.6665 142.975 66.8416 142.973C66.7926 142.962 66.7438 142.952 66.6947 142.941C63.8902 142.33 61.0581 141.82 58.3175 140.951C55.4272 140.016 52.5694 138.976 49.6186 138.24C48.1807 137.853 46.7247 137.449 45.2278 137.406C44.2266 137.375 43.2361 137.588 42.2355 137.551C41.71 137.529 41.1844 137.487 40.6588 137.445C41.6269 132.727 42.1365 127.925 42.6819 123.14C42.8561 121.727 43.0084 120.312 43.1388 118.895C44.353 120.16 46.5156 120.693 48.4887 120.631C50.8108 120.692 52.9979 119.895 55.0473 118.871C57.903 117.427 60.573 115.641 62.9989 113.552C66.8117 110.468 70.0147 106.698 72.4429 102.436C73.5684 100.48 74.5618 98.4513 75.4162 96.3629C76.0881 94.4419 76.6064 92.4705 76.9663 90.4673C77.8265 86.3206 77.9871 82.0591 77.4414 77.8593ZM40.5793 117.976C40.5714 118.135 40.568 118.294 40.5608 118.453C37.9781 117.519 34.9898 116.538 33.0097 115.657C31.1959 114.781 29.4686 113.735 27.8507 112.534C21.8767 107.886 16.4774 104.318 11.3498 99.7822C9.48279 98.1439 7.77141 96.3359 6.23764 94.3815C5.37842 93.2238 4.47014 92.0863 3.86071 90.7715C3.41215 89.7618 3.10647 88.6945 2.9525 87.6003C2.94189 87.389 2.9032 86.7556 2.92423 86.3567C2.93272 86.3163 2.95027 86.2196 2.97584 86.0706C3.28533 83.679 6.09215 81.7497 8.21323 80.8717C9.78306 80.3161 11.3768 80.5044 13.7289 80.7814C15.5202 81.1204 17.2686 81.6564 18.9423 82.3796C21.5834 83.7691 22.5892 84.791 24.5941 86.3546C28.5469 89.6218 31.329 92.5612 33.6607 96.4036C36.2395 100.781 37.3816 103.9 38.4759 108.991C38.6362 109.784 38.7609 110.584 38.8731 111.385C38.883 111.434 38.8902 111.483 38.8948 111.532C38.9023 111.587 38.9116 111.642 38.919 111.697C38.9109 111.653 38.9057 111.622 38.8998 111.588C38.9048 111.644 38.9093 111.705 38.9111 111.775C38.8866 112.649 38.9733 112.252 38.7945 112.822C38.7238 112.82 38.6535 112.811 38.5829 112.804C38.5355 112.793 38.478 112.78 38.4036 112.761C35.5642 111.799 30.7307 105.945 26.8104 102.372C21.6154 97.5647 15.8706 93.3789 10.8698 88.3582C14.2042 93.7111 20.1917 99.5826 24.9545 104.639C27.8636 107.432 36.2628 118.597 40.6959 115.417C40.6552 116.27 40.6137 117.123 40.5793 117.976ZM38.0116 45.7285C37.4138 44.4269 36.6839 43.1902 35.8334 42.0379C35.9978 42.3665 36.1616 42.6963 36.3061 43.0344C37.5144 45.9382 38.2586 49.1995 38.8934 52.3392C40.4913 59.9061 41.4401 65.8196 41.6363 73.2973C41.7042 76.601 41.578 79.9068 41.3913 83.2051C41.3257 84.2183 41.2474 85.2305 41.1565 86.2418C41.1545 86.2686 41.1526 86.2958 41.1506 86.3227C37.8509 81.9493 34.6905 78.1137 31.6553 73.8954C28.43 69.3104 25.6645 64.4181 23.399 59.2894C22.9547 58.1942 21.614 54.9644 21.2022 52.6134C21.1731 52.4534 21.121 52.1222 21.0933 51.9503C20.9035 50.2759 20.8989 48.5857 21.0797 46.9103C21.2174 44.9161 21.6215 42.9492 22.2811 41.0624C23.5997 37.2547 26.4926 33.4537 30.4941 32.7151C32.7695 32.278 35.83 32.8378 39.0618 33.5048C40.8168 33.8094 42.5465 34.2455 44.2362 34.8095C44.6323 34.9606 45.0138 35.1474 45.376 35.3677C45.7699 35.5844 46.1405 35.841 46.4819 36.1335C49.1696 38.595 49.9019 40.371 50.9301 44.0357C51.7258 47.2234 51.9116 49.0716 51.7804 52.6734C51.3386 60.76 49.4613 68.8182 46.3963 77.1547C45.6325 79.2324 44.8461 81.3508 44.0445 83.1339C44.4494 77.3978 44.5664 71.6247 43.8913 65.9063C42.8837 58.9382 40.9045 52.1461 38.0116 45.7285ZM73.8236 90.2315C73.108 93.3597 72.6781 95.0121 71.5131 97.295C70.7327 98.9455 68.8528 102.129 68.6332 102.44C68.1658 103.164 67.6722 103.869 67.1591 104.561C62.9793 109.94 56.7635 114.714 52.1452 116.643C50.3385 117.435 48.3382 117.676 46.3955 117.334C45.639 117.091 46.0164 117.31 45.212 116.781C45.1722 116.746 45.1374 116.714 45.1082 116.686C45.1034 116.519 45.1069 116.353 45.1188 116.186C45.1342 116.085 45.1555 115.985 45.1826 115.887L45.1836 115.884C45.2057 115.844 45.2327 115.807 45.2578 115.768C45.8836 115.071 45.722 115.28 46.8933 114.638C52.2107 111.967 56.4526 107.655 60.195 103.103C63.3684 99.3631 66.073 95.1862 67.7444 90.5538C68.6 87.8254 69.287 85.0469 69.8013 82.234C70.2762 79.54 70.5357 76.8124 70.5774 74.077C70.549 74.2154 70.5198 74.3536 70.4909 74.4919C69.9257 77.273 69.1932 80.0174 68.2971 82.7101C67.4227 85.2202 66.3442 88.2868 65.5934 89.9284C64.0323 93.0109 62.1646 95.928 60.0186 98.6353C58.2396 100.934 53.6181 106.358 50.1747 109.054C48.9294 110.062 47.5929 110.952 46.1827 111.711C45.59 112.024 44.9598 112.342 44.3796 112.719C47.7077 109 50.9491 105.184 53.6105 100.95C56.8832 95.8498 59.3921 90.306 61.467 84.622C62.9638 80.5235 64.0543 76.2939 65.4386 72.1582C66.1559 70.152 66.3223 69.1932 67.1613 67.7995L67.1882 67.7663C67.4247 67.5045 67.6827 67.263 67.9594 67.0443C69.4405 66.05 70.9879 67.142 72.6213 70.5804C72.9885 71.2651 73.9368 74.3722 74.2532 76.3261C74.2745 76.5269 74.4014 77.3087 74.4584 77.6379C74.9848 81.8406 74.7699 86.1032 73.8236 90.2315V90.2315Z" fill="#3B373A"/>
</g>
<defs>
<clipPath id="clip0_1775_2125">
<rect width="275" height="143" fill="white"/>
</clipPath>
</defs>
</svg>
