<?xml version="1.0" encoding="utf-8"?>
<!-- Generator: Adobe Adobe Illustrator 24.2.0, SVG Export Plug-In . SVG Version: 6.00 Build 0)  -->
<svg version="1.1" id="Layer_1" xmlns="http://www.w3.org/2000/svg" xmlns:xlink="http://www.w3.org/1999/xlink" x="0px" y="0px"
	 width="1000px" height="1195px" viewBox="0 0 1000 1195" style="enable-background:new 0 0 1000 1195;" xml:space="preserve">
<style type="text/css">
	.st0{fill:none;stroke:#3B373A;stroke-miterlimit:10;}
</style>
<path class="st0" d="M827.1,496.2l1.8-0.4l3.2-1.5l1.8-0.4l1.4,0.7l2.8,3.3l1.5,1.2l3.9-2.2l3.9-3.9l1.5-0.8l1.9-1.9l1.3-0.5
	l1.6-0.1l1.4,0.3l2.5,1.2l1.2-0.4l1.5,0.4l1.6,0.5l1.5,0.3l4.3-0.2l1.4,0.2l4.3,1.4l1.5,0.1l1.4,0.3l2.8,1.3l1.6,0.2l0.9-0.4
	l1.8-1.5l0.7-0.4l4.2-0.2l4.9-1.5l1.5-0.1l1.4,0.1l4.4,1.2h2.4l7.7-2.7l2.9-0.4l8.6,0.8l2.8-0.4l2.3-0.8l1.3-0.4l0.5-0.5l0.4-0.7
	l0.1-0.7l0.3-0.8l0.8-0.2h0.9l0.8-0.1l0.7-0.6l1.2-1.3l0.8-0.4h0.6l1.2,0.3l4.7,0.4l10.5,2.5l2,1.2l1.8,1.8l1.8,1.4l2.8,0.2
	l-1.8,1.3l-0.7,0.8l-0.3,1v2.6l2.5,3.9l1.7,1.2l0.5,1.4l0.2,1.5l-0.3,1.2l-0.8,0.7l-2.4,1l-1,0.6l-3.2,3.5l-0.6,1l-4,3.8l-1.6,2.5
	l-1.1,2.7l-0.5,2.9v3.1l0.7,3.9l0.2,1.4l1.2,1.3l0.2,0.3l-0.2,0.8l-0.4,0.5l-0.8,1l-0.8,2.4l-0.4,0.4l-0.8,0.2l-0.7,0.5l-1.2,1.4
	l-0.6,0.4l-2,0.7l-0.3,0.3l-0.7,0.8l-0.7,0.4l-1-0.1l-2.5,2.1l-1.7,2.7l-0.6,2.8l0.6,2.6l0.7,1.1l0.4,1l0.2,1.2l0.1,1.6l-0.1,0.6
	l-0.6,1.6l-0.2,0.8v0.8l0.2,1.3l0.2,0.7l0.4,0.6l1.3,1.4l0.2,0.5l-0.1,0.7l-0.7,0.8l-0.1,0.4l0.1,3l-0.1,1.3l-0.9,2.6l-0.4,2.6
	l-0.1,1.5l0.1,0.5l0.8,1.6v0.9l-0.3,0.8l0.3,0.6l-0.4,1.3l-0.2,3l-0.5,1.1l-0.7,1.1l-0.3,1.4l-0.2,3.8l-0.5,1.8l0.1,2.1l-0.1,0.7
	l-0.3,0.5l-0.5,0.3l-0.4,0.5l-0.1,0.9l0.2,0.8l0.5,0.6l1.1,1v-0.5l1.3,0.9l0.5,0.9l0.5,2.3l0.3,0.3l0.8,0.3l0.3,0.4v0.6l-0.4,0.9
	l-0.1,0.5l0.3,0.9l0.9,1.5l0.2,0.9l-0.2,0.8l-1.2,2.2l-0.3,2.5l0.4,2.3l0.6,2.1l0.3,2.1l0.5,1.3l1.3,1l1.3,1.3l0.5,2.2l0.8,0.8
	l0.4,1.2l-0.2,1.2l0,0"/>
<path class="st0" d="M657,436.4l5.5,1.3l2.2,0.2l1.1-0.2l0.7-0.4l0.7-0.6l0.8-0.5h0.8l0.7,0.1l0.4-0.2l-0.2-1.2l2-0.1l1.6-0.3
	l1.5-0.1l2,0.5l-0.3-1.1l0.4-0.5l0.9-0.1l2.3,0.1l0.5,0.4l0.4,0.5l0.8,0.6h0.4l0.5-0.1l0.9-0.6l0.6-0.1l0.3,0.3l0.4,0.6l1.3,0.1
	l0.1-0.2l1.2-0.3l1.5,0.4l1.3,1.1l0.8-0.3l1.8-0.8l1-0.2l1.1,0.1l2.2,0.6l1.1,0.1l2.8-0.5l1,0.1l0.6,0.4l0.2,1.7l0.3,0.7l0.9,0.4
	h3.3l0.8,0.4l0.5,0.5l0.7,0.1l1.2-0.3l0.8-0.6l0.6-0.7l0.6-0.4l4.8,0.6l3.6-0.5l3.4-1.2l2.8-2.1l0.7-0.9l0.3-0.7l0.6-0.3l1.4-0.1
	l2.5-0.8l3-0.3l4-0.9l2-0.1l0.4,0.3l1,0.8l0.6,0.2l2.3,0.5h1.1l1.9-0.6l1.1-0.2l0.5,0.4l3.4,4.4l0.6,0.4l1.1,0.2l0.7,0.1l1.6-0.3
	l0.6,0.1l0.3,0.2l0.6,0.8l1,0.3l7,3.4l2.1,0.1l3.8-2.2l2.5-0.6l2.5-0.1l1.9,0.5l2.2,1.9l21.5,27.3l5.1,6.5l17.3,21.8h0.7l0,0"/>
<path class="st0" d="M463.8,159.3l-0.6-0.9l-0.2-1.1l0.4-0.5l1.7,0.9l5.1,1.7l6.5,2.7l5,1.7l3.3,0.8l3.4,0.5l4.6,0.4l4.5-0.2
	l2.6-0.4l-1,0.8l-3.3,0.6l-6.5-0.2l-1.5-0.3h-0.7l-0.8,0.3l-0.2,0.6l0.1,0.8v0.7l-0.6,0.3l-0.3,0.9l0.8,2l1.6,3.2l-1-0.6l-1-1
	l-0.9-0.7l-0.7,0.8l-0.5-0.6H482l-1-0.5l-0.5,0.3l-0.5,1.1l-0.4,1.4l-0.2,0.9v2.1l0.1,1l0.4,0.5l0.9-0.3l0.4-1.1l0.3-1.2l0.7-0.8
	v0.8l0.2,0.4l0.5,0.3h0.7l-0.1,0.7l0.1,2.6l1,0.4h1.1l0.8-0.6l0.3-1.2l-0.7,0.4l-0.6-0.1l-0.4-0.7l-0.2-1l0.3-0.9l0.5-0.7l0.4-0.5
	l-0.2-0.8l1.3,0.3l0.9,0.9l0.4,1.3l0.3,3.3l0.6,0.8l1,0.2l2.7-0.2l0.5-0.1l0.6-0.3l1.3-1.3l0.3-0.2l0.1-0.6l2-3.6V175v-1.9l0.7-1.5
	l0.4-0.9l0.9-1.1l0.2-0.4l0.5-2.6l0.7-1.5l4.2-6.2l0.2-0.5l-0.2-0.8l-1-1.2l-0.2-0.6V155l0.4-1.1l0.1-0.7l-0.2-0.7l-0.6-1.2
	l-0.2-0.7l0.2-0.2l0.6-0.6l0.1-0.8l-0.4-0.4l0.1-0.8l0.4-0.6l0.9-1.3l0.9-0.9v-0.7l0.9-1.7h1.1l0.8,0.2l0.5-0.4l-0.1-1.6h0.5
	l0.1,0.4l0.4,1l0.7-1l0.1-0.4l0.5,0.4h0.5v-1.4l0.6,0.6l0.5,1l0.8,0.3l0.6-0.3l0.6-1.2l0.6,0.6h0.5l0.1-0.5l0.3-0.2l0.9-0.3l1.7,0.2
	l1.3,0.5l1.1,0.8l1.2,1.1l0.5,0.2l3.1,0.7l2.2,1.3l2.6,0.8l8.1,0.6l7.6-0.6h1.8l0,0"/>
<path class="st0" d="M435.1,185.9l0.2-0.9l0.4-0.7l0.4,0.1l0.4-0.5l1.5-1.4l-0.5-1v-0.9l0.5-1.1l-0.2-1.7l-0.3-0.5l0.9-1.1l0.7-0.3
	h0.8l0.8-0.2l0.7-0.3l4.3-2.8l2.5-0.7l1.4-0.8l0.9-1l-0.1-1.1l0.3-0.7l0.3-1.6l0.3-0.6l0.7-0.4l0.9-0.4l1.2-0.1l1.3-0.5l0.9-1
	l1.6-1.3l0.1-1.2h1.9l2.3-0.2l1.1-0.9l-0.1-1.7l0.6,0.9"/>
<path class="st0" d="M549.3,145.4h11l7.4-1.2l0.6-0.4l0.5-0.6l2-1.5l1.7-1l0.9-0.9l0.8-1.6l0.3-0.2l0.8-0.3l0.6-0.5l0.9-1.4l0.8-0.6
	l2.2-1l3.8-3.7l8.2-4.3l11.7-9.7l1.2-0.7l2.5-0.9l4.1-0.8l1-0.5l2.1-1.5l1.3,0.4l1.5-0.7l1.4-1.1l1.6-0.5l4-0.1l1.2-0.4l1.1-0.6
	l1.7-1.4l2.2-0.6l2.9-2.1l3.6-1.4l0.8-1.1l1.2-1.3l0.3-0.7l0.1-0.6l0.9-2.4l2.4-3.8l0.7-2.3l1.5-2l0.4-0.9l0.1-1.3l-0.2-3.9
	l-0.3-1.4l-0.4-0.5l-0.6-0.6l-0.6-0.3h-0.3l0.2-0.9l0.6-0.6l1.5-0.9l2.1,0.8l6.9-1.3l2.4,0.6l-0.3,1.3l-2.8,2.9l1,0.5l1.1,1.8
	l1.1,0.5l2-0.9l0.4-0.2l0.2-0.9l0.4-0.8l0.6-0.6l0.6-0.4h0.9l0.9,0.1l0.7-0.1l0.3-0.7l-0.3-0.7l-0.4-0.6l-0.3-0.6l0.5-0.7l-0.7-0.5
	l-0.7-1l-0.9-0.3l-0.9-0.1l-0.8,0.1l-0.7,0.4l-0.4,0.5h-0.4l-0.5-0.9l3.1-2.2l2.5-2.1l0.4-1.2l0.3-0.2l1.2,0.1l0.3-0.1l1-0.8
	l0.6-0.1l0.8,0.4l-1.2,0.6l-0.9,0.8l-0.2,1l0.9,1l0.8,0.3l1-0.3v-0.9l0.2-0.1h1.2l1.3-0.7l0.8-0.6l0.4-0.8l0.3-1.2l-0.8-0.4l0.3-0.6
	l0.4-0.4l0.6-0.3l1.3-0.2l-0.4,1.2l0.4,0.6l0.6,0.5l0.3,1h0.4l0.5-0.7l0.1-0.5l-0.8-0.4l0.4-0.3l1.6-0.9l0.9-0.3l0.9-0.4l0.7-0.8
	l-0.9,0.1l-1.7,0.9l-0.7-0.3l0.1-0.5l0.6-0.6l0.7-0.5h-0.8l-0.7,0.2l-0.5,0.3l-0.4,0.4l0.3-1.5l-0.6,0.2l-1.8,1.6l-0.6,0.7l-0.4-0.5
	l0.7-1.2l1-1.1l1.2-0.7l1.4-0.3l1.4,0.2l2,1l1.5,0.3h4.8l1.4,0.2l1.4,0.7l2.1,1.4l0.9,0.9l0.4,0.3l0.9,0.2h2.4l0.6,0.2l1.4,1.1
	l1.3,0.5l3.1,0.6l2.3,1.1l1.3,1l1.3,2.1l0.2,1.3l4.1,7l0.5,1.8l2.5,3.8l0.4,1.4l-0.4,1.5l-0.8,1.5l-0.8,1l-1.8,1.4l-4.7,2.6
	l-1.3,1.5l-1,0.5l-1.1,0.4l-0.9,0.2l-0.3,0.6l-1.4,3.7l-0.3,0.5h-2l-1.2,0.7l-2.3,1.9l-2.7,1.2l-9.6,2.5l-25.4,6.7l-1.3,0.8
	l-1.2,1.7l-12.7,23.8l-4,7.6l-0.7,0.8l-1.2,0.4l-2.5-0.7l-1.3-0.1l-1.3,0.2l-3.8,1.4l-2.9,0.2l-1.4,0.2l-1.2,0.8l-0.3,0.6l-0.1,1.3
	l-0.2,0.7l-0.5,0.7l-1.2,1.4l-0.6,0.7l-2.3,5.8l-1.2,1.7l-1.3,1.2l-2.9,2l-1.8,2.1l-1.5,3l-3.3,9.3l-1.8,3l-4.1,4.8l-1.3,3.6
	l-0.9,1.3l-1.1,1.1l-1.1,1.4l-0.4,1.4l-0.1,0.3l0,0"/>
<path class="st0" d="M593,203.5L593,203.5v1v1.3l-1.3,15l-3.5,12l-0.1,2.7l-0.5,2.6l-0.1,1.4l0.5,1.8l0.6,1.3l0.2,1.2l-0.5,1.8
	l-2.1,4.3l-3.7,5.8l-1.7,4.6l-0.7,1.3l-1.1,1.1l-2.7,1.7l-1,0.9l-1.2,3l-5.4,8l-2.3,5.8l-0.9,1.4l-1.2,1.2l-2.4,1.7l-0.8,1.3
	l-0.1,1.5l0.9,0.5h1"/>
<path class="st0" d="M562.9,289.7l7.4-0.2l2.8-0.3l2.4-1.2l2.3-2.2l1.2-0.8l1.7-0.5l1.5-0.9l2.9-2.7l1.6-0.1l0.4,0.6l0.8,2.4
	l-0.3,0.9l0.3,0.6l0.8,0.9l0.2,1.7l-0.1,2.8l0.3,1.5l1.2,1.7l1.3,0.3l1.4-0.5l2.3-1.5l0.5-0.3l0.8-0.3l0.8,0.1l0.6,0.2h0.5l0.5-0.6
	l1.3,1.2l1.1,0.7l0.3,0.8l-0.9,1.6l1.1,1.3l4.2,16.1l3,11.7l1.4,2.3l6.5,7.1l6.9,7.4l0.8,0.7l1.3,0.4l0.6,0.4l0.8,0.8l0.7,1l0.4,1.2
	l0.2,1.1l-0.1,1.1l-0.6,2.2l-0.1,1.1l0.4,1.6l2.2,4.2l1.5,4.6l0.1,2.6l-1.1,1.6h-1.1l-1.5-0.3l-1.2,0.2l-0.7,1.2l-0.3,1.3l-0.6,1.1
	l-0.8,0.9l-1,0.9l-1.4,0.6l-0.6,0.4l-0.3,0.8l0.3,0.6l1.4,1.7l0.5,0.7l0.3,1.2l0.2,2.9l-0.2,1.2l-1.3,4.2l-0.6,7.1l0.2,1.4l0.9,2.6
	l0.2,1.3l-0.3,1.5l-0.5,1.4l-0.5,1.4l0.3,1.6l1.8,3l2.5,1.8l2.9,1l3.3,0.6l5.5-0.1l2.3,0.6l2.3,3l0.4,0.3l0.1,0.3l-0.6,2.8l-0.1,0.6
	l0.2,2l0.5,1.9l0.7,2l3.7,7.1l1.2,1.4l0.8,0.5l1.8,0.8l0.9,0.6l1.6,1.3l0.8,0.4l0,0l-1-0.8l1.7,0.6l0.2,0.2l2.5,0.8"/>
<path class="st0" d="M356.2,310.1l-0.4-0.3l1.1-1v-0.4l-0.5-0.8l0.6-0.5l4.1-1.1l1.6-0.9l1.2-0.1l0.6-0.5l0.3-0.6l0.7-0.9l2.4-1.8
	l0.6-0.7l-0.6-2.4l0.7-2l1.3-1.5l2.2-2l0.7-0.8l0.4-1l0.7-5.7l0.5-1h0.4l1.9-0.8l1.1-0.4l0.3-0.8v-1.2l0.1-1.2l0.3-0.6l0.7-0.8
	l0.7-0.5l0.6-0.3l2.7-0.8l2.1-0.7l1.9-1.1l1.6-1.3l0.2-1.7l0.5-1l1.5,0.2l0.7,0.7l2.2-0.1l2.4-0.5l1.6-0.6l1,0.5l0.4,0.5v0.9l-1-0.4
	l-1-0.2l-0.9,0.3l-0.8,0.7l0.9,0.5l0.4-0.1l0.6-0.4l0.8,0.8v0.6l2.1-1.4l1.3-0.7l1.5-0.2l1.5,0.2l1.3,0.4l0,0"/>
<path class="st0" d="M321.1,357.5l-0.3-1.3l-0.5-1.1l-0.8-3.3v-0.2l0.6,0.1l0.4-0.9l0.5,0.1l0.4,0.6v1.2H321l-0.5-0.5v1.7l0.5,1.2
	l0.8,0.5l1-0.6v1.4l0.9-1l0.3,0.7l-0.6,1.1l-0.1,1.1l-1.4-0.5l0.4,2.4l1.7,1l1.5-0.2l0.1-1.3h4.2L329,361l-0.2,0.7v0.8h0.5l0.9-0.5
	v0.5l-2.3,0.9v0.4l1,0.3l0.5,0.6l-0.1,0.6l-0.7-0.6l-1.1,0.1l0.5,0.6l1.3,0.9l0.5,0.8l-1.7-0.8l-1.8-0.5l-1.6,0.2l-1,1.1v0.3
	l0.5,0.1l-1.3,3.9l1.8,2.4l3.6,1.1l4.2,0.1l0.8-0.1l0.8-0.3l0.7-0.4l0.5-0.6l0.2-0.6l-0.2-1.5l0.1-0.5l0.6-0.7l0.2-0.6l0.4-4.2
	l-0.1-1.9l-0.8-1.6l-0.3,0.9l0.3,0.9h-0.4l-0.4-1.1l-0.2-1.5v-1.6l0.7-2.3l-0.2-1.4l-0.9-2.3l-0.4-2.2v-9.5l-0.3-1.2l-0.9-0.6
	l-0.9-0.4l-0.4-0.9l-0.3-1.2l-0.4-1.2l-1.4-1.4l-2.1-1.5l-2.4-1.1l-2-0.3v0.6l-0.8-0.8l1.1-1.7l1.7-2l0.8-1.4l6.7-2.1l1.6-0.1
	l6.6-1.9l0.8-0.5l0.4-0.5l0.1-1.6l0.3-0.6l0.6-0.4v-0.4h-0.5v-0.5l1.3-0.2l4.5-1.7l0.9-0.7l3-3l3.5-2.4l0.4-0.4"/>
<path class="st0" d="M294,695.8l-0.5-0.3l-0.9-1.4l-0.2-0.5l-0.2-0.9L292,692l-0.7-0.8l-1-1.7l-0.3-0.2l-2.8-2.7l-0.8-0.8l0.1-1.3
	l0.5-0.8l0.7-0.8l0.8-0.4l0.7,0.1l1.1-0.3l1-0.1l0.3-0.2l1.3-1.2l1.5,2.8l1,1.1l1.7,0.7l-0.4-0.8l-2.2-2.7l-0.6-0.9l-0.1-1.2l0.3-1
	l0.7-0.8l0.2,0.5l0.5,0.7l0.4,0.3l0.2-0.3l-0.1-0.5l-0.8-1.1l0.4-1.4l0.6-1.2l0.4-1.1l-0.5-1.4h1.4l-0.4,0.6v1l0.1,0.5h0.5l0.6-0.4
	h1.2l0.9,0.8l0.2-0.4l-0.2-0.5l-0.5-0.4l-0.6-0.3l0.9-0.5l-1.2-0.4h-0.6l0.3-0.7l0.2-0.1l0.9,0.3l0.2-1l-0.9-0.3l-1.4,0.1l-1.1,0.3
	l0.3-1.1l0.7-0.1l1.1,0.2l0.8-0.1l-1.1-0.7l0.9-0.5l0.3-0.3l-0.3-0.7l1.4-0.3l1.4-0.1v0.4l-0.3,0.6h0.6l2-0.6l-1-0.2l-0.2-0.5
	l0.3-0.6l1.2-1.4l0.4-0.9l0.7-1.9l0.7,0.5l0.6,0.2l0.5-0.3l0.7-0.6l0.8-0.3l1-0.3l0.4-0.3l-1-0.3l-0.9,0.1l-0.9,0.4l-0.7-0.1l-0.3-1
	l1.6-0.4l1.1-0.4l0.6-0.9l-1.2,0.2l-2.8,0.7l-0.9-0.4l-0.3-1.1l0.2-1.2l0.4-1l1.8,1.4l1,0.3l1.5,0.1l0.2-0.4l-0.5-0.3l-0.6-0.1
	l-1.3-0.1l-0.4-0.3l-0.4-0.6l1.1,0.1l1-0.1l0.7-0.5l0.5-0.8l-1.1-0.7l-0.6-0.8l0.1-0.9l1.1-0.9l0.8,0.7l0.1,0.5v0.7l1-1l-0.4-1.4
	l-0.2-1.2l3.1-1l0.8-1.2l0.7-1.2l1-0.9v-0.4l-4.2,0.9v-0.5l1-0.4h-1.7l-0.8-0.1l-0.7-0.4l0.2,2.9l-3.9,2.3l-4.8,0.8l-2.6-1.4
	l0.1-0.6l1-0.5l0.2-0.5L300,647l-1.2-0.6l-0.8-0.5l-0.5-0.2V645v-0.6l0.5-1l0.3-1.8l0.4-0.6l0.6-0.4l1-0.1l0.7,0.2v0.5l-0.8,0.8
	l3.2-0.6l1-0.3v-0.5l-2.3,0.5l0.3-0.9l0.5-0.7l1.8-2.2l1.1-2.3h-1.1l-0.3-0.9l-1,0.3l-0.8-0.6l-0.8-0.9l-1.1-0.7l0.3,0.7l0.1,0.7
	l-0.1,0.8l-0.3,0.6l-0.6-0.3l-0.5-0.1l-0.6,0.1l-0.6,0.3v0.5l0.2,0.4l-0.2,0.6l-0.3-0.3l-1-0.2l0.2,1.2l-0.2,1.9l-0.5,1.7l-0.7,0.7
	l-0.2,0.4l-0.3,1.9l-0.2,0.5l-1.1,0.1l-0.8-0.6l-0.3-0.9l0.4-0.9l-3.5-2.8l-0.4-0.5l-0.3-1.1l0.4-1l1.4-0.1l-0.7-1L290,635l-0.5-1.8
	l-0.3-2.1v-1.9l2.8-0.4l2.9-2.4l0.9-0.1l0.6,0.2l0.8,0.8l0.8,0.3l0.9-0.4l0.5-0.7l-0.1-1.2l0.3-0.2l1.1-1l0.7-0.9l0.5,1.1"/>
<path class="st0" d="M492.2,946.7l-0.2-1.4l-0.3-0.3h-0.9l-0.4-0.2l-0.6-0.9c0,0,0-0.1-0.1-0.1l-0.7-0.9c0-0.1-0.1-0.1-0.1-0.1
	l-0.7-0.6c0,0-0.1-0.1-0.2-0.1l-4-2.4c0,0,0,0-0.1,0l-1.7-1.2c-0.1,0-0.1-0.1-0.2-0.1l-2.6-2.8c-0.1-0.1-0.1-0.1-0.1-0.2l-1.8-3.1
	l-0.6-0.5l-0.8,0.1l-1.3,0.8H474l-1.7-1.6l-0.4-0.2l-1.6-0.1c-0.1,0-0.2,0-0.3,0l-1.2-0.4l-0.7-0.1l-1.2-0.4l0.4-0.7
	c0.1-0.1,0.2-0.3,0.3-0.3l1-0.7c0.4-0.3,0.6-0.9,0.3-1.4l-1.9-3.7c0-0.1-0.1-0.1-0.1-0.1l-0.9-1.2c-0.1-0.1-0.1-0.1-0.2-0.2
	l-1.3-1.1l-0.8,0.2l-1.7,2.6l-0.7,0.6l-0.7,0.1l-1-0.4c0,0-0.1,0-0.1,0l-2.1-0.5c-0.1,0-0.1,0-0.2-0.1l-1.3-0.5
	c-0.1,0-0.2-0.1-0.3-0.2l-0.7-0.5c-0.1,0-0.1-0.1-0.1-0.1l-2.6-2.9l-0.4-0.4l-0.6-0.1l-1.2-0.1l-0.6-0.2l-0.7-0.6
	c-0.1-0.1-0.1-0.1-0.2-0.2l-2.4-3.5c-0.1-0.1-0.1-0.2-0.2-0.2l-1.1-0.8c-0.1,0-0.1-0.1-0.2-0.1l-1.2-0.6c-0.1,0-0.1-0.1-0.2-0.1
	l-2.8-0.7c-0.1,0-0.1,0-0.2,0l-1.1-0.1c-0.1,0-0.2,0-0.3,0L438,911l-0.7,0.7l-0.2,1.3l-0.3,0.8l-0.8,0.9c0,0-0.1,0.1-0.1,0.1
	l-0.8,0.6c-0.1,0.1-0.2,0.1-0.3,0.2l-0.8,0.3l-1.2-0.7c0,0-0.1,0-0.1-0.1l-4.1-1.5c-0.1,0-0.1,0-0.2,0l-3.4-0.6
	c-0.2,0-0.3-0.1-0.5-0.2l-0.9-0.7c-0.1-0.1-0.2-0.1-0.3-0.2l-1.3-0.4c-0.1,0-0.2-0.1-0.2-0.1l-3.7-2.3c-0.1,0-0.1-0.1-0.2-0.1
	l-3-2.7c-0.1-0.1-0.2-0.2-0.4-0.2l-1-0.3l-0.7-0.4l-0.9-0.9l-0.8-0.8c-0.1-0.1-0.3-0.2-0.5-0.3l-0.9-0.3c-0.1,0-0.3,0-0.4,0
	l-0.9,0.1c-0.1,0-0.1,0-0.2,0l-2.7,0.7c-0.1,0-0.1,0-0.2,0l-1.4,0.1c0,0-0.1,0-0.1,0l-1.3-0.1c-0.1,0-0.1,0-0.2,0l-1.1-0.3
	c-0.1,0-0.1,0-0.2-0.1l-1-0.4c0,0,0,0-0.1,0l-1.8-0.9c0,0-0.1-0.1-0.1-0.1l-2.4-1.8c-0.1-0.1-0.2-0.2-0.3-0.4l-0.2-0.5
	c-0.1-0.2-0.2-0.3-0.4-0.4l-3.8-2.3c-0.1,0-0.1-0.1-0.2-0.1l-1.5-1.3c-0.1-0.1-0.1-0.1-0.2-0.2l-0.5-0.8c-0.1-0.1-0.1-0.2-0.1-0.3
	l-0.3-1.1l-0.4-0.8l-4.5-5.7l-0.2-0.8l-0.3-0.5c-0.2-0.4-0.6-0.6-1.1-0.5l-0.7,0.1c-0.1,0-0.1,0-0.2,0.1l-1.4,0.5
	c-0.1,0-0.2,0.1-0.4,0.1h-1l-0.4-0.5l-0.4-1.8l-0.4-0.7l-0.5-0.2l-0.8-0.1l-1.3,0.1c0,0-0.1,0-0.1,0l-1.5-0.1c-0.1,0-0.2,0-0.2,0
	l-1.3-0.4c0,0,0,0-0.1,0l-1.2-0.4c-0.1,0-0.2-0.1-0.3-0.1l-1.1-0.7c-0.1,0-0.1-0.1-0.2-0.2l-1.7-1.9l-0.7-0.3l-0.7,0.3l-1.9,1.3
	c-0.1,0.1-0.1,0.1-0.2,0.2l-1.4,1.7c-0.1,0.2-0.3,0.3-0.5,0.3l-0.9,0.3c-0.1,0-0.2,0-0.2,0l-1.4,0.1l-0.6-0.1v0.4l-0.1,4.9
	c0,0.1,0,0.1,0,0.2l0.6,3.7c0.1,0.4-0.1,0.8-0.5,1.1l-0.4,0.3c-0.1,0.1-0.3,0.2-0.5,0.2l-6.2,0.7c-0.1,0-0.3,0.1-0.4,0.1l-1.4,0.7
	c-0.1,0-0.2,0.1-0.3,0.1l-0.8,0.2l-1.1-0.4c-0.1,0-0.2-0.1-0.3-0.2l-1.7-1.5l-0.8-0.7c-0.1-0.1-0.2-0.2-0.4-0.2l-0.7-0.2
	c-0.1,0-0.1,0-0.2,0l-3.1-0.3c-0.1,0-0.1,0-0.2,0l-2.2-0.7l-0.8,0.3l0.1,2.7h-1l-2.4-1l-0.8-0.1l-4.7,0.7l-0.9-0.1
	c-0.1,0-0.1,0-0.2,0l-0.7-0.2c-0.1,0-0.2-0.1-0.3-0.2l-0.9-0.6c0,0-0.1-0.1-0.1-0.1l-1.4-1.4l-0.7-0.5l-1.1-0.4l-0.8-0.1l-2.5-0.1
	c-0.1,0-0.2,0-0.3-0.1l-1.6-0.6c-0.2-0.1-0.3-0.2-0.5-0.3l-2.2-2.4c-0.2-0.2-0.4-0.3-0.6-0.3l0,0"/>
<path class="st0" d="M827.9,992.2L827.9,992.2l0.2,3l-1.1,6.2v3.1l-1.2,4.6v1.3l-1,3.4l-6.6,36.7l-4,21.7l-3.9,21.7l-4,21.7l-2,10.8
	l-7.8,43.5l-4,21.7l-1.2,2.4l-1.8-3.8l-1.2-1.7l-1.4-1.6l-2-1.6l-6.8-3.5l-1.8-1.8l-0.7-2.2l-0.4-2.4l-0.8-2.4l-1.6-2.3l-2.2-2.3
	l-2.5-1.9l-2.6-0.9l-1.9,0.2l-1.5,0.9l-2.6,2.4l-1.7,0.8H756l-3.6-0.9l-0.7-0.5l-9.2-4.8l-2.9-0.3l18.1-28.3l10.5-16.5l5.3-8.2
	l10.6-16.5l1.5-2.4l-1.2-0.8l-0.5-0.8l-0.5-1l-0.8-3l-0.7-0.5l-1.4,0.9l-0.4,0.7l-0.3,0.7l-0.4,0.5l-0.5,0.2l-0.7-0.4l-0.1-0.6v-0.6
	l-0.2-0.7l-1.3-1.1l-1.1,0.4l-1.2,0.5l-1.2-0.5l-0.8-1.2l-0.9-2.8l-0.8-1.3l-1.5-0.7l-1.3,0.4l-1.4,0.8l-1.6,0.5l-0.8-0.7l-0.3-0.6
	v-0.6l0.3-0.3l1.1-0.5l0.4-0.2l0.3-1.4l-0.9-0.7l-1.4-0.1h-1.4l-0.8,0.2l-1.6,0.6l-0.7,0.1l-0.7-0.4l-0.4-0.6l-0.3-0.7l-0.4-0.7
	l-0.8-0.7l-1.2-0.6l-1.2-0.4l-1.2-0.1l-1-0.5l-0.8-1l-0.9-0.6l-1.2,0.8l-0.2,0.6v1.4l-0.5,0.3h-2.8l-0.4-0.4l-0.1-0.8v-0.9l-0.1-0.7
	l-0.4-0.8l-2.2-1.7l-0.2-0.1v-2l-0.2-0.5l-0.3-0.4l-1.8-0.2l-1.2-0.3l-2.5-0.9l-2.3-1.5l-3.5-3.7l-2-1.3l-1.4,0.7l-1.7-0.4l-2.9-1.2
	h-1.9l-0.7,0.9l0.2,1.6l0.6,1.7l-0.6,0.3l-0.8,0.1l-0.9-0.2l-1.7-1h-0.8l-1.9,0.3l-1.5,0.7l-1.3,3.2l-1.9,1l-1.3,1l-0.7,0.1
	l-0.7-0.2l-0.8-0.6l-0.8-0.2l-1,0.4l-1.4,0.8l-1.2,0.3l-0.5-1l-4.9,2.4l-2.2,0.5l-0.8-1.5l0.3-0.5l0.9-0.8l0.2-0.6l-0.3-0.7l-1.5-2
	l-1.2-2.1l-0.7-0.2l-0.9,0.9l-0.7,2.6l-0.5,0.7l-1.1-0.5l-0.5-1v-2.8l-0.4-1.3l-0.7-0.6l-3.9-0.8l-1.4-0.7l-1.2-1l-1.4-0.8l-1.5-0.2
	l-2.3,1.1l-1.3,0.2l-0.6-1.1l0.1-2.4l-0.5-0.4l-1.5,0.7l-3.9,2.5h-0.6l-0.4,0.7l-2.4,3.8l-3.2,2.4l-0.5,0.5l-0.3,1.5l-0.8,0.9
	l-1.2,0.3l-4.2-0.6h-2.2l-1.9,0.7l-1.8,1.6l-3,3.5l-1,0.3l-4.3-1h-0.7l-1.8,0.4l-0.3,0.3l0.1,1.3l-0.2,0.5l-0.6,0.2l-1.6,0.1
	l-2.7,0.8l-1.5,0.1l-1.2-0.3l-1.2-0.6l-0.9-0.8l-0.3-0.9l-0.6-0.5l-6.9-1.1l-1.3-0.4l-3-2.4l-1.2-0.7l-1.3-0.2l-0.8,1.1l-1.8,3.7
	l-0.8,0.8l-1.1,0.4l-0.4-0.2l-0.3-1.8l-0.2-0.6l-0.6-1.1l-0.8,0.4l-0.5,0.5l-0.4,0.6l-0.1,0.8l-1.8-1.2l-1.1-0.4l-1.7,0.8l-1.9,0.7
	l-0.8,0.8l-1,0.3l-2.8,0.6h-0.6l-0.6-0.5l-0.6-1.1l-1.1-3.1l-1-0.8l-0.2-0.4l-4.7-2.6l-0.1,0.7l-0.8,1.6l-0.9,0.8l-0.4-1.5l-0.6-0.6
	l-2.9-0.7l-1.1-0.7l-0.2-0.5l-0.3-2.1l-0.3-0.3l-0.9-0.7l-0.3-0.8l-0.7-1l-0.1-0.6l0.1-0.7l0.2-0.5l0.6-0.7l2.5-2.2l0.6-1.5l2-3.2
	l-0.9-0.9l-0.6-1.4l-0.3-1.5l-0.5-1.3l-1.2-1.7l-0.4-0.9l-0.3-1.1l0.1-0.9l0.7-1.7l0.2-0.6l-0.4-1.1l-1.6-1.9l-0.4-0.9l0.5-2.5
	l-0.4-0.8l-1.2-0.6l-0.7-0.5l-1.8-2H570l-0.2,1.8l-0.5,0.2l-2.2-0.6l-1,0.2l-1.1,1l-0.5,0.8l-0.7-0.1l-1.6-1.5l-0.9-0.5l-0.8-0.2
	l-0.7,0.1l-1-0.1h-1l-0.5-1.4l-4.3-2.6l-1.4-1.7l0.2-2.6l0.8-2.2l0.5-1.1l1.7-0.9v-1.3l-0.7-2.8l-0.1-1.6l-0.1-0.7l-0.5-0.7l-1.4-1
	l-0.8-1.2l-2.5-1.2l-0.6-1l1.1-1.3l0.3-0.7l-1.1-0.5l-0.7-1l-0.1-0.4l-0.1-1.5l-0.3-1l-0.3-0.1l-0.8,0.1h-0.3l-0.2-1.1l-0.5-1
	l-0.2-0.8l-0.4-0.6l-1.5-0.4l-1.3-1l-0.8-0.2l-1.5-0.3l-1.3-0.7l-0.9-1l-0.6-1.2l-1,0.4l-1.1,1.7l-1.1,0.6h-0.8l-1.1-0.2l-1.8-0.7
	l-0.9-0.6l-0.7-0.7l-1.2-1.9l-1-2.7l-0.4-0.6l-1.1-0.4l-2.1,0.5l-0.9-0.5l-0.1-0.6l0.6-1.1l-0.1-0.6l-0.5-0.5l-0.4,0.2l-0.4,0.7
	l-0.8,0.4l-0.3,0.3l-0.4,0.1l-0.8-0.3l-0.6-0.5l-0.3-0.6l-1.6-4.6l-0.7-0.8l-1.1,2l-1.8,0.1l-4.1-1.6l-4-0.7l-1.8-1l-1.5-2l-1-3
	l-0.6-0.9l-1.7-1.1l-0.4-0.7l0.4-0.7l0.9-0.2l1.1,0.2h0.9l0.4-0.8l-0.4-0.8l-0.7-0.7l-0.4-0.8l0.6-1.1l-0.6-0.2h-1.1l-0.7-0.2
	l-0.4-0.3l-2.3-2.6l-0.5-0.9l0.1-1.3l0.3-0.6l0.8-0.7l0.2-0.5l-3.2-7l-0.2-0.6"/>
<path class="st0" d="M797.2,792.6l2.4,1.3l0,0h-1l0.5,2.6v4.7l-0.2,36.3l1.5,0.2l2.8-1.8l1.7-0.5h0.9l0.9,0.2l0.5,0.4l0.1,1.4
	l0.8,0.2l6.4-1l1.6,0.1l2.9,1l0.7,0.1h2.2l2.1-0.3h0.7l0.6,0.3l0.8,0.9l1.3,0.8l0.7,0.1l3.2-2.3l1-0.3l1.1,0.2l3.4,1.8l0.9,0.6
	l1.2,1.5l1.1,0.7l0.5,0.5l0.2,0.6l0.1,0.8l0.2,0.7l1.4,0.9l-0.3,2.5l1,1l1.6,0.6l0.8,0.5l0.4,0.5v0.9l-0.5,0.4l-0.6,0.1l-0.4,0.2
	l-0.2,1.4l0.7,3v1.5l-0.5,0.8l-0.7,0.5l-0.4,0.6l0.2,0.9l0.5,0.5l1.5,0.7l0.5,0.5l0.7,1.5l0.2,1.2l-0.4,0.8l-1.2,0.4l-0.6-0.1
	l-1.3-0.4h-0.7l-0.5,0.3l-0.7,1l-0.5,0.3l-1.1,0.1l-2.5-0.4l-1.2,0.1l0.3-1.8l-0.6-0.8l-1.2,0.1l-1.5,0.4l-1.4,0.6l-0.4-0.2
	l-4.8-4.8l-1.2-0.9l-1.4-0.3l-1.7,0.2l-1.3,0.6l-2.2,1.4l-1.2,0.2l-1.4,0.5l-0.7,1.5l-0.9,1.1l-2.2-0.4l-1.9-0.9l-1,0.1l-2.6,2
	l-2.3,1.3l-2.5,0.9l-2.8,0.5l-4.6,0.3l-1.3,0.4l-1.3,0.2l-1.6-0.3H789l-1.4,0.7l-1.3,0.4l-1-1l-0.5,17.3l-0.2,7.4l-0.5,18.2
	l-0.1,5.1l0.4,2.4l0.8,1.4l2.6,3l3.4,3.1l1.5,2.2l0.7,0.6l1.3,0.5l2.7,0.6l1.1,0.8l0.4,0.6l0.7,1.5l0.5,0.7l0.6,0.4l1.6,0.8l0.7,0.5
	l2,2.1l1,0.9l5.4,2l1.1,0.6l1.2,1l0.8,1.2l0.6,1.3l0.3,1.5v2l0.1,0.7l0.4,0.7l0.8,1l0.2,0.9l-0.4,1.5l-2.1,3.2l-0.5,1.2l0.7,1.6
	l2.6,2.9l0.5,0.9l-0.2,1.7l0.2,0.7l0.6,1l0.4,0.4l1,0.6l0.4,0.7v0.8L820,970l-0.1,0.7l0.5,0.9l0.5,0.5l1.5,0.6l0.6,0.4l1.5,2.2
	l0.4,0.3l1,0.2l0.5,0.8l-0.1,0.2l0.3,2.5l-0.1,0.8l-0.5,1.4l0.1,0.8l2.5,4l0.7,2.1l-1.4,3.8"/>
<path class="st0" d="M941.2,637.4l1.2-0.5l0.5,0.2l0.5,1.6l0.3,4.2l0.3,1.5l2.7,4.6l0.6,1.7l0.4,3.3l0.4,1.6l1.2,1.4l1.3,0.7h1.3
	l1.2-0.2l1.4-0.1l2.5,1.2l1.9,2.5l4.6,11.8l0.9,1.4l1,0.6l2.5,1l2.2,2.4l-0.3,2.8l-1.7,2.8L964,689l-0.8,0.6l-0.7,0.2l-1.5,0.3
	l-0.8,0.4l-4.1,3.9l-21.9,20.2l-1.1,1.9v4.6l1-0.8l0.5-0.9l0.7-0.8l1.3-0.4l1.5,0.1l0.7-0.1l1.3-0.6l0.6,0.2l0.7,0.8l2.8,1.4
	l1.7,0.3l1.3-0.5l1.3-0.3l1.2,1l1,1.5l0.4,1.2l0.4,3.1l0.4,1.4l0.8,0.7h3l1.3,0.4l1,0.9l0.3,0.6l0.4,1.2l0.3,0.5l0.6,0.5l1.4,0.7
	l0.5,1l1.1,1.3l0.3,0.3l0.8,0.2l0.5,0.6l0.3,0.8l0.5,0.7l0.6,0.4l1.5,0.9l0.6,0.5l0.3,0.7l0.3,0.9l0.4,0.8l0.6,0.4l0.8,0.2l0.7,0.5
	l1.3,1.3l0.6,0.4l2.4,0.7l2.2,1.4l0.6,0.5l0.2,0.7v1.3l0.4,0.6l0.4,1.3L978,753l-1.3,1.2l-0.7,0.9v1.2l1.1,2.6l0.4,2.1l1.2,2.9
	l0.5,0.9l1,0.5l1.3,0.4l1,0.5l0.4,1.1l0.2,3.7l-0.2,1.1l-0.3,0.5l-1.1,1.4l0.2,0.9l0.5,0.7l0.5,0.5l0.5,0.9l1.2,0.9l0.3,0.5l0.2,0.7
	l1.2,2.3l5.8,15.3l0.2,1.5v3l0.2,1.3l0.7,1.5l1.4,2.3l0.7,1.5l0.2,1.5l-0.4,2.7l0.2,1l0.7,0.7l0.7,0.6l0.7,0.7l0.7,1.3l0.5,1.7
	l0.1,1.6l-1.2,2.5l0.3,1.6l1.4,2.9l-2.6,0.5l-10.2,2.8l-1.4-0.2l-0.5-1.7l-0.3-3.5l1.7-19.4l-0.7-4.2l-2.3-7.1l-2.6-5.3l-7.3-9.7
	l-1.6-2.9l-2.1-5.2l-1.4-2.5l-1.7-1.7l-1.1-0.5l-2.8-1l-1.1-0.1l-0.6,0.3l-1.1,1.2l-0.6,0.3l-2.4,0.3l-1.1,0.8l-1.9,1.5l-2.6,1.3
	l-5.1,5.4l-8.1,10.9l-2.1,1.9l-2.6,1.5l-2.2,0.8l-2.4,0.6h-2.4l-2.3-0.6l-2.2-1.9l-1.9-2.6l-1.3-2.9l-1.5-4.3l-0.7-1.3l-1-0.9
	l-1.5-0.6l-1.4-0.3l-0.5-0.2l-0.6-0.6l-0.1-0.5v-1.3l-0.3-0.4l-0.6,0.4l-4,10.1l-1.3,1.9l0.4,0.3l1.7,0.2l0.6,0.8l-0.1,1.5l0.1,1.2
	l2.5,0.1l0.6,0.4l0.2,0.5l-0.1,0.9l0.2,0.4l0.6,0.4l1.1,0.6l-56.2,0.1h-23.7l-2.8-0.4l-5.1-2.1l-4.8-1.1l-2.6,0.2l-4.6,2.1l-2.8,0.3
	l-1.4-0.3h-1.2l-1.2,0.3l-2.9,1.5l-1.2,0.3h-2.3l0,0l-2.4-1.3"/>
<path class="st0" d="M255.9,742.8l-0.1-0.7l-0.9-2.3c0-0.1,0-0.1,0-0.2l-0.3-1.3c0,0,0-0.1,0-0.1l-0.1-0.8c0-0.3-0.1-0.5-0.3-0.7
	l-1.7-1.8c-0.1-0.1-0.1-0.1-0.2-0.2l-6-3.9l0.7-0.5h1.6h1.3h0.8c0.2,0,0.4-0.1,0.6-0.2l1.7-1.1c0.2-0.1,0.4-0.2,0.7-0.2l0.6,0
	c0.2,0,0.5,0.1,0.6,0.3l0.6,0.5c0.1,0.1,0.2,0.2,0.2,0.3l0.6,1.1l0.5,0.7l0.7,0.2l1.3-0.4l-0.6,1.1c0,0,0,0.1,0,0.1l-0.5,1.1
	c-0.1,0.2-0.1,0.3-0.1,0.5l0,0.2c0,0.4,0.3,0.8,0.7,0.9l0.7,0.3l0.8,0.1l1.4,0.3l0.9,0.1l1.7-0.4l0.8-0.1l1.3-0.2
	c0.2,0,0.4-0.1,0.5-0.2l0.8-0.7c0.1-0.1,0.2-0.2,0.3-0.4l0.4-0.8c0.1-0.2,0.1-0.3,0.1-0.5V732l-0.4-0.8l-0.7-1.1
	c-0.1-0.1-0.1-0.1-0.2-0.2l-0.7-0.6c-0.1-0.1-0.3-0.2-0.4-0.2l-0.8-0.2v-0.4h1.4v-0.6l-0.9-0.1l-0.4-0.5v-0.6l0.3-0.6l-0.7-0.2
	l-0.2-0.4l0.1-0.6l0.4-0.6l-0.9-0.3v-1.1l1.2,0.5l0.9-0.4l0.7-0.6c0.1-0.1,0.2-0.1,0.3-0.2l0.7-0.3c0.1,0,0.1,0,0.2-0.1l0.9-0.2
	l0.4-0.3l-0.3-0.3l-0.5-0.1l-1.1,0.5h-0.6l-1-0.7l0.2-0.4l0.8-0.5l0.4-0.5l1.4,0.4c0.1,0,0.1,0,0.2,0l1.2,0.1l0.9-0.2l0.7,1l0.2,0.4
	h0.5l-0.5-1c-0.1-0.3-0.4-0.5-0.7-0.6l-1.9-0.5l0.7-1c0.1-0.1,0.2-0.2,0.3-0.3l0.8-0.5l1-0.1l0.9-0.2l0.8-0.9l1.2,0.5l0.3,0.4
	l0.3,0.5l0.1-0.7c0.1-0.5-0.2-1-0.7-1.2l-0.3-0.1c-0.2-0.1-0.3-0.1-0.5-0.1l-1.6,0.2c-0.1,0-0.3,0.1-0.4,0.1l-1.2,0.7l-0.3-0.8
	c-0.1-0.1-0.1-0.3-0.1-0.4V714c0-0.1,0-0.2,0-0.3l0.3-0.9c0.1-0.2,0.2-0.4,0.4-0.6l0.6-0.5l0.9,0.1l0.6,0.6l0.6,0.6l0.7,0.6l0.7,0.2
	l0.6-1c0.1-0.1,0.1-0.2,0.2-0.3l0.8-0.7v-1l-0.2-0.4l-1-0.2l-0.2-0.3v-0.4l0.3-0.2l0.4-0.9l0.5-0.2l-0.3-0.7l-0.4-0.2l-1.1-0.1
	l-0.3-0.6l-0.2,0.7l0.2,0.2l-0.7,0.5l-0.8,0.1l-0.6-0.2l-0.2-0.8l-1.7,1.5l-0.6,0.4l0.1-0.9l2.4-2.9c0,0,0,0,0-0.1l1.5-2.1
	c0,0,0.1-0.1,0.1-0.1l0.9-0.9c0,0,0,0,0.1-0.1l4.9-4.2c0.1-0.1,0.2-0.2,0.2-0.3l2-3.7l1-0.3l1.1,0.4l0.2-0.6l0.3-1.3l1,0.1l0.4-0.4
	l-0.3-0.7l-1.1-0.5l-0.9,0.3c-0.1,0-0.2,0.1-0.3,0.1l-1.4,0.2l-0.2-0.6l0.7-1c0-0.1,0.1-0.1,0.2-0.2l1.4-1.3c0,0,0.1-0.1,0.1-0.1
	l0.9-0.6c0.1,0,0.1-0.1,0.2-0.1l0.8-0.3c0.4-0.1,0.8-0.1,1.1,0.2l2.3,2.2l0.3,0.2l0.9,1.6c0,0.1,0.1,0.1,0.1,0.2l0.6,0.7l0.2,0.7
	l0.2,0.9l0.2,0.5 M294,695.8 M264.2,735.3l-2.2,0.1l-2-0.5l-1.2-0.6l0.5-0.4l-0.5-0.5l1.4-1.4v-0.8l-0.9-0.5l-1.2-0.1l-1-0.7
	l-0.5-1.4l0.3-1.2l0.9,0.1l1,0.6l2.5,3.3l1,0.8l2.3,1.3l1.1,0.9L264.2,735.3z M259.9,726.2l0.8,0.3l0.2-0.5l0.7-0.5l1.8,1.9l0.3,0.5
	l0.3,1.3l0.3,0.5l2.6,2l0.9,1l-0.3,1l-1.2,0.1l-1.7-0.9l-3-2.3l-1.9-2.4l-0.4-0.8l-0.2-0.8l-0.1-0.8l0.2-0.3L259.9,726.2z
	 M238.3,711.4l-1,0.3l-0.8-0.3v-0.7l1-0.1l0.4-1l0.3-1.3l0.5-0.7l1-0.8h0.5l-0.1,1l-0.1,1.8l-1,1.2L238.3,711.4z"/>
<path class="st0" d="M311.5,885l-0.9-0.2l-1.1,0.2c-0.1,0-0.1,0-0.2,0l-3.2,1.1c-0.1,0-0.2,0.1-0.3,0.1l-1.1,0.1c-0.1,0-0.2,0-0.4,0
	l-0.8-0.2c-0.1,0-0.1,0-0.2-0.1l-0.9-0.4c0,0,0,0-0.1,0l-1.1-0.4c-0.1,0-0.1,0-0.2-0.1l-7-1.4c-0.1,0-0.1,0-0.2-0.1l-2.1-0.8
	c-0.1,0-0.2-0.1-0.3-0.2l-1.4-1.1c-0.1-0.1-0.3-0.3-0.3-0.4l-0.5-1.3c0-0.1-0.1-0.2-0.1-0.3l-0.3-1.8c0,0,0-0.1,0-0.1l-0.6-2
	c0-0.1,0-0.1,0-0.2l-0.5-6.9c0-0.1,0-0.1,0-0.2l-0.7-2.6c-0.1-0.4-0.4-0.7-0.8-0.8l-1.9-0.5c-0.1,0-0.3,0-0.4,0l-1.8,0.2
	c-0.2,0-0.3,0-0.5-0.1l-2.1-0.8c-0.1,0-0.2-0.1-0.3-0.1l-4.1-2.9c-0.1-0.1-0.2-0.2-0.3-0.3l-1.1-1.7c-0.1-0.1-0.2-0.3-0.2-0.5
	l-0.4-4.1c0-0.3-0.2-0.6-0.4-0.7l-1.3-1.1c-0.2-0.2-0.4-0.2-0.7-0.2h-1c-0.1,0-0.3,0-0.4,0.1l-5.2,1.9c0,0-0.1,0-0.1,0l-1.1,0.3
	c-0.1,0-0.2,0-0.2,0h-1.1c-0.1,0-0.2,0-0.3,0l-1.2-0.3c0,0-0.1,0-0.1,0l-1.6-0.6l-0.7-0.6l-0.2-0.7l0.1-0.7l-0.3-0.7l-0.6-0.7
	l-0.7,0.1h-0.7l-4.4-1.6c-0.1,0-0.2-0.1-0.3-0.1l-4.4-0.2c-0.2,0-0.3,0-0.4-0.1l-2.5-1.3c-0.1,0-0.1-0.1-0.2-0.1l-8.5-6.5
	c-0.1,0-0.1-0.1-0.2-0.1l-1.2-0.6c-0.1,0-0.1-0.1-0.2-0.1l-3.8-1c-0.1,0-0.1,0-0.2-0.1l-1.1-0.5c-0.1,0-0.1-0.1-0.2-0.1l-1.4-1.1
	c-0.1,0-0.1-0.1-0.2-0.1l-6.2-6.9c0-0.1-0.1-0.1-0.2-0.1l-0.9-0.7c-0.1-0.1-0.3-0.2-0.4-0.2l-3.6-0.8l-1,0.1l-0.9,0.6l-0.3-0.9
	c-0.1-0.1-0.1-0.3-0.2-0.4l-1.2-1.3l-0.3-0.7l-0.1-1.3l-0.6-0.2l-1,0.3c0,0-0.1,0-0.1,0l-0.9,0.2l-1.4-0.4c-0.1,0-0.2-0.1-0.3-0.2
	l-1-0.8c-0.1-0.1-0.2-0.1-0.2-0.2l-0.8-1.2c0-0.1-0.1-0.1-0.1-0.2l-0.6-1.3c0,0,0-0.1-0.1-0.1l-0.6-0.9c-0.1-0.1-0.1-0.2-0.2-0.3
	l-1.7-1.4c-0.1-0.1-0.2-0.1-0.2-0.2l-1.2-1.7c-0.1-0.1-0.2-0.2-0.3-0.3l-3.7-2.6l1-0.5l-0.3-0.9c-0.1-0.2-0.2-0.3-0.3-0.5l-0.5-0.5
	c0,0-0.1-0.1-0.1-0.1l-0.8-0.6l-0.7-0.7v-1.1c0,0,0-0.1,0-0.1l0.1-1.1c0,0,0-0.1,0-0.1v-1c0-0.2,0-0.3-0.1-0.5l-0.4-0.8l-0.4-0.2
	l-2.2,1l-0.5-0.6l-0.7-0.6l-0.9-0.2l-0.7-0.5l-2-1.1c0,0-0.1,0-0.1,0l-1.7-1.1c-0.1,0-0.1-0.1-0.2-0.1l-0.8-0.8
	c-0.1-0.1-0.1-0.1-0.2-0.2l-0.3-0.5c-0.2-0.3-0.2-0.6-0.1-0.8l0.2-0.7l0.6-0.7l0.9-0.4c0.1,0,0.1,0,0.2-0.1l0.9-0.2
	c0.2,0,0.4-0.1,0.5-0.3l0.8-0.8c0.1-0.1,0.2-0.2,0.2-0.3l1-1.9c0-0.1,0.1-0.1,0.1-0.1l0.8-1.1c0,0,0.1-0.1,0.1-0.1l1.6-1.6
	c0,0,0,0,0-0.1l1.4-1.6l0.8-0.9c0,0,0.1-0.1,0.1-0.1l1.1-0.9c0.1-0.1,0.3-0.2,0.4-0.2l2.7-0.6c0.1,0,0.3,0,0.4,0l1.3,0.2
	c0.1,0,0.2,0,0.2,0l0.8-0.1c0.1,0,0.2,0,0.3,0l1.2,0.2c0.1,0,0.2,0,0.2,0.1l1.1,0.5c0.1,0,0.1,0.1,0.2,0.1l1.2,0.3c0,0,0.1,0,0.1,0
	l2.2,0.2c0,0,0.1,0,0.1,0l1.4,0.3c0,0,0.1,0,0.1,0l1.8,0.2l0.3,0.2l0.5,0.6l0.7,0.4l0.6,0.2l0.7-0.1l-0.1-0.9l0.3-1.3
	c0-0.2,0.1-0.3,0.2-0.5l0.6-0.6c0.1-0.1,0.2-0.3,0.2-0.4l0.3-1c0.1-0.3,0-0.6-0.1-0.8l-0.4-0.7l0.1-1l0.5-1V780l-0.4-0.1l-0.5,0.8
	l-0.8,0.5h-1.4l-0.4-0.9v-1.1c0-0.1,0-0.2,0-0.2l0.3-1.2c0,0,0-0.1,0-0.1l0.1-0.9c0,0,0-0.1,0-0.1l0.3-1.7l0.1-0.8l-0.3-0.6
	l-0.5-0.6l-0.7-0.6l-0.7-0.3l-0.7,0.4l-0.5,0.8c-0.1,0.1-0.1,0.2-0.1,0.3l-0.6,2l-0.8,0.3l-0.5-0.5l-0.1-1.4l-0.2-1.7
	c0-0.1,0-0.2-0.1-0.2l-0.7-2.1c0-0.1,0-0.1,0-0.2l-0.6-3.1c0,0,0,0,0-0.1l-0.6-2.2c0-0.1,0-0.1,0-0.2l-0.2-2.5c0-0.2,0-0.4,0.1-0.5
	l1.5-3.2c0,0,0-0.1,0.1-0.1l0.3-1.1c0.1-0.3,0.3-0.6,0.6-0.7l0.9-0.4c0.3-0.1,0.5-0.4,0.6-0.7l0.4-1.3c0-0.1,0.1-0.1,0.1-0.2
	l1.9-3.5c0,0,0,0,0-0.1l1.4-2.8c0,0,0,0,0-0.1l0.7-1.8c0-0.1,0.1-0.2,0.2-0.3l0.9-1l-0.4,1c0,0.1-0.1,0.2-0.1,0.3l-0.1,0.9
	c0,0.1,0,0.2,0,0.3l0.2,0.9c0,0,0,0,0,0.1l0.3,1.2l1-3c0-0.1,0-0.1,0-0.2l0.5-2.9c0-0.1,0.1-0.3,0.1-0.4l0.7-1.2l0.5,0.1
	c0.4,0.1,0.8,0,1.1-0.4l1.3-1.6l1.7-2c0,0,0.1-0.1,0.1-0.1l1.4-2c0.1-0.2,0.3-0.4,0.6-0.4l0.9-0.3c0.2-0.1,0.3-0.1,0.4-0.2l2.3-2.3
	c0.1,0,0.1-0.1,0.2-0.1l1.6-1l0.8,0.1l1.4,3.3c0,0.1,0.1,0.1,0.1,0.2l1,1.6l1,1.5c0.2,0.3,0.5,0.5,0.8,0.5l1.1,0.1l-0.8-2.2
	c0-0.1,0-0.1,0-0.2l-0.3-1.7c0-0.1,0-0.1,0-0.2v-1.7c0-0.2,0.1-0.4,0.2-0.6l0.4-0.6c0.1-0.1,0.1-0.2,0.2-0.2l0.9-0.8l0.6,1.1
	c0.1,0.1,0.1,0.2,0.1,0.3l0.4,1.6c0,0.2,0,0.4,0,0.5l-0.2,0.8c-0.1,0.3,0,0.6,0.1,0.9l0.4,0.6c0,0.1,0.1,0.1,0.1,0.2l1,2.4
	c0,0.1,0.1,0.2,0.2,0.3l0.9,1l0.6,0.4l2.3,1.2c0.1,0,0.1,0.1,0.2,0.1l1,0.3l0.6-0.1l1-0.6c0.1-0.1,0.2-0.1,0.3-0.1l1.2-0.4l0.1-0.9
	l-0.1-0.5l0.3-0.7v-2.2c0-0.1,0-0.2,0-0.3l-0.5-1.8c0-0.1-0.1-0.2-0.1-0.2l-0.5-0.9c0-0.1-0.1-0.1-0.1-0.2l-0.4-1.1l0.6-0.6l1.5,0.3
	l0,0l6,3.9c0.1,0,0.1,0.1,0.2,0.2l1.7,1.8c0.2,0.2,0.3,0.4,0.3,0.7l0.1,0.8c0,0,0,0.1,0,0.1l0.3,1.3c0,0.1,0,0.1,0,0.2l0.9,2.3
	l0.1,0.7 M237.5,728l1.2,0.6l1.4-0.5l1.4,0.8l0.4,1.2l0.5,0.7l0.2,0.8l-0.2,0.4l0.1,0.4l1.6,1.9l0.6,1.4l0.1,2.2l-0.7,1.9l-1.9,0.5
	l-1.5-0.9l-1.8-1.9l-1.5-2l-0.7-1.4l0.2-1l1-0.7l0.3-0.7l-0.5-0.7l-1-1.9l0.1-0.7L237.5,728L237.5,728z"/>
<path class="st0" d="M413.8,226.5l-0.4-1.1l-0.1-1.4l0.6-0.7l1-0.4l0.3-0.4l0.7-1.5l0.7-1.1l0.2-0.8l0.1-0.7V217l0.3-0.7l-2.1,1.2
	l-2.8,1.9l-2.7,2.8l-2.7,1.6l-1.3-0.2l1-2.3l1.9-1.1l1-0.6l1-1.4l0.4-0.9l0.6-0.8l0.2-0.7l-0.3-0.9l0.2-0.5h1.5l-0.4-0.6l-0.1-0.5
	l0.1-0.6l0.4-0.6l0.6,1.4l1.3-0.3l2.5-1.6l0.7-0.6v-1.6l-0.4-1.8l-0.1-1.6h-0.5l-0.5,0.4l-0.4-0.5l-0.4-1.8h-0.5l-0.4,1.1l-0.4,0.2
	l-0.6,0.1l0.3-0.5l0.3-1.3l0.3-0.5l0.4-0.4l0.8-0.4l0.5-0.4l1.9-2.2l0.6-0.4l-0.3,1.2l-0.7,1.4l-0.3,1.2l1.1,0.5l0.9-0.6l0.4-1.5
	v-1.7l-0.2-1.4l-0.2-0.3l-1.2-0.2l0.1-0.4l0.4-1l-0.1-1.5l-0.2-0.6l-0.9-0.2l-0.2-0.3l0.3-0.6l0.6-0.7l0.7-0.3l0.8-0.1l0.9-0.3
	l0.7-0.4l0.6-0.6v-0.4l-0.5-0.7l0.1-0.3l1.5-0.7h0.5l0.5-0.1l0.2-0.8l0.2-0.1l0.6-0.6l0.4-0.7v-0.3l0.4-0.1l1.6-0.8l4.5-1.1l0.6-0.6
	l0.7-1.1l0.5-0.6l0.4-0.1l1.1,0.5l0.1,0.4l-0.5,0.7l0.5,0.5v0.3l-0.4,0.7l-0.2,0.9 M416.9,208.8l-0.7,0.8l-1.4-0.3l-0.6,0.3
	l-0.2,0.9l-0.2,0.5h-0.6l-0.2-0.9l-0.1-1.1l0.2-0.8l0.4-0.6l0.7-0.7l0.5,0.4l0.8,0.3l1.3,0.4L416.9,208.8L416.9,208.8z M437.5,180.6
	v-0.4l-1.1,0.9l-0.3,0.5l-1.3-0.7l-0.4-1.3l0.5-1.2l2.4-0.8l0.2-0.3l0.3,0.5l0.2,1.7L437.5,180.6L437.5,180.6z"/>
<path class="st0" d="M301.9,624.3l-0.5-1.1l1.2-1.5l-5.7-0.1l-1-0.2l-1-1.1l-2.4-4.2l1.9-2.7l0.4-1l0.5-2.9l0.7-1l1.5-0.7v-0.5
	l-1.4,0.5l0.2-2l0.7-3.1l0.1-9.3l0.4,1.1l0.9,0.8l0.3-0.7l0.2-1.1l-0.2-1l-1.6-0.8l-0.3-0.9v-1.1l-0.2-0.9l1.5,0.2l1.2,0.8l0.8,1.1
	l0.6,1.2h0.4l-0.7-2.2l-2.9-3.5l-0.4-2.2l-1.5,0.5l-0.5-2.8l-0.8-8.6l-0.5-1.2l-0.4-10.1l0.4-2.3l0.6-2.2l0.8-2l-0.9-0.5l-0.1-1.5
	l0.1-1.5l-0.3-0.7l-0.6-0.5l-0.3-1.4l-0.2-2.7l-1,0.4l-0.6-0.3L291,546v-1.1h0.5l0.5,0.4h0.4l0.5-0.4l-0.7-0.5l-0.3-0.6l-0.5-2.1
	l0.1-0.5l-0.5-0.5l-1.4-0.3l-0.4-0.2l-0.7-0.7l-0.5-0.7l-0.6-0.6l-0.9-0.3h-1l-0.7,0.2l-0.5,0.5l-0.1,0.7l-0.8-0.7h-0.8l-0.7,0.3
	h-0.5l-0.5-0.8l0.2-0.6l0.6-0.4l0.8-0.1l0.6-0.7l1.6-3.3l0.8-1.1l0.6-0.2l1.5-0.1l0.7-0.2l0.8-0.5l0.5-0.6l0.7-0.5l1-0.2l1.2,0.4
	l1,0.6l1.1,0.4l1.5-0.5l0.4-0.4l0.3-0.9l0.3-0.8l-0.1-0.8l0.4-0.4l0.8,0.1l0.5-1l0.7-0.5l0.9-0.6l0.6-0.5l0.5-0.6l0.3-0.8l0.4-1.6
	l-0.2-2.8l-1-2.4l-2.7-4.4l-0.7-0.6l-0.1-1.5l-2.6-7.3h-0.5v1.9h-0.5l-1-3L291,499l-4.1-5.1l-0.7-1.2l-0.3-1l0.1-2.7l0.5-2.4v-1.1
	l-0.5-0.9l0.5-0.4l2.5,2.1l1.6,2l0.7-0.5l0.6-1.1l1-2.5l0.2-1.3l0.1-1.2l-0.1-1l-0.2-0.7l-1.2-1.7l0.1-0.6l1.6-0.5l0.2,0.4l0.7,0.5
	l0.2-1l-0.2-1l-0.6-0.7l-0.8-0.5v-0.5l1-1.7l0.3-1.1l0.1-1.4l0.8-1l0.3-1.5l-0.1-1.5l-0.5-1.1l-2.3-1.8l-1.2-1.4l-0.7-0.5v-0.7
	l0.4-1.4v-0.9l-0.2-0.8l-0.5-0.4l-0.6-0.2l-2.3-1.3l-1.6,0.4l-1.3,1l-0.8,1.1l0.5,0.9l-0.6,0.1l-0.9,0.4h-0.4v-1.7l0.1-0.8l0.3-0.8
	l-2.7-6l-1.4-1.8l-1.9-1.9l-1-0.7l-1.7-0.4l-0.6-0.5l-0.8,0.2l-0.2,0.4l-0.1,1.1l-0.6,0.3l-0.3-4.7l0.6-1.9l1.8-0.8l0.8-1.2
	l-0.8-2.6l-2.1-4h-0.5l0.5,0.8l0.5,0.5v0.5h-0.5l-1.2-1.6l-4.9-5.3l-0.7-0.4l-1.2-0.1l-0.7-0.4l-0.4-0.9l-0.5-0.8l-1-0.3l0.5-0.4
	l-0.9-0.3l-0.8-0.6l-1.1-1.5l-0.5-0.1l5.1-16.4l1.6,0.4l1.4-0.3l1.3-0.7l1-1.3l0.6-1.7l-0.2-1.5l-1.5-3l-0.6-2.1l-0.3-2.9l0.4-2.4
	l1.6-0.9l0.7,0.3l3.4,2.9l0.6,0.8l-0.3,0.7l0.2,0.5l0.8,0.2l1.8,2.6l0.5,0.9l0.9,3.4l0.7,0.7l1.5-0.1l1.7-1.4l3.1-3.1l9.4-5.9l2-1.8
	l-0.5-1.2l-1.3-1.3l-0.9-2l0.2-0.8l2-2.6l1.7-3.8l1.4-1.5l2.1-1.1l2.2-0.7l2-0.4h2.5l0.4-0.3L307,372l-0.7-0.7l-0.7-0.5l-0.6-0.6
	l-0.5-1l-0.1-1.6l-1.4-5.3l-2-3.8l-2.4-3.5l-1.4-3.1l-0.5-0.7l-0.9-0.3l-0.9-0.1l-0.8-0.3l-0.8-1.2l-0.6-2.4l-0.5-4.7l-1-2.3
	l-1.1-1.9l-0.7-0.6l-1.1-0.4l-2.1,0.2l-0.6-0.4v-1.6l0.6-2l2.6-2.8l0.8-1.7v-1.2l-0.4-0.7l0.1-0.5l1.1-0.7l1.1-0.3l1.1-0.1l0.7-0.5
	l0.1-1.2l0.4-0.6l1.1,0.6l0.6,2.5l0.8,1.3l0.9,0.8l0.6,0.8l0.6,1l0.5,1.3l0.6,2.6l0.5,1.5l4.4,3l3.4,1.3l1,0.8l0.7,0.8l5.4,9
	l1.5,1.1l0.9,0.2h1.9l0.3,0.1l0,0v0.2l0.8,3.3l0.5,1.1l0.3,1.3 M299.3,625.3l0.1,1.2l-0.5,0.7l-0.9,0.4l-0.8-0.3l-0.8-0.8l-0.6-0.2
	l-0.9,0.1l-2.9,2.4l-2.8,0.4l0.2-1.1l0.4-0.7l0.8-0.7l0.9-0.2l0.9,0.1l0.7-0.1l0.3-0.9l0.2-0.5l0.7-0.5l0.8-0.2l0.8,0.3l1.1,1.3
	l0.4,0.1l1-0.3L299.3,625.3L299.3,625.3z M294.8,621.7l1.3,0.6l1.4-0.1l1.4-0.3l1.3,0.2l-1.2,2l-0.9,0.8l-0.8-0.4l-1.2-1.5l-1.7,0.7
	l-1.6,0.2h-3.5l-1.3-0.3l-0.9-0.1l-1,0.2l-0.6,0.5l-0.9,1.1l-2.5,0.8l-0.3,0.2l-0.2-0.6v-0.9l0.3-0.9l0.6-0.4l0.9-0.3l1.5-1.3
	l0.8-0.2l0.9,0.1l1.7,0.3h0.9l-0.3-0.5l-1-0.7l-0.5-0.6h2.3l-1.6-0.4l0.2-0.7l1.1-0.7l1.2-0.6l-0.9-0.4h-0.5l0.5-1l1.8,1l1,0.8
	l0.8,1l0.5,1.1L294.8,621.7L294.8,621.7z"/>
<path class="st0" d="M406,272.6l1.7,0.4l0.9-0.6l2.6-2.3l1.6-3.1l1.3-4.4l0.1-4l-0.8-1.8l-0.8-1l-0.5-0.5l-0.7-1.3h-1.1l-0.9-0.7
	l-0.7-0.4h-1.4l-0.8,0.4l-0.8,0.6l-0.2-0.7l3.8-3.8l0.6-1.8l1.1-3.8v-1.6l0.4-1.4l0.9-1.9l0.7-2.3l0.3-1.4v-1.4l0.9-3.9l0.1-2.2
	l-0.5-1.2 M396.8,246.6l0.5,0.1v0.4h-1.2l-0.7,0.1l-0.2-0.4l0.5-0.4L396.8,246.6L396.8,246.6z"/>
</svg>
